<?xml version="1.0" encoding="UTF-8" standalone="no"?>
<svg
   xmlns:dc="http://purl.org/dc/elements/1.1/"
   xmlns:cc="http://creativecommons.org/ns#"
   xmlns:rdf="http://www.w3.org/1999/02/22-rdf-syntax-ns#"
   xmlns:svg="http://www.w3.org/2000/svg"
   xmlns="http://www.w3.org/2000/svg"
   xmlns:sodipodi="http://sodipodi.sourceforge.net/DTD/sodipodi-0.dtd"
   xmlns:inkscape="http://www.inkscape.org/namespaces/inkscape"
   inkscape:version="1.0 (4035a4f, 2020-05-01)"
   sodipodi:docname="external-link-blank.svg"
   id="svg837"
   version="1.1"
   fill="none"
   viewBox="0 0 40 40"
   height="40"
   width="40">
  <metadata
     id="metadata843">
    <rdf:RDF>
      <cc:Work
         rdf:about="">
        <dc:format>image/svg+xml</dc:format>
        <dc:type
           rdf:resource="http://purl.org/dc/dcmitype/StillImage" />
        <dc:title></dc:title>
      </cc:Work>
    </rdf:RDF>
  </metadata>
  <defs
     id="defs841" />
  <sodipodi:namedview
     inkscape:current-layer="svg837"
     inkscape:window-maximized="1"
     inkscape:window-y="23"
     inkscape:window-x="0"
     inkscape:cy="20"
     inkscape:cx="20"
     inkscape:zoom="20.275"
     showgrid="false"
     id="namedview839"
     inkscape:window-height="955"
     inkscape:window-width="1920"
     inkscape:pageshadow="2"
     inkscape:pageopacity="0"
     guidetolerance="10"
     gridtolerance="10"
     objecttolerance="10"
     borderopacity="1"
     bordercolor="#666666"
     pagecolor="#ffffff" />
  <path
     id="path833"
     fill="#2F80ED"
     d="M22 6C21.4696 6 20.9609 6.21071 20.5858 6.58579C20.2107 6.96086 20 7.46957 20 8C20 8.53043 20.2107 9.03914 20.5858 9.41421C20.9609 9.78929 21.4696 10 22 10H27.172L14.586 22.586C14.395 22.7705 14.2426 22.9912 14.1378 23.2352C14.033 23.4792 13.9778 23.7416 13.9755 24.0072C13.9732 24.2728 14.0238 24.5361 14.1244 24.7819C14.2249 25.0277 14.3734 25.251 14.5612 25.4388C14.749 25.6266 14.9723 25.7751 15.2181 25.8756C15.4639 25.9762 15.7273 26.0268 15.9928 26.0245C16.2584 26.0222 16.5208 25.967 16.7648 25.8622C17.0088 25.7574 17.2295 25.605 17.414 25.414L30 12.828V18C30 18.5304 30.2107 19.0391 30.5858 19.4142C30.9609 19.7893 31.4696 20 32 20C32.5304 20 33.0392 19.7893 33.4142 19.4142C33.7893 19.0391 34 18.5304 34 18V8C34 7.46957 33.7893 6.96086 33.4142 6.58579C33.0392 6.21071 32.5304 6 32 6H22Z" />
  <path
     id="path835"
     fill="#2F80ED"
     d="M10 10C8.93913 10 7.92172 10.4214 7.17157 11.1716C6.42143 11.9217 6 12.9391 6 14V30C6 31.0609 6.42143 32.0783 7.17157 32.8284C7.92172 33.5786 8.93913 34 10 34H26C27.0609 34 28.0783 33.5786 28.8284 32.8284C29.5786 32.0783 30 31.0609 30 30V24C30 23.4696 29.7893 22.9609 29.4142 22.5858C29.0391 22.2107 28.5304 22 28 22C27.4696 22 26.9609 22.2107 26.5858 22.5858C26.2107 22.9609 26 23.4696 26 24V30H10V14H16C16.5304 14 17.0391 13.7893 17.4142 13.4142C17.7893 13.0391 18 12.5304 18 12C18 11.4696 17.7893 10.9609 17.4142 10.5858C17.0391 10.2107 16.5304 10 16 10H10Z" />
  <path
     id="path853"
     d="M 9.3734714,33.927093 C 7.6984097,33.646397 6.3407281,32.270831 6.0694328,30.579531 c -0.071227,-0.444042 -0.071227,-16.719952 0,-17.163995 0.2176258,-1.356714 1.1494864,-2.550945 2.401308,-3.077408 0.7122994,-0.299564 0.6263157,-0.293265 4.2711832,-0.312885 2.257589,-0.01215 3.428868,-8.13e-4 3.600493,0.03486 0.619809,0.128818 1.165704,0.549816 1.44098,1.111293 0.132566,0.270394 0.145086,0.340622 0.145086,0.81381 0,0.476214 -0.01223,0.543684 -0.152,0.838613 -0.194716,0.410866 -0.546733,0.762883 -0.9576,0.957599 l -0.320733,0.152001 -3.26757,0.01368 -3.2675714,0.01368 v 8.038104 8.038103 h 8.0381034 8.038104 l 0.01368,-3.267571 0.01368,-3.26757 0.152001,-0.320733 c 0.194716,-0.410867 0.546733,-0.762884 0.957599,-0.9576 0.294929,-0.139771 0.362399,-0.152 0.838613,-0.152 0.473188,0 0.543416,0.01252 0.81381,0.145086 0.561477,0.275276 0.982475,0.821171 1.111293,1.44098 0.03559,0.171251 0.04742,1.347825 0.03619,3.600493 -0.01617,3.243846 -0.01991,3.357627 -0.122394,3.722721 -0.194432,0.692679 -0.567223,1.335694 -1.060159,1.828629 -0.480122,0.480123 -1.086017,0.828137 -1.839156,1.056374 -0.28068,0.08506 -0.734375,0.09011 -8.803945,0.09802 -4.951062,0.0049 -8.6204535,-0.0105 -8.7769606,-0.03673 z"
     style="opacity:1;fill:#ffffff;stroke:#000000;stroke-width:0.0493995" />
  <path
     id="path855"
     d="m 15.358573,25.890189 c -1.0983,-0.379257 -1.639867,-1.601448 -1.178621,-2.659871 0.133427,-0.306176 0.423649,-0.60477 6.567984,-6.757449 3.535614,-3.540416 6.42839,-6.453486 6.42839,-6.4734897 0,-0.020004 -1.227784,-0.036371 -2.72841,-0.036371 -2.99928,0 -3.02029,-0.00183 -3.495868,-0.3037549 -0.512753,-0.3255316 -0.860854,-0.902151 -0.911853,-1.5104586 -0.07151,-0.8529823 0.47108,-1.6854079 1.316155,-2.0192042 0.207039,-0.081778 0.577759,-0.088568 5.518629,-0.101078 5.763848,-0.014594 5.622273,-0.020598 6.098781,0.2586545 0.262909,0.1540751 0.575946,0.4696169 0.734799,0.7406792 0.284519,0.4854953 0.277546,0.3237879 0.262928,6.0971747 -0.01251,4.94087 -0.0193,5.31159 -0.101078,5.518629 -0.333796,0.845075 -1.166222,1.387666 -2.019204,1.316155 -0.608308,-0.051 -1.184927,-0.3991 -1.510459,-0.911853 -0.301929,-0.475578 -0.303755,-0.496588 -0.303755,-3.495868 0,-1.500626 -0.01637,-2.72841 -0.03637,-2.72841 -0.02,0 -2.933073,2.892776 -6.473489,6.42839 -6.145671,6.137337 -6.451634,6.434744 -6.757711,6.56875 -0.436611,0.191157 -0.980699,0.217912 -1.410847,0.06938 z"
     style="opacity:1;fill:#ffffff;stroke:#000000;stroke-width:0.0493995" />
</svg>
