<svg width="64" height="64" viewBox="0 0 64 64" fill="none" xmlns="http://www.w3.org/2000/svg">
<path d="M45.25 47V48.875C45.25 57.1624 38.5376 64 30.25 64C24.5875 64 19.55 60.8874 17 56.2375C15.8 54.1 15.125 51.5001 15.125 48.875V43.25C15.125 42.1999 15.9499 41.375 17 41.375C18.0501 41.375 18.875 42.1999 18.875 43.25V48.875C18.875 55.0624 24.0624 60.25 30.25 60.25C36.4376 60.25 41.5 55.0624 41.5 48.875V47C41.5 45.9499 42.3249 45.125 43.375 45.125C44.4251 45.125 45.25 45.9499 45.25 47Z" fill="#E61E14"/>
<path d="M34 5.625V20.6749L21.8125 28.0625C20.3875 27.125 18.65 26.6747 17 26.6747C15.4626 26.6747 13.8874 27.125 12.5 28.0625L0 20.5625V5.625C0 2.51238 2.51238 0 5.625 0H28.375C31.4876 0 34 2.51238 34 5.625Z" fill="#CAE8F9"/>
<path d="M21.8125 28.0625C20.3875 27.125 18.65 26.6747 17 26.6747V0H28.375C31.4876 0 34 2.51238 34 5.625V20.6749L21.8125 28.0625Z" fill="#B7E0F6"/>
<path d="M62.125 64C61.0886 64 60.25 63.1614 60.25 62.125V11.375C60.25 7.23863 56.8864 3.875 52.75 3.875C48.6136 3.875 45.25 7.23863 45.25 11.375V35.75C45.25 36.7864 44.4114 37.625 43.375 37.625C42.3386 37.625 41.5 36.7864 41.5 35.75V11.375C41.5 5.17137 46.5464 0.125 52.75 0.125C58.9536 0.125 64 5.17137 64 11.375V62.125C64 63.1614 63.1614 64 62.125 64Z" fill="#E61E14"/>
<path d="M47.125 33.875H39.625C38.5749 33.875 37.75 34.6999 37.75 35.75V47C37.75 48.0499 38.5749 48.875 39.625 48.875H47.125C48.1751 48.875 49 48.0499 49 47V35.75C49 34.6999 48.1751 33.875 47.125 33.875Z" fill="#CAE8F9"/>
<path d="M22.75 9.5C22.75 10.5499 21.9251 11.375 20.875 11.375H13.25C12.1999 11.375 11.375 10.5499 11.375 9.5C11.375 8.44987 12.1999 7.625 13.25 7.625H20.875C21.9251 7.625 22.75 8.44987 22.75 9.5Z" fill="#19DEC1"/>
<path d="M34 20.6749C34 24.8749 34 23.9749 34 28.2501C34 37.5499 26.2999 45.1251 17 45.1251C7.70012 45.1251 0 37.5499 0 28.2501V20.5626C0.374875 20.7501 0.75 20.9374 1.125 21.1999C3.9375 23.0374 7.625 23.0374 10.4375 21.1999C12.4251 19.8499 14.7501 19.1748 17 19.1748C19.3625 19.1748 21.8125 19.8501 23.875 21.1999C26.6875 23.0374 30.25 23.0374 33.0625 21.1999C33.3626 21.0126 33.6999 20.8249 34 20.6749Z" fill="#FD4E26"/>
<path d="M34 20.6748C34 24.8748 34 23.9748 34 28.2499C34 37.5498 26.2999 45.1249 17 45.1249V19.1748C19.3625 19.1748 21.8125 19.8501 23.875 21.1999C26.6875 23.0374 30.25 23.0374 33.0625 21.1999C33.3626 21.0124 33.6999 20.8248 34 20.6748Z" fill="#FD3018"/>
<path d="M31.6507 33.875H24.625C23.5886 33.875 22.75 33.0364 22.75 32C22.75 30.9636 23.5886 30.125 24.625 30.125H31.6507C32.6871 30.125 33.5257 30.9636 33.5257 32C33.5257 33.0364 32.6871 33.875 31.6507 33.875Z" fill="#E61E14"/>
<path d="M34 15.125H24.625C23.5895 15.125 22.75 15.9642 22.75 17C22.75 18.0355 23.5895 18.875 24.625 18.875H34V15.125Z" fill="#A4D9F5"/>
<path d="M22.75 9.5C22.75 10.5499 21.9251 11.375 20.875 11.375H17V7.625H20.875C21.9251 7.625 22.75 8.44987 22.75 9.5Z" fill="#17CEB4"/>
<path d="M49 35.75V47C49 48.0499 48.1751 48.875 47.125 48.875H43.375V33.875H47.125C48.1751 33.875 49 34.6999 49 35.75Z" fill="#B7E0F6"/>
</svg>
