<svg width="61" height="61" viewBox="0 0 61 61" fill="none" xmlns="http://www.w3.org/2000/svg">
<path d="M24.9868 24.9673L26.824 21.9005L35.5041 27.1005L33.6669 30.1673L24.9868 24.9673Z" fill="#D5E8FE"/>
<path d="M38.1516 34.4512L41.1252 32.4675L49.4789 44.9905L46.5052 46.9741L38.1516 34.4512Z" fill="#D5E8FE"/>
<path d="M24.9831 14.5532L33.6531 9.34312L35.4939 12.4063L26.8239 17.6164L24.9831 14.5532Z" fill="#D5E8FE"/>
<path d="M30.4783 40.8057L34.4276 32.9071L37.6233 34.5049L33.674 42.4035L30.4783 40.8057Z" fill="#D5E8FE"/>
<path d="M40.8146 28.0723L51.6779 25.9018L52.3784 29.4079L41.5151 31.5783L40.8146 28.0723Z" fill="#D5E8FE"/>
<path d="M51.9453 61C47.0185 61 43.0098 56.8721 43.0098 51.9453C43.0098 47.0185 47.0185 43.0098 51.9453 43.0098C56.8721 43.0098 61 47.0185 61 51.9453C61 56.8721 56.8721 61 51.9453 61Z" fill="#FF3B7F"/>
<path d="M6.74225 9.27148L9.26897 6.74477L15.9836 13.4594L13.4568 15.9861L6.74225 9.27148Z" fill="#EDF5FF"/>
<path d="M6.74048 30.2812L13.4551 23.5667L15.9818 26.0934L9.2672 32.808L6.74048 30.2812Z" fill="#EDF5FF"/>
<path d="M19.7773 28.7129C24.7123 28.7129 28.7129 24.7123 28.7129 19.7773C28.7129 14.8424 24.7123 10.8418 19.7773 10.8418C14.8424 10.8418 10.8418 14.8424 10.8418 19.7773C10.8418 24.7123 14.8424 28.7129 19.7773 28.7129Z" fill="#FF6E83"/>
<path d="M28.7129 19.7773C28.7129 14.8505 24.7042 10.8418 19.7773 10.8418V28.7129C24.7042 28.7129 28.7129 24.7042 28.7129 19.7773Z" fill="#FF3B7F"/>
<path d="M37.6484 35.8613C34.6921 35.8613 32.2871 33.4564 32.2871 30.5C32.2871 27.5436 34.6921 25.1387 37.6484 25.1387C40.6048 25.1387 43.0098 27.5436 43.0098 30.5C43.0098 33.4564 40.6048 35.8613 37.6484 35.8613Z" fill="#5DACFF"/>
<path d="M30.5 50.1582C27.5436 50.1582 25.1387 47.7532 25.1387 44.7969C25.1387 41.8405 27.5436 39.4355 30.5 39.4355C33.4564 39.4355 35.8613 41.8405 35.8613 44.7969C35.8613 47.7532 33.4564 50.1582 30.5 50.1582Z" fill="#5DACFF"/>
<path d="M37.6484 14.416C34.6921 14.416 32.2871 12.011 32.2871 9.05469C32.2871 6.09833 34.6921 3.69336 37.6484 3.69336C40.6048 3.69336 43.0098 6.09833 43.0098 9.05469C43.0098 12.011 40.6048 14.416 37.6484 14.416Z" fill="#5DACFF"/>
<path d="M55.5195 32.2871C52.5632 32.2871 50.1582 29.8821 50.1582 26.9258C50.1582 23.9694 52.5632 21.5645 55.5195 21.5645C58.4759 21.5645 61 23.9694 61 26.9258C61 29.8821 58.4759 32.2871 55.5195 32.2871Z" fill="#5DACFF"/>
<path d="M5.48047 39.4355C2.52411 39.4355 0 37.0306 0 34.0742C0 31.1179 2.52411 28.7129 5.48047 28.7129C8.43682 28.7129 10.8418 31.1179 10.8418 34.0742C10.8418 37.0306 8.43682 39.4355 5.48047 39.4355Z" fill="#B3E4FF"/>
<path d="M5.48047 10.8418C2.52411 10.8418 0 8.43682 0 5.48047C0 2.52411 2.52411 0 5.48047 0C8.43682 0 10.8418 2.52411 10.8418 5.48047C10.8418 8.43682 8.43682 10.8418 5.48047 10.8418Z" fill="#B3E4FF"/>
</svg>
