<svg width="40" height="40" viewBox="0 0 40 40" fill="none" xmlns="http://www.w3.org/2000/svg">
<path d="M13.7783 24.4668C13.4717 24.4668 13.265 24.4968 13.1583 24.5268V26.4901C13.285 26.5201 13.4433 26.5285 13.6617 26.5285C14.46 26.5285 14.9517 26.1251 14.9517 25.4435C14.9517 24.8335 14.5283 24.4668 13.7783 24.4668ZM19.59 24.4868C19.2567 24.4868 19.04 24.5168 18.9117 24.5468V28.8968C19.04 28.9268 19.2467 28.9268 19.4333 28.9268C20.795 28.9368 21.6817 28.1868 21.6817 26.6001C21.6917 25.2168 20.8833 24.4868 19.59 24.4868Z" fill="white"/>
<path d="M23.3333 3.33398H9.99999C9.11593 3.33398 8.26809 3.68517 7.64297 4.31029C7.01785 4.93542 6.66666 5.78326 6.66666 6.66732V33.334C6.66666 34.218 7.01785 35.0659 7.64297 35.691C8.26809 36.3161 9.11593 36.6673 9.99999 36.6673H30C30.884 36.6673 31.7319 36.3161 32.357 35.691C32.9821 35.0659 33.3333 34.218 33.3333 33.334V13.334L23.3333 3.33398ZM15.83 26.984C15.315 27.4673 14.555 27.684 13.67 27.684C13.4984 27.6859 13.3269 27.6758 13.1567 27.654V30.0307H11.6667V23.4707C12.3391 23.3703 13.0185 23.3246 13.6983 23.334C14.6267 23.334 15.2867 23.5107 15.7317 23.8657C16.155 24.2023 16.4417 24.754 16.4417 25.404C16.44 26.0573 16.2233 26.609 15.83 26.984ZM22.175 29.2423C21.475 29.824 20.41 30.1007 19.1083 30.1007C18.3283 30.1007 17.7767 30.0507 17.4017 30.0007V23.4723C18.0743 23.3741 18.7536 23.3279 19.4333 23.334C20.695 23.334 21.515 23.5607 22.155 24.044C22.8467 24.5573 23.28 25.3757 23.28 26.5507C23.28 27.8223 22.815 28.7007 22.175 29.2423ZM28.3333 24.6173H25.78V26.1357H28.1667V27.359H25.78V30.0323H24.27V23.384H28.3333V24.6173ZM23.3333 15.0007H21.6667V6.66732L30 15.0007H23.3333Z" fill="white"/>
</svg>
