<svg width="40" height="40" viewBox="0 0 40 40" fill="none" xmlns="http://www.w3.org/2000/svg">
<path d="M13.7783 24.4667C13.4717 24.4667 13.265 24.4967 13.1583 24.5267V26.49C13.285 26.52 13.4433 26.5283 13.6617 26.5283C14.46 26.5283 14.9517 26.125 14.9517 25.4433C14.9517 24.8333 14.5283 24.4667 13.7783 24.4667ZM19.59 24.4867C19.2567 24.4867 19.04 24.5167 18.9117 24.5467V28.8967C19.04 28.9267 19.2467 28.9267 19.4333 28.9267C20.795 28.9367 21.6817 28.1867 21.6817 26.6C21.6917 25.2167 20.8833 24.4867 19.59 24.4867Z" fill="#2F80ED"/>
<path d="M23.3333 3.33334H9.99999C9.11593 3.33334 8.26809 3.68453 7.64297 4.30965C7.01785 4.93478 6.66666 5.78262 6.66666 6.66668V33.3333C6.66666 34.2174 7.01785 35.0652 7.64297 35.6904C8.26809 36.3155 9.11593 36.6667 9.99999 36.6667H30C30.884 36.6667 31.7319 36.3155 32.357 35.6904C32.9821 35.0652 33.3333 34.2174 33.3333 33.3333V13.3333L23.3333 3.33334ZM15.83 26.9833C15.315 27.4667 14.555 27.6833 13.67 27.6833C13.4984 27.6852 13.3269 27.6752 13.1567 27.6533V30.03H11.6667V23.47C12.3391 23.3697 13.0185 23.324 13.6983 23.3333C14.6267 23.3333 15.2867 23.51 15.7317 23.865C16.155 24.2017 16.4417 24.7533 16.4417 25.4033C16.44 26.0567 16.2233 26.6083 15.83 26.9833ZM22.175 29.2417C21.475 29.8233 20.41 30.1 19.1083 30.1C18.3283 30.1 17.7767 30.05 17.4017 30V23.4717C18.0743 23.3735 18.7536 23.3272 19.4333 23.3333C20.695 23.3333 21.515 23.56 22.155 24.0433C22.8467 24.5567 23.28 25.375 23.28 26.55C23.28 27.8217 22.815 28.7 22.175 29.2417ZM28.3333 24.6167H25.78V26.135H28.1667V27.3583H25.78V30.0317H24.27V23.3833H28.3333V24.6167ZM23.3333 15H21.6667V6.66668L30 15H23.3333Z" fill="#2F80ED"/>
</svg>
