<svg width="40" height="40" viewBox="0 0 40 40" fill="none" xmlns="http://www.w3.org/2000/svg">
<path d="M34.368 8.75H32.507C32.5052 8.75 32.5034 8.75074 32.5021 8.75206C32.5007 8.75338 32.5 8.75517 32.5 8.75703V32.5C32.5 33.163 32.7634 33.7989 33.2322 34.2678C33.7011 34.7366 34.337 35 35 35C35.663 35 36.2989 34.7366 36.7678 34.2678C37.2366 33.7989 37.5 33.163 37.5 32.5V11.882C37.5 11.0514 37.17 10.2547 36.5826 9.66735C35.9953 9.07998 35.1986 8.75 34.368 8.75Z" fill="#2F80ED"/>
<path d="M30 32.5V5.625C30 5.21462 29.9192 4.80826 29.7621 4.42911C29.6051 4.04997 29.3749 3.70547 29.0847 3.41529C28.7945 3.12511 28.45 2.89492 28.0709 2.73788C27.6917 2.58083 27.2854 2.5 26.875 2.5H5.625C4.7962 2.5 4.00134 2.82924 3.41529 3.41529C2.82924 4.00134 2.5 4.7962 2.5 5.625V33.125C2.5 34.2853 2.96094 35.3981 3.78141 36.2186C4.60188 37.0391 5.71468 37.5 6.875 37.5H33.6602C33.672 37.5001 33.6837 37.4979 33.6947 37.4934C33.7056 37.4889 33.7156 37.4823 33.7239 37.4739C33.7323 37.4656 33.7389 37.4556 33.7434 37.4447C33.7479 37.4337 33.7501 37.422 33.75 37.4102C33.75 37.3905 33.7434 37.3714 33.7314 37.3559C33.7194 37.3404 33.7026 37.3292 33.6836 37.3242C32.6262 37.0342 31.6932 36.4051 31.0278 35.5337C30.3624 34.6622 30.0013 33.5965 30 32.5ZM7.5 10C7.5 9.66848 7.6317 9.35054 7.86612 9.11612C8.10054 8.8817 8.41848 8.75 8.75 8.75H13.75C14.0815 8.75 14.3995 8.8817 14.6339 9.11612C14.8683 9.35054 15 9.66848 15 10V15C15 15.3315 14.8683 15.6495 14.6339 15.8839C14.3995 16.1183 14.0815 16.25 13.75 16.25H8.75C8.41848 16.25 8.10054 16.1183 7.86612 15.8839C7.6317 15.6495 7.5 15.3315 7.5 15V10ZM23.75 31.25H8.78516C8.1125 31.25 7.53516 30.7328 7.50156 30.0602C7.49342 29.8911 7.51968 29.7222 7.57874 29.5637C7.6378 29.4051 7.72845 29.2602 7.84517 29.1377C7.9619 29.0152 8.10228 28.9177 8.25782 28.851C8.41335 28.7844 8.58079 28.75 8.75 28.75H23.7148C24.3875 28.75 24.9648 29.2672 24.9984 29.9398C25.0066 30.1089 24.9803 30.2778 24.9213 30.4363C24.8622 30.5949 24.7716 30.7398 24.6548 30.8623C24.5381 30.9848 24.3977 31.0823 24.2422 31.149C24.0867 31.2156 23.9192 31.25 23.75 31.25ZM23.75 26.25H8.78516C8.1125 26.25 7.53516 25.7328 7.50156 25.0602C7.49342 24.8911 7.51968 24.7222 7.57874 24.5637C7.6378 24.4051 7.72845 24.2602 7.84517 24.1377C7.9619 24.0152 8.10228 23.9177 8.25782 23.851C8.41335 23.7844 8.58079 23.75 8.75 23.75H23.7148C24.3875 23.75 24.9648 24.2672 24.9984 24.9398C25.0066 25.1089 24.9803 25.2778 24.9213 25.4363C24.8622 25.5949 24.7716 25.7398 24.6548 25.8623C24.5381 25.9848 24.3977 26.0823 24.2422 26.149C24.0867 26.2156 23.9192 26.25 23.75 26.25ZM23.75 21.25H8.78516C8.1125 21.25 7.53516 20.7328 7.50156 20.0602C7.49342 19.8911 7.51968 19.7222 7.57874 19.5637C7.6378 19.4051 7.72845 19.2602 7.84517 19.1377C7.9619 19.0152 8.10228 18.9177 8.25782 18.851C8.41335 18.7844 8.58079 18.75 8.75 18.75H23.7148C24.3875 18.75 24.9648 19.2672 24.9984 19.9398C25.0066 20.1089 24.9803 20.2778 24.9213 20.4363C24.8622 20.5949 24.7716 20.7398 24.6548 20.8623C24.5381 20.9848 24.3977 21.0823 24.2422 21.149C24.0867 21.2156 23.9192 21.25 23.75 21.25ZM23.75 16.25H18.7852C18.1125 16.25 17.5352 15.7328 17.5016 15.0602C17.4934 14.8911 17.5197 14.7222 17.5787 14.5637C17.6378 14.4051 17.7284 14.2602 17.8452 14.1377C17.9619 14.0152 18.1023 13.9177 18.2578 13.851C18.4133 13.7844 18.5808 13.75 18.75 13.75H23.7148C24.3875 13.75 24.9648 14.2672 24.9984 14.9398C25.0066 15.1089 24.9803 15.2778 24.9213 15.4363C24.8622 15.5949 24.7716 15.7398 24.6548 15.8623C24.5381 15.9848 24.3977 16.0823 24.2422 16.149C24.0867 16.2156 23.9192 16.25 23.75 16.25ZM23.75 11.25H18.7852C18.1125 11.25 17.5352 10.7328 17.5016 10.0602C17.4934 9.89114 17.5197 9.72224 17.5787 9.56367C17.6378 9.40511 17.7284 9.26019 17.8452 9.13769C17.9619 9.01519 18.1023 8.91767 18.2578 8.85103C18.4133 8.78438 18.5808 8.75002 18.75 8.75H23.7148C24.3875 8.75 24.9648 9.26719 24.9984 9.93984C25.0066 10.1089 24.9803 10.2778 24.9213 10.4363C24.8622 10.5949 24.7716 10.7398 24.6548 10.8623C24.5381 10.9848 24.3977 11.0823 24.2422 11.149C24.0867 11.2156 23.9192 11.25 23.75 11.25Z" fill="#2F80ED"/>
</svg>
