<svg width="13" height="18" viewBox="0 0 13 18" fill="none" xmlns="http://www.w3.org/2000/svg">
<path d="M0.357481 9.6849L11.1908 17.1849C11.3158 17.2714 11.4621 17.3221 11.6139 17.3314C11.7656 17.3407 11.917 17.3083 12.0517 17.2378C12.1864 17.1672 12.2992 17.0612 12.3779 16.9311C12.4566 16.8011 12.4983 16.6519 12.4983 16.4999V1.4999C12.4984 1.3478 12.4569 1.19857 12.3782 1.06839C12.2996 0.938203 12.1868 0.832031 12.0521 0.761377C11.9174 0.690724 11.7659 0.658283 11.6141 0.667571C11.4623 0.676859 11.3159 0.727522 11.1908 0.814068L0.357481 8.31407C0.247113 8.39109 0.156978 8.49363 0.0947396 8.61296C0.0325012 8.7323 0 8.8649 0 8.99948C0 9.13407 0.0325012 9.26667 0.0947396 9.386C0.156978 9.50534 0.247113 9.60787 0.357481 9.6849Z" fill="#0000CC"/>
</svg>
