<svg width="13" height="18" viewBox="0 0 13 18" fill="none" xmlns="http://www.w3.org/2000/svg">
<path d="M12.1408 8.31315L1.30751 0.813148C1.18249 0.726642 1.03618 0.675984 0.884435 0.666663C0.732689 0.65734 0.581285 0.68971 0.446615 0.760263C0.311945 0.830815 0.199144 0.936868 0.120422 1.06693C0.0416999 1.19699 5.8684e-05 1.34612 8.15257e-06 1.49815L9.46385e-06 16.4981C-9.16123e-05 16.6502 0.0414381 16.7995 0.120099 16.9297C0.19876 17.0598 0.311551 17.166 0.446248 17.2367C0.580945 17.3073 0.73241 17.3398 0.884229 17.3305C1.03605 17.3212 1.18243 17.2705 1.30751 17.184L12.1408 9.68398C12.2512 9.60695 12.3413 9.50442 12.4036 9.38508C12.4658 9.26575 12.4983 9.13315 12.4983 8.99856C12.4983 8.86397 12.4658 8.73138 12.4036 8.61204C12.3413 8.49271 12.2512 8.39017 12.1408 8.31315Z" fill="#0000CC"/>
</svg>
