<svg width="574" height="105" xmlns="http://www.w3.org/2000/svg">

 <g>
  <title>background</title>
  <rect fill="none" id="canvas_background" height="602" width="802" y="-1" x="-1"/>
 </g>
 <g>
  <title>Layer 1</title>
  <path id="svg_1" fill="#2F80ED" d="m80.9408,39.3228l0,-2.6376l-4.4318,0l0,-16.5742l-1.2044,0c0,0 0.1375,-1.1767 0,-1.3171c4.3849,-8.87546 -4.5963,-10.40317 -4.5963,-10.40317l-0.057,-0.87585c0.198,-0.16441 0.3541,-0.37315 0.4556,-0.60917c0.1016,-0.23602 0.1456,-0.49263 0.1286,-0.74886c-0.017,-0.25622 -0.0946,-0.50481 -0.2265,-0.72545c-0.1318,-0.22063 -0.3142,-0.40706 -0.5321,-0.54405l-0.255,-3.76747c0,0 0,-1.10985 -0.6274,-1.10985c-0.6274,0 -0.624,0.90259 -0.624,0.90259c0,0 -0.161,2.07929 -0.3187,4.0115c-0.197,0.13753 -0.3612,0.31644 -0.4812,0.52412c-0.12,0.20767 -0.1928,0.43905 -0.2133,0.67782c-0.0205,0.23876 0.0119,0.47909 0.0948,0.70404c0.0829,0.22495 0.2143,0.42903 0.385,0.59786c-0.0165,0.27561 -0.0479,0.55012 -0.094,0.82236c-8.7697,2.77458 -4.5224,10.61038 -4.5224,10.61038l0,1.1801l-1.3923,0l0,16.7146l-4.5929,0l0,-11.7203l1.3923,-1.3171l0,-1.872c-0.5131,-0.1618 -0.9814,-0.4402 -1.368,-0.8132c-0.3866,-0.3731 -0.6809,-0.8305 -0.8597,-1.3363l-2.1572,0l-1.1138,1.3171l-7.3808,0l-1.1843,-1.2469l-2.1573,0l-1.1842,1.3873l-2.7813,0l-1.1876,-1.3138l-1.9492,0l-1.3219,1.2503l-7.3808,0l-1.2547,-1.3873l-1.8788,0c-0.2026,0.5044 -0.5203,0.9549 -0.9279,1.3158c-0.4076,0.3609 -0.894,0.6223 -1.4205,0.7635l0,2.0057l1.4627,1.3171l0,11.5799l-4.5929,0l0,-16.6411l-1.5365,0l0,-1.3371c4.1064,-8.73507 -4.3849,-10.33299 -4.3849,-10.33299l-0.0805,-0.96276c0.165,-0.16976 0.2912,-0.37309 0.37,-0.59604c0.0787,-0.22295 0.1081,-0.46024 0.0861,-0.69557c-0.022,-0.23533 -0.0949,-0.46314 -0.2135,-0.66777c-0.1187,-0.20463 -0.2805,-0.38125 -0.4741,-0.51772l-0.3355,-3.89116c0,0 -0.2114,-1.04299 -0.6274,-1.04299c-0.416,0 -0.5569,1.04299 -0.5569,1.04299c0,0 -0.151,1.95561 -0.3053,3.83767c-0.2364,0.14704 -0.4315,0.35144 -0.56704,0.59407c-0.13554,0.24263 -0.20709,0.51556 -0.20795,0.79324c0.00649,0.23064 0.06221,0.45725 0.16344,0.66475c0.10125,0.20751 0.24565,0.39115 0.42365,0.5387c-0.0162,0.28149 -0.0498,0.5617 -0.1006,0.83908c-8.76979,2.2866 -4.66336,10.6104 -4.66336,10.6104l0,1.1767l-1.40572,0l0,16.7915l-4.17352,0l0,2.427l1.73785,1.3873l0,14.2375l-1.73785,0l0,2.2197l1.73785,1.4575l0,9.7613l-1.73785,0l0,2.427l1.73785,1.5177l0,8.0464l-1.73785,3.1189l0,5.0645l80.9408,0l0,-5.128l-1.6774,-2.9117l0,-8.3907l1.6774,-1.3873l0,-2.5641l-1.6774,0l0,-9.4337l1.6774,-1.4541l0,-2.5674l-1.6774,0l0,-14.077l1.6774,-1.3171zm-2.4926,47.0181l-75.87497,0l0,-2.3601l1.67746,-2.564l0,-42.0272l2.56987,0l0,-16.7146l1.39229,0l0,-4.8405c-0.79847,-0.7622 -1.1239,-1.8286 -1.1239,-3.0087c0,-1.1082 0.44183,-2.1711 1.22829,-2.9547c0.78647,-0.7837 1.85316,-1.2239 2.96536,-1.2239c1.1122,0 2.1789,0.4402 2.9654,1.2239c0.7864,0.7836 1.2283,1.8465 1.2283,2.9547c0,1.1868 -0.2852,2.2532 -1.0837,3.0087l0,4.7837l1.4795,0l0,16.7814l9.7461,0l0,-14.6419l-0.6978,-1.3874l1.6003,0.2775l27.6311,0l1.7412,-0.5549l-0.6274,1.6714l0,14.632l9.7293,0l0,-16.7146l1.4628,0l0,-4.8472c-0.7985,-0.7622 -1.03,-1.8286 -1.03,-3.0087c0,-1.1082 0.4418,-2.1711 1.2283,-2.9547c0.7865,-0.7837 1.8531,-1.2239 2.9653,-1.2239c1.1123,0 2.1789,0.4402 2.9654,1.2239c0.7865,0.7836 1.2283,1.8465 1.2283,2.9547c0.0115,0.5581 -0.0911,1.1126 -0.3016,1.6299c-0.2106,0.5172 -0.5246,0.9864 -0.9229,1.3788l0,4.7135l1.5298,0l0,16.8516l2.5766,0l0,42.0172l1.7378,2.6342l0.0135,2.2899z"/>
  <path id="svg_2" fill="#2F80ED" d="m86.765,69.9105l0,-9.2031l6.4448,0l0,1.5879l-4.5694,0l0,2.086l4.0058,0l0,1.5979l-4.0058,0l0,3.9179l-1.8754,0.0134z"/>
  <path id="svg_3" fill="#2F80ED" d="m94.5115,69.9105l0,-9.2031l1.8989,0l0,9.2031l-1.8989,0z"/>
  <path id="svg_4" fill="#2F80ED" d="m97.9906,65.3039c0,-1.4842 0.4059,-2.6632 1.2178,-3.5368c0.8876,-0.8426 2.0666,-1.3126 3.2926,-1.3126c1.226,0 2.405,0.47 3.293,1.3126c0.814,0.8736 1.222,2.0515 1.225,3.5335c0.002,1.482 -0.406,2.6609 -1.225,3.5368c-0.887,0.8434 -2.066,1.3139 -3.293,1.3139c-1.226,0 -2.405,-0.4705 -3.2926,-1.3139c-0.8119,-0.8603 -1.2178,-2.0381 -1.2178,-3.5335zm1.9358,0c-0.0541,0.8401 0.1826,1.6731 0.6706,2.3601c0.228,0.2779 0.519,0.4987 0.848,0.6444c0.329,0.1457 0.688,0.2124 1.048,0.1947c0.362,0.0183 0.724,-0.0481 1.056,-0.1938c0.332,-0.1457 0.625,-0.3666 0.856,-0.6453c0.445,-0.7066 0.681,-1.5241 0.681,-2.3584c0,-0.8343 -0.236,-1.6518 -0.681,-2.3584c-0.242,-0.2648 -0.537,-0.4761 -0.866,-0.6201c-0.329,-0.144 -0.685,-0.2176 -1.045,-0.2161c-0.359,0.0016 -0.715,0.0783 -1.042,0.2252c-0.328,0.1469 -0.622,0.3608 -0.861,0.6277c-0.437,0.5516 -0.6714,1.3371 -0.6714,2.34l0.0068,0z"/>
  <path id="svg_5" fill="#2F80ED" d="m116.563,66.7481c-0.015,0.4773 -0.131,0.9461 -0.34,1.3758c-0.209,0.4297 -0.507,0.8106 -0.874,1.118c-0.82,0.6453 -1.845,0.9742 -2.889,0.926c-1.366,0 -2.429,-0.4257 -3.187,-1.277c-0.758,-0.8514 -1.137,-2.047 -1.137,-3.587c0,-1.56 0.387,-2.759 1.161,-3.597c0.774,-0.8379 1.885,-1.2547 3.334,-1.2502c1.177,0 2.108,0.2864 2.795,0.8591c0.347,0.3038 0.627,0.6767 0.82,1.0948c0.194,0.418 0.297,0.8718 0.304,1.3322l-1.869,0c-0.047,-0.4646 -0.276,-0.892 -0.637,-1.1901c-0.408,-0.2916 -0.904,-0.4355 -1.406,-0.4078c-0.359,-0.0236 -0.718,0.037 -1.049,0.1769c-0.331,0.1399 -0.624,0.3553 -0.856,0.6287c-0.437,0.5349 -0.655,1.3149 -0.655,2.3401c0,1.0028 0.218,1.775 0.651,2.3199c0.405,0.448 0.96,0.7335 1.561,0.803c0.601,0.0695 1.206,-0.0816 1.704,-0.4252c0.382,-0.3233 0.636,-0.773 0.714,-1.267l1.855,0.0268z"/>
  <path id="svg_6" fill="#2F80ED" d="m118.08,69.9105l0,-9.2031l4.479,0c1.006,0 1.752,0.2151 2.237,0.6452c0.484,0.4279 0.728,1.0831 0.728,1.9656c0.018,0.4932 -0.105,0.9813 -0.355,1.4074c-0.23,0.3702 -0.588,0.6437 -1.007,0.7689c0.356,0.1042 0.66,0.3351 0.856,0.6485c0.202,0.4246 0.302,0.8905 0.292,1.3606l0.04,1.0898l0,0.0534c0,0.5483 0.131,0.8826 0.356,1.0029l0,0.2808l-2.08,0c-0.076,-0.1507 -0.128,-0.3118 -0.155,-0.478c-0.039,-0.2209 -0.061,-0.4444 -0.067,-0.6686l-0.023,-0.9661c0.024,-0.4125 -0.095,-0.8207 -0.336,-1.1567c-0.297,-0.2339 -0.674,-0.342 -1.05,-0.3008l-2.013,0l0,3.5802l-1.902,-0.03zm1.899,-5.1782l2.234,0c0.379,0.0303 0.757,-0.0739 1.067,-0.2942c0.121,-0.1204 0.213,-0.2657 0.271,-0.4258c0.058,-0.16 0.08,-0.3308 0.064,-0.5002c0.012,-0.1665 -0.012,-0.3335 -0.07,-0.4902c-0.058,-0.1566 -0.148,-0.2994 -0.265,-0.4191c-0.283,-0.2282 -0.644,-0.3384 -1.007,-0.3075l-2.321,0l0.027,2.437z"/>
  <path id="svg_7" fill="#2F80ED" d="m127.192,60.684l1.915,0l0,5.7732c-0.047,0.5532 0.104,1.1054 0.427,1.5578c0.174,0.1743 0.384,0.3085 0.616,0.3934c0.232,0.0848 0.479,0.1183 0.726,0.098c0.25,0.022 0.502,-0.0102 0.739,-0.0944c0.237,-0.0843 0.453,-0.2185 0.633,-0.3936c0.325,-0.4529 0.477,-1.0065 0.429,-1.5612l0,-5.7732l1.899,0l0,5.9771c0,1.13 -0.316,1.9969 -0.949,2.6008c-0.635,0.6018 -1.547,0.906 -2.738,0.906c-1.191,0 -2.117,-0.3009 -2.754,-0.9026c-0.638,-0.6017 -0.957,-1.4709 -0.957,-2.6042l0.014,-5.9771z"/>
  <path id="svg_8" fill="#2F80ED" d="m135.73,69.9105l0,-1.598l5.032,-5.937l-4.945,0l0,-1.6714l7.23,0l0,1.5912l-5.032,5.9404l4.925,0l0,1.6714l-7.21,0.0034z"/>
  <path id="svg_9" fill="#2F80ED" d="m87.7212,11.8339l0,-10.3229l2.0632,0l2.4525,7.29759c0.2236,0.68196 0.3891,1.19119 0.4965,1.52771c0.1185,-0.3744 0.3019,-0.92598 0.5502,-1.65474l2.4793,-7.18059l1.8452,0l0,10.33293l-1.3218,0l0,-8.64141l-3.0195,8.64141l-1.2379,0l-2.996,-8.7885l0,8.7885l-1.3117,0z"/>
  <path id="svg_10" fill="#2F80ED" d="m99.6647,2.96851l0,-1.45751l1.2613,0l0,1.45751l-1.2613,0zm0,8.86539l0,-7.47808l1.2613,0l0,7.47808l-1.2613,0z"/>
  <path id="svg_11" fill="#2F80ED" d="m102.872,11.8339l0,-7.47808l1.147,0l0,1.06305c0.254,-0.39689 0.609,-0.71995 1.028,-0.93654c0.42,-0.21659 0.889,-0.31904 1.361,-0.297c0.427,-0.00511 0.851,0.07798 1.245,0.24404c0.337,0.12948 0.632,0.34928 0.852,0.63515c0.196,0.28207 0.331,0.60209 0.396,0.93936c0.058,0.40733 0.082,0.81888 0.07,1.2302l0,4.59982l-1.271,0l0,-4.54968c0.017,-0.3911 -0.033,-0.78224 -0.148,-1.15665c-0.101,-0.25818 -0.287,-0.47486 -0.527,-0.6151c-0.268,-0.15605 -0.575,-0.23475 -0.885,-0.22732c-0.517,-0.00988 -1.019,0.17384 -1.406,0.51481c-0.393,0.33429 -0.587,1.00288 -0.587,1.94893l0,4.08501l-1.275,0z"/>
  <path id="svg_12" fill="#2F80ED" d="m110.931,2.96851l0,-1.45751l1.271,0l0,1.45751l-1.271,0zm0,8.86539l0,-7.47808l1.271,0l0,7.47808l-1.271,0z"/>
  <path id="svg_13" fill="#2F80ED" d="m113.628,9.60086l1.258,-0.19723c0.042,0.44547 0.253,0.85807 0.59,1.15327c0.386,0.2884 0.861,0.4316 1.342,0.4045c0.462,0.0357 0.921,-0.0908 1.299,-0.3577c0.129,-0.0975 0.234,-0.2232 0.308,-0.3675c0.073,-0.1442 0.112,-0.30321 0.114,-0.46485c0.002,-0.134 -0.032,-0.26603 -0.097,-0.3832c-0.066,-0.11717 -0.16,-0.2155 -0.275,-0.28538c-0.415,-0.19469 -0.852,-0.33837 -1.302,-0.4279c-0.662,-0.14702 -1.311,-0.35058 -1.939,-0.60841c-0.336,-0.15315 -0.621,-0.40056 -0.818,-0.71204c-0.186,-0.30143 -0.283,-0.6491 -0.279,-1.00287c-0.004,-0.32293 0.075,-0.64153 0.228,-0.92599c0.15,-0.28437 0.363,-0.53037 0.624,-0.71873c0.249,-0.16709 0.523,-0.29244 0.812,-0.37106c0.357,-0.1025 0.726,-0.15317 1.097,-0.15044c0.528,-0.01114 1.054,0.07499 1.55,0.25407c0.386,0.12421 0.729,0.35625 0.987,0.66858c0.234,0.34759 0.385,0.74466 0.439,1.15999l-1.245,0.16715c-0.039,-0.35194 -0.215,-0.67465 -0.489,-0.89925c-0.334,-0.23953 -0.74,-0.35754 -1.151,-0.33429c-0.436,-0.03714 -0.873,0.06345 -1.248,0.28749c-0.112,0.07371 -0.204,0.17279 -0.269,0.28906c-0.065,0.11626 -0.102,0.24636 -0.107,0.37953c-0.002,0.16051 0.053,0.31659 0.154,0.44126c0.13,0.15379 0.299,0.26938 0.49,0.33429c0.128,0.0468 0.5,0.15712 1.124,0.3343c0.64,0.16628 1.269,0.37284 1.882,0.61844c0.337,0.13956 0.628,0.37135 0.839,0.66858c0.211,0.32245 0.316,0.70193 0.302,1.08645c-0.002,0.42542 -0.13,0.84072 -0.369,1.19342c-0.266,0.3863 -0.639,0.6871 -1.074,0.8658c-0.499,0.2099 -1.038,0.3135 -1.58,0.3042c-0.977,0 -1.721,-0.2017 -2.231,-0.605c-0.536,-0.4587 -0.88,-1.1 -0.966,-1.79854z"/>
  <path id="svg_14" fill="#2F80ED" d="m124.152,10.7007l0.181,1.1199c-0.315,0.0689 -0.636,0.1058 -0.959,0.1103c-0.371,0.0193 -0.74,-0.0555 -1.074,-0.2173c-0.237,-0.1281 -0.425,-0.33 -0.536,-0.575c-0.137,-0.4858 -0.19,-0.9909 -0.158,-1.49428l0,-4.30234l-0.933,0l0,-1.00287l0.933,0l0,-1.83526l1.265,-0.76219l0,2.61416l1.281,0l0,1.00288l-1.281,0l0,4.35582c-0.015,0.23385 0.008,0.46848 0.067,0.69528c0.046,0.1034 0.123,0.1899 0.221,0.2474c0.134,0.0677 0.283,0.0988 0.433,0.0903c0.188,-0.0042 0.375,-0.0199 0.56,-0.0468z"/>
  <path id="svg_15" fill="#2F80ED" d="m130.533,9.42369l1.315,0.1638c-0.171,0.70711 -0.577,1.33531 -1.154,1.78181c-0.626,0.4415 -1.381,0.6637 -2.147,0.6318c-0.481,0.0254 -0.963,-0.0507 -1.412,-0.2236c-0.45,-0.1728 -0.858,-0.4384 -1.198,-0.7793c-0.644,-0.6686 -0.966,-1.61351 -0.966,-2.83479c0,-1.25694 0.325,-2.23307 0.976,-2.9284c0.322,-0.34438 0.715,-0.61574 1.151,-0.7957c0.437,-0.17996 0.907,-0.26429 1.379,-0.24729c0.459,-0.01509 0.917,0.06844 1.341,0.24493c0.424,0.1765 0.806,0.44182 1.118,0.778c0.634,0.66859 0.953,1.63803 0.953,2.87157c0,0.07354 0,0.1872 0,0.33429l-5.603,0c-0.003,0.69275 0.245,1.36336 0.698,1.88879c0.2,0.2152 0.443,0.3861 0.713,0.5013c0.271,0.1152 0.563,0.1722 0.857,0.1672c0.428,0.0117 0.848,-0.1175 1.194,-0.3677c0.374,-0.3097 0.647,-0.72262 0.785,-1.18671zm-4.177,-2.04921l4.191,0c-0.015,-0.50848 -0.182,-1.00092 -0.48,-1.41406c-0.188,-0.23497 -0.429,-0.42333 -0.702,-0.55033c-0.274,-0.12701 -0.573,-0.18922 -0.875,-0.18177c-0.271,-0.00866 -0.542,0.03752 -0.795,0.13576c-0.253,0.09824 -0.484,0.24651 -0.678,0.43588c-0.415,0.42037 -0.652,0.98443 -0.661,1.57452zm1.369,-3.94799l0.943,-1.97232l1.677,0l-1.573,1.97232l-1.047,0z"/>
  <path id="svg_16" fill="#2F80ED" d="m133.429,11.8339l0,-7.47808l1.147,0l0,1.13325c0.19,-0.40403 0.466,-0.76216 0.809,-1.04967c0.238,-0.1669 0.523,-0.25569 0.815,-0.25407c0.466,0.0116 0.919,0.15288 1.308,0.40784l-0.439,1.17671c-0.28,-0.17436 -0.603,-0.26914 -0.933,-0.27412c-0.271,-0.00254 -0.534,0.08578 -0.748,0.25072c-0.227,0.17522 -0.393,0.41741 -0.473,0.69198c-0.147,0.47996 -0.219,0.97929 -0.215,1.48091l0,3.91453l-1.271,0z"/>
  <path id="svg_17" fill="#2F80ED" d="m138.27,2.96851l0,-1.45751l1.271,0l0,1.45751l-1.271,0zm0,8.86539l0,-7.47808l1.271,0l0,7.47808l-1.271,0z"/>
  <path id="svg_18" fill="#2F80ED" d="m141.004,8.09321c0,-1.38397 0.387,-2.40913 1.161,-3.07549c0.653,-0.5564 1.489,-0.85283 2.348,-0.83239c0.469,-0.01827 0.936,0.06154 1.372,0.23428c0.435,0.17273 0.83,0.43456 1.158,0.7686c0.671,0.66858 0.983,1.6046 0.983,2.79468c0.037,0.78002 -0.111,1.55775 -0.433,2.26981c-0.283,0.5442 -0.724,0.9913 -1.265,1.2837c-0.546,0.3048 -1.162,0.4647 -1.788,0.4647c-0.471,0.0206 -0.942,-0.058 -1.38,-0.2308c-0.439,-0.1728 -0.836,-0.4359 -1.166,-0.7721c-0.658,-0.673 -0.988,-1.64137 -0.99,-2.90499zm1.308,0c0,0.95941 0.212,1.67146 0.631,2.15279c0.196,0.2253 0.439,0.4059 0.711,0.5297c0.272,0.1238 0.568,0.1879 0.868,0.1879c0.299,0 0.595,-0.0641 0.867,-0.1879c0.272,-0.1238 0.515,-0.3044 0.711,-0.5297c0.421,-0.48133 0.631,-1.21121 0.631,-2.18957c0,-0.9271 -0.211,-1.628 -0.634,-2.10269c-0.197,-0.2242 -0.439,-0.4039 -0.711,-0.52703c-0.272,-0.12312 -0.567,-0.18683 -0.866,-0.18683c-0.299,0 -0.594,0.06371 -0.866,0.18683c-0.272,0.12313 -0.514,0.30283 -0.711,0.52703c-0.418,0.47023 -0.628,1.18339 -0.631,2.13947z"/>
  <path id="svg_19" fill="#2F80ED" d="m158.419,11.8339l0,-0.946c-0.218,0.3551 -0.529,0.6454 -0.898,0.8411c-0.369,0.1957 -0.784,0.2897 -1.202,0.2721c-0.587,0.0029 -1.161,-0.1681 -1.65,-0.4914c-0.509,-0.3369 -0.912,-0.8095 -1.165,-1.3639c-0.288,-0.63839 -0.43,-1.33267 -0.416,-2.03254c-0.008,-0.69427 0.12,-1.38348 0.376,-2.02915c0.22,-0.57902 0.62,-1.07312 1.141,-1.41071c0.499,-0.32388 1.082,-0.49369 1.677,-0.48807c0.42,-0.00667 0.835,0.09098 1.208,0.28415c0.342,0.17869 0.637,0.43387 0.862,0.74547l0,-3.70395l1.265,0l0,10.3229l-1.198,0zm-4.025,-3.73401c0,0.96053 0.202,1.67703 0.607,2.14951c0.169,0.2194 0.387,0.3976 0.635,0.5209c0.249,0.1234 0.523,0.1887 0.801,0.1911c0.271,0.0022 0.539,-0.0568 0.784,-0.1726c0.246,-0.1157 0.461,-0.2853 0.631,-0.496c0.39,-0.44567 0.584,-1.13655 0.584,-2.07256c0,-1.02294 -0.198,-1.77398 -0.594,-2.25313c-0.171,-0.22443 -0.392,-0.40616 -0.646,-0.53087c-0.254,-0.12472 -0.533,-0.18903 -0.816,-0.18786c-0.274,-0.0026 -0.544,0.05827 -0.79,0.1778c-0.246,0.11953 -0.46,0.29443 -0.626,0.51084c-0.376,0.45241 -0.565,1.17337 -0.567,2.16287l-0.003,0z"/>
  <path id="svg_20" fill="#2F80ED" d="m166.495,10.9113c-0.403,0.355 -0.862,0.6409 -1.359,0.8457c-0.449,0.1653 -0.924,0.248 -1.402,0.2441c-0.688,0.0457 -1.367,-0.1692 -1.903,-0.6017c-0.217,-0.1919 -0.39,-0.4291 -0.506,-0.6947c-0.116,-0.2657 -0.172,-0.5535 -0.165,-0.84309c0.001,-0.33957 0.085,-0.67388 0.244,-0.97391c0.16,-0.30002 0.391,-0.55668 0.672,-0.74769c0.28,-0.19176 0.589,-0.33529 0.916,-0.42455c0.373,-0.08795 0.75,-0.1516 1.131,-0.19055c0.77,-0.07073 1.53,-0.21743 2.271,-0.43792c0,-0.17383 0,-0.28415 0,-0.33429c0.021,-0.19689 0,-0.39596 -0.063,-0.58389c-0.062,-0.18794 -0.164,-0.36042 -0.299,-0.50591c-0.414,-0.31583 -0.93,-0.46928 -1.45,-0.43123c-0.469,-0.03858 -0.939,0.07139 -1.342,0.31423c-0.331,0.28712 -0.554,0.67888 -0.63,1.10985l-1.245,-0.17049c0.084,-0.46562 0.276,-0.90525 0.56,-1.28368c0.302,-0.34922 0.698,-0.60548 1.141,-0.73878c0.549,-0.18395 1.125,-0.27326 1.704,-0.26409c0.531,-0.01637 1.06,0.06058 1.564,0.22731c0.338,0.10931 0.642,0.30394 0.882,0.56496c0.199,0.25182 0.335,0.54758 0.396,0.86247c0.054,0.38756 0.075,0.77893 0.064,1.17002l0,1.68818c-0.02,0.74641 0.007,1.49335 0.08,2.23645c0.059,0.3168 0.173,0.621 0.336,0.8992l-1.342,0c-0.141,-0.2942 -0.227,-0.6113 -0.255,-0.936zm-0.104,-2.83147c-0.673,0.23781 -1.371,0.3982 -2.08,0.47804c-0.378,0.04116 -0.75,0.12643 -1.107,0.25406c-0.206,0.08337 -0.381,0.2267 -0.504,0.41118c-0.146,0.22586 -0.205,0.49653 -0.167,0.76239c0.039,0.2659 0.172,0.5091 0.375,0.6851c0.322,0.2453 0.723,0.3642 1.128,0.3343c0.457,0.0041 0.909,-0.1111 1.308,-0.3343c0.366,-0.1962 0.659,-0.5029 0.839,-0.87585c0.159,-0.40269 0.23,-0.83469 0.208,-1.26696l0,-0.44796z"/>
  <path id="svg_21" fill="#2F80ED" d="m173.366,8.51776l1.291,-0.11366c0.04,0.45101 0.186,0.88631 0.426,1.27031c0.264,0.36119 0.626,0.63959 1.044,0.80229c0.503,0.2107 1.044,0.3155 1.59,0.3076c0.472,0.0094 0.943,-0.07 1.386,-0.234c0.353,-0.1199 0.663,-0.3408 0.892,-0.6352c0.192,-0.25541 0.296,-0.56644 0.295,-0.88588c0.006,-0.30573 -0.093,-0.60424 -0.282,-0.84575c-0.251,-0.28404 -0.574,-0.49537 -0.936,-0.61176c-0.605,-0.19871 -1.219,-0.36608 -1.842,-0.50144c-0.693,-0.13888 -1.368,-0.35532 -2.012,-0.64518c-0.449,-0.21571 -0.831,-0.54696 -1.108,-0.95942c-0.243,-0.38528 -0.37,-0.83198 -0.365,-1.28702c0.001,-0.52011 0.156,-1.02831 0.446,-1.46086c0.318,-0.46877 0.772,-0.82927 1.302,-1.03296c0.604,-0.23451 1.25,-0.3481 1.899,-0.33429c0.696,-0.01978 1.39,0.10074 2.039,0.35435c0.548,0.21823 1.016,0.59713 1.342,1.08645c0.318,0.48522 0.495,1.04878 0.51,1.628l-1.315,0.09694c-0.014,-0.28163 -0.085,-0.55754 -0.208,-0.81136c-0.124,-0.25381 -0.297,-0.48036 -0.51,-0.66621c-0.525,-0.37039 -1.163,-0.54763 -1.805,-0.50143c-0.828,0 -1.432,0.15377 -1.811,0.45463c-0.175,0.12536 -0.318,0.28994 -0.417,0.48042c-0.099,0.19048 -0.152,0.40152 -0.154,0.61606c-0.004,0.17277 0.029,0.3444 0.099,0.50271c0.07,0.15831 0.173,0.2994 0.304,0.41325c0.265,0.23735 0.953,0.48472 2.07,0.73544c0.782,0.15387 1.549,0.37763 2.291,0.66858c0.538,0.21791 1.003,0.58296 1.342,1.05302c0.291,0.43364 0.443,0.9458 0.433,1.46755c0.002,0.55113 -0.159,1.09066 -0.463,1.55116c-0.339,0.4984 -0.816,0.8884 -1.372,1.1232c-0.628,0.2781 -1.309,0.4161 -1.996,0.4045c-0.803,0.0242 -1.602,-0.1145 -2.349,-0.4079c-0.609,-0.2517 -1.129,-0.6789 -1.493,-1.2268c-0.36,-0.55287 -0.555,-1.19622 -0.563,-1.85534z"/>
  <path id="svg_22" fill="#2F80ED" d="m188.218,10.9113c-0.403,0.355 -0.862,0.6409 -1.359,0.8457c-0.449,0.1653 -0.924,0.248 -1.402,0.2441c-0.688,0.0457 -1.367,-0.1692 -1.902,-0.6017c-0.218,-0.1919 -0.391,-0.4291 -0.507,-0.6947c-0.116,-0.2657 -0.172,-0.5535 -0.164,-0.84309c-0.001,-0.33897 0.082,-0.6729 0.24,-0.97288c0.159,-0.29997 0.388,-0.55696 0.669,-0.74872c0.279,-0.1879 0.587,-0.328 0.912,-0.41453c0.373,-0.08794 0.75,-0.1516 1.131,-0.19054c0.77,-0.07073 1.53,-0.21743 2.271,-0.43792c0,-0.17383 0,-0.28415 0,-0.3343c0.021,-0.19688 0,-0.39595 -0.063,-0.58389c-0.062,-0.18794 -0.164,-0.36042 -0.299,-0.5059c-0.414,-0.31583 -0.93,-0.46928 -1.45,-0.43123c-0.469,-0.03858 -0.938,0.07138 -1.341,0.31423c-0.332,0.28712 -0.555,0.67888 -0.631,1.10985l-1.201,-0.17717c0.083,-0.46562 0.275,-0.90526 0.56,-1.28369c0.295,-0.34678 0.682,-0.60393 1.117,-0.74212c0.549,-0.18395 1.125,-0.27326 1.704,-0.26409c0.531,-0.01637 1.06,0.06058 1.564,0.22731c0.338,0.10931 0.642,0.30394 0.882,0.56496c0.199,0.25182 0.335,0.54758 0.396,0.86247c0.054,0.38756 0.075,0.77893 0.064,1.17002l0,1.68818c-0.02,0.74641 0.007,1.49335 0.08,2.23645c0.059,0.3168 0.173,0.621 0.336,0.8992l-1.342,0c-0.144,-0.2935 -0.234,-0.6106 -0.265,-0.936zm-0.104,-2.83147c-0.673,0.23781 -1.371,0.3982 -2.08,0.47804c-0.378,0.04116 -0.75,0.12643 -1.107,0.25406c-0.206,0.08337 -0.381,0.2267 -0.504,0.41118c-0.145,0.22586 -0.205,0.49653 -0.166,0.76239c0.038,0.2659 0.171,0.5091 0.374,0.6851c0.322,0.2453 0.724,0.3642 1.128,0.3343c0.458,0.0041 0.909,-0.1111 1.308,-0.3343c0.366,-0.1962 0.659,-0.5029 0.839,-0.87585c0.159,-0.40269 0.23,-0.83469 0.208,-1.26696l0,-0.44796z"/>
  <path id="svg_23" fill="#2F80ED" d="m196.29,11.8339l0,-1.0998c-0.254,0.3974 -0.607,0.7228 -1.024,0.9447c-0.418,0.2219 -0.885,0.3329 -1.358,0.3223c-0.427,0.0037 -0.85,-0.0829 -1.242,-0.2541c-0.336,-0.1333 -0.631,-0.3523 -0.855,-0.6351c-0.196,-0.2822 -0.329,-0.6023 -0.393,-0.9394c-0.061,-0.39137 -0.087,-0.78742 -0.077,-1.18339l0,-4.63329l1.272,0l0,4.14522c-0.014,0.44712 0.012,0.89458 0.077,1.33717c0.065,0.31379 0.241,0.59369 0.496,0.78889c0.282,0.1955 0.62,0.2951 0.963,0.2842c0.378,0.001 0.75,-0.1007 1.074,-0.2942c0.326,-0.1779 0.581,-0.4624 0.721,-0.80563c0.163,-0.46931 0.234,-0.96498 0.212,-1.46086l0,-4.0115l1.271,0l0,7.49479l-1.137,0zm-2.684,-8.40741l0.943,-1.97232l1.677,0l-1.557,1.97232l-1.063,0z"/>
  <path id="svg_24" fill="#2F80ED" d="m204.288,11.8339l0,-0.946c-0.219,0.3551 -0.529,0.6454 -0.898,0.8411c-0.369,0.1957 -0.784,0.2897 -1.202,0.2721c-0.586,0.0035 -1.16,-0.1677 -1.648,-0.4914c-0.51,-0.3359 -0.915,-0.8087 -1.167,-1.3639c-0.286,-0.63916 -0.426,-1.33307 -0.413,-2.03254c-0.009,-0.69405 0.118,-1.38325 0.373,-2.02915c0.219,-0.57106 0.612,-1.05959 1.124,-1.39734c0.498,-0.32388 1.082,-0.49368 1.677,-0.48806c0.403,-0.00787 0.802,0.0817 1.162,0.26102c0.361,0.17932 0.672,0.44305 0.908,0.76859l0,-3.71732l1.265,0l0,10.3229l-1.181,0zm-4.026,-3.73401c0,0.96053 0.204,1.67703 0.611,2.14951c0.168,0.2193 0.385,0.3975 0.633,0.5209c0.249,0.1234 0.522,0.1887 0.799,0.1911c0.272,0.0025 0.541,-0.0564 0.787,-0.1722c0.245,-0.1157 0.462,-0.2854 0.632,-0.4964c0.387,-0.44567 0.581,-1.13655 0.581,-2.07256c0,-1.02294 -0.198,-1.77398 -0.594,-2.25313c-0.17,-0.22734 -0.392,-0.41191 -0.646,-0.53901c-0.255,-0.1271 -0.536,-0.19322 -0.82,-0.19309c-0.274,-0.00208 -0.544,0.05902 -0.789,0.17851c-0.246,0.11948 -0.46,0.2941 -0.627,0.51013c-0.373,0.46132 -0.561,1.18674 -0.564,2.17624l-0.003,0z"/>
  <path id="svg_25" fill="#2F80ED" d="m212.605,9.42369l1.315,0.1638c-0.17,0.70671 -0.576,1.33501 -1.151,1.78181c-0.623,0.4387 -1.374,0.6607 -2.137,0.6318c-0.481,0.0252 -0.963,-0.051 -1.412,-0.2239c-0.45,-0.1728 -0.858,-0.4382 -1.198,-0.779c-0.644,-0.6686 -0.963,-1.61797 -0.963,-2.83479c0,-1.21682 0.336,-2.23307 0.973,-2.9284c0.322,-0.34403 0.715,-0.61516 1.151,-0.79509c0.437,-0.17992 0.907,-0.26446 1.379,-0.2479c0.459,-0.01531 0.917,0.06812 1.341,0.24463c0.424,0.1765 0.806,0.44195 1.118,0.7783c0.637,0.66859 0.956,1.63803 0.956,2.87157c0,0.07354 0,0.1872 0,0.33429l-5.62,0c-0.002,0.69318 0.247,1.36384 0.702,1.88879c0.199,0.2148 0.442,0.3854 0.712,0.5006c0.269,0.1152 0.561,0.1724 0.854,0.1679c0.428,0.0122 0.848,-0.1171 1.195,-0.3677c0.375,-0.3078 0.649,-0.72141 0.785,-1.18671zm-4.177,-2.04921l4.19,0c-0.012,-0.50903 -0.179,-1.00237 -0.48,-1.41406c-0.188,-0.23536 -0.428,-0.424 -0.701,-0.55104c-0.274,-0.12705 -0.574,-0.18903 -0.875,-0.18106c-0.272,-0.00866 -0.542,0.03752 -0.795,0.13576c-0.254,0.09824 -0.484,0.24651 -0.678,0.43588c-0.413,0.4221 -0.65,0.98507 -0.661,1.57452z"/>
  <path id="svg_26" fill="#2F80ED" d="m87.6205,104.837l0,-8.4707l5.7369,0l0,1.0029l-4.6096,0l0,2.6242l3.989,0l0,1.0026l-3.989,0l0,3.848l-1.1273,-0.007z"/>
  <path id="svg_27" fill="#2F80ED" d="m94.6893,97.5631l0,-1.1968l1.0434,0l0,1.1968l-1.0434,0zm0,7.2739l0,-6.134l1.0434,0l0,6.134l-1.0434,0z"/>
  <path id="svg_28" fill="#2F80ED" d="m96.9338,101.768c0,-1.136 0.3187,-1.9752 0.9528,-2.5234c0.5402,-0.4536 1.2297,-0.6917 1.9357,-0.6686c0.3847,-0.0135 0.7677,0.053 1.1257,0.1952c0.357,0.1421 0.681,0.3568 0.951,0.6305c0.279,0.3099 0.494,0.6713 0.632,1.0643c0.139,0.393 0.197,0.81 0.173,1.226c0.03,0.641 -0.092,1.279 -0.355,1.865c-0.234,0.447 -0.596,0.814 -1.04,1.053c-0.455,0.25 -0.967,0.379 -1.4867,0.374c-0.387,0.017 -0.7731,-0.049 -1.1332,-0.191c-0.3601,-0.142 -0.6861,-0.358 -0.9569,-0.634c-0.5334,-0.559 -0.7984,-1.354 -0.7984,-2.391zm1.0735,0c-0.0485,0.632 0.1351,1.259 0.5167,1.766c0.1606,0.185 0.3594,0.334 0.5829,0.435c0.2235,0.102 0.4663,0.155 0.7121,0.155c0.246,0 0.489,-0.053 0.712,-0.155c0.224,-0.101 0.422,-0.25 0.583,-0.435c0.344,-0.39 0.517,-0.989 0.517,-1.796c0.044,-0.619 -0.141,-1.232 -0.52,-1.725c-0.162,-0.1829 -0.361,-0.3297 -0.584,-0.4304c-0.223,-0.1006 -0.465,-0.1526 -0.7097,-0.1526c-0.2448,0 -0.4868,0.052 -0.7098,0.1526c-0.2231,0.1007 -0.422,0.2475 -0.5835,0.4304c-0.3806,0.503 -0.5643,1.127 -0.5167,1.755z"/>
  <path id="svg_29" fill="#2F80ED" d="m107.945,102.591l1.026,0.13c-0.073,0.643 -0.38,1.238 -0.862,1.672c-0.473,0.402 -1.079,0.614 -1.701,0.595c-0.378,0.015 -0.755,-0.05 -1.106,-0.192c-0.351,-0.142 -0.667,-0.357 -0.927,-0.631c-0.51,-0.548 -0.768,-1.337 -0.768,-2.36c-0.012,-0.596 0.102,-1.188 0.335,-1.738c0.201,-0.4742 0.555,-0.8674 1.007,-1.1166c0.448,-0.25 0.955,-0.3791 1.469,-0.3744c0.589,-0.0255 1.169,0.1528 1.641,0.5048c0.44,0.3628 0.732,0.8744 0.818,1.4372l-1.006,0.154c-0.065,-0.357 -0.246,-0.6833 -0.513,-0.9293c-0.249,-0.2073 -0.565,-0.3178 -0.89,-0.3109c-0.242,-0.0078 -0.483,0.0386 -0.704,0.1358c-0.222,0.0971 -0.419,0.2427 -0.577,0.4258c-0.336,0.3776 -0.493,0.9696 -0.493,1.7856c0,0.815 0.157,1.42 0.476,1.795c0.15,0.182 0.34,0.327 0.555,0.424c0.215,0.097 0.45,0.144 0.686,0.137c0.379,0.011 0.747,-0.124 1.027,-0.377c0.3,-0.319 0.479,-0.731 0.507,-1.167z"/>
  <path id="svg_30" fill="#2F80ED" d="m109.854,104.837l0,-6.134l0.939,0l0,0.9294c0.158,-0.3327 0.387,-0.627 0.671,-0.8625c0.197,-0.1363 0.431,-0.2087 0.671,-0.2073c0.382,0.0075 0.755,0.1235 1.073,0.3343l-0.358,0.9661c-0.23,-0.1427 -0.495,-0.2201 -0.765,-0.224c-0.222,-0.0027 -0.439,0.0691 -0.614,0.204c-0.188,0.1425 -0.325,0.342 -0.39,0.568c-0.12,0.393 -0.179,0.803 -0.174,1.214l0,3.212l-1.053,0z"/>
  <path id="svg_31" fill="#2F80ED" d="m117.855,104.837l0,-0.902c-0.208,0.326 -0.498,0.594 -0.841,0.776c-0.342,0.182 -0.727,0.273 -1.115,0.263c-0.346,0.003 -0.689,-0.068 -1.006,-0.207c-0.277,-0.107 -0.519,-0.288 -0.702,-0.521c-0.167,-0.23 -0.282,-0.494 -0.335,-0.773c-0.052,-0.32 -0.073,-0.645 -0.064,-0.969l0,-3.801l1.044,0l0,3.4c-0.013,0.368 0.008,0.736 0.063,1.1c0.057,0.258 0.206,0.488 0.42,0.645c0.23,0.161 0.507,0.243 0.788,0.234c0.31,0 0.613,-0.083 0.879,-0.241c0.262,-0.146 0.468,-0.376 0.584,-0.652c0.131,-0.386 0.189,-0.793 0.171,-1.2l0,-3.286l1.043,0l0,6.134l-0.929,0z"/>
  <path id="svg_32" fill="#2F80ED" d="m119.871,104.837l0,-0.842l3.922,-4.4863c-0.446,0.0234 -0.838,0.0367 -1.177,0.0367l-2.513,0l0,-0.8424l5.032,0l0,0.6686l-3.335,3.8944l-0.644,0.712c0.467,-0.037 0.906,-0.053 1.315,-0.053l2.849,0l0,0.896l-5.449,0.016z"/>
  <path id="svg_33" fill="#2F80ED" d="m129.758,104.837l0,-8.4707l1.698,0l2.013,5.9977c0.188,0.558 0.335,0.976 0.406,1.253c0.097,-0.307 0.248,-0.759 0.453,-1.357l2.036,-5.8937l1.513,0l0,8.4707l-1.083,0l0,-7.0901l-2.47,7.0901l-1.006,0l-2.459,-7.2104l0,7.2104l-1.101,0z"/>
  <path id="svg_34" fill="#2F80ED" d="m143.571,104.082c-0.33,0.293 -0.708,0.527 -1.118,0.692c-0.368,0.135 -0.758,0.203 -1.15,0.2c-0.564,0.038 -1.121,-0.138 -1.56,-0.491c-0.177,-0.159 -0.318,-0.354 -0.412,-0.572c-0.094,-0.219 -0.139,-0.454 -0.132,-0.692c-0.002,-0.279 0.065,-0.555 0.194,-0.803c0.13,-0.247 0.319,-0.46 0.551,-0.617c0.23,-0.152 0.484,-0.265 0.751,-0.335c0.305,-0.071 0.615,-0.124 0.926,-0.157c0.631,-0.057 1.255,-0.176 1.862,-0.358c0,-0.143 0,-0.234 0,-0.27c0.017,-0.162 -0.001,-0.326 -0.052,-0.48c-0.052,-0.155 -0.136,-0.2965 -0.246,-0.4162c-0.34,-0.2578 -0.762,-0.3827 -1.188,-0.351c-0.38,-0.0286 -0.759,0.0602 -1.087,0.254c-0.272,0.2366 -0.456,0.5582 -0.52,0.9122l-1.006,-0.14c0.068,-0.383 0.226,-0.7445 0.459,-1.0563c0.243,-0.2884 0.563,-0.5027 0.923,-0.6185c0.449,-0.1522 0.921,-0.2257 1.395,-0.2172c0.435,-0.0145 0.869,0.0478 1.282,0.1838c0.277,0.0909 0.527,0.2508 0.725,0.4647c0.166,0.2064 0.281,0.4493 0.335,0.7087c0.042,0.3178 0.059,0.6388 0.051,0.9598l0,1.387c-0.016,0.612 0.006,1.225 0.067,1.835c0.047,0.258 0.137,0.507 0.265,0.736l-1.091,0c-0.12,-0.238 -0.196,-0.495 -0.224,-0.759zm-0.088,-2.324c-0.551,0.195 -1.123,0.327 -1.704,0.392c-0.311,0.034 -0.618,0.105 -0.913,0.21c-0.167,0.068 -0.31,0.184 -0.409,0.334c-0.096,0.146 -0.146,0.317 -0.144,0.492c-0.003,0.132 0.024,0.263 0.079,0.383c0.054,0.12 0.135,0.227 0.236,0.312c0.263,0.203 0.591,0.302 0.923,0.278c0.375,0.007 0.745,-0.084 1.073,-0.264c0.301,-0.162 0.542,-0.413 0.692,-0.719c0.128,-0.331 0.185,-0.685 0.167,-1.04l0,-0.378z"/>
  <path id="svg_35" fill="#2F80ED" d="m148.435,103.908l0.151,0.919c-0.259,0.056 -0.523,0.087 -0.788,0.091c-0.305,0.015 -0.608,-0.046 -0.883,-0.178c-0.194,-0.104 -0.349,-0.27 -0.439,-0.471c-0.112,-0.4 -0.155,-0.816 -0.128,-1.23l0,-3.5303l-0.765,0l0,-0.8057l0.765,0l0,-1.521l1.037,-0.6251l0,2.1461l1.05,0l0,0.8057l-1.05,0l0,3.5903c-0.011,0.192 0.007,0.385 0.054,0.572c0.037,0.084 0.101,0.154 0.181,0.2c0.109,0.057 0.232,0.084 0.356,0.077c0.153,-0.003 0.307,-0.016 0.459,-0.04z"/>
  <path id="svg_36" fill="#2F80ED" d="m149.066,101.768c0,-1.136 0.319,-1.9752 0.953,-2.5234c0.54,-0.453 1.23,-0.6911 1.935,-0.6686c0.385,-0.0132 0.769,0.0537 1.127,0.1964c0.357,0.1428 0.681,0.3582 0.95,0.6326c0.279,0.3099 0.494,0.672 0.632,1.065c0.139,0.393 0.197,0.809 0.173,1.225c0.03,0.641 -0.092,1.28 -0.355,1.865c-0.233,0.447 -0.596,0.814 -1.04,1.053c-0.455,0.25 -0.967,0.379 -1.487,0.375c-0.387,0.016 -0.773,-0.049 -1.133,-0.192c-0.36,-0.142 -0.686,-0.358 -0.957,-0.634c-0.53,-0.562 -0.798,-1.357 -0.798,-2.394zm1.073,0c-0.048,0.632 0.136,1.259 0.517,1.766c0.161,0.185 0.36,0.334 0.583,0.435c0.223,0.102 0.466,0.155 0.712,0.155c0.246,0 0.489,-0.053 0.712,-0.155c0.224,-0.101 0.423,-0.25 0.583,-0.435c0.347,-0.39 0.519,-0.989 0.517,-1.796c0.045,-0.618 -0.139,-1.232 -0.517,-1.725c-0.162,-0.183 -0.361,-0.3299 -0.584,-0.4305c-0.224,-0.1006 -0.466,-0.1527 -0.711,-0.1527c-0.245,0 -0.487,0.0521 -0.711,0.1527c-0.223,0.1006 -0.422,0.2475 -0.584,0.4305c-0.38,0.503 -0.564,1.127 -0.517,1.755z"/>
  <path id="svg_37" fill="#2F80ED" d="m163.469,101.514l0,-1.002l3.603,0l0,3.142c-0.514,0.422 -1.091,0.761 -1.711,1.003c-0.578,0.22 -1.19,0.333 -1.809,0.334c-0.791,0.011 -1.574,-0.173 -2.278,-0.535c-0.666,-0.338 -1.206,-0.879 -1.543,-1.544c-0.355,-0.7 -0.534,-1.476 -0.523,-2.26c-0.005,-0.7983 0.173,-1.5872 0.52,-2.3067c0.31,-0.6786 0.834,-1.2375 1.493,-1.5912c0.692,-0.3583 1.464,-0.5377 2.244,-0.5215c0.573,-0.0085 1.143,0.0925 1.678,0.2975c0.456,0.1687 0.858,0.4548 1.167,0.8291c0.31,0.4123 0.53,0.885 0.644,1.3873l-1.006,0.2774c-0.096,-0.3603 -0.258,-0.7002 -0.477,-1.0028c-0.212,-0.2649 -0.491,-0.469 -0.808,-0.5917c-0.372,-0.1536 -0.772,-0.2298 -1.174,-0.224c-0.459,-0.0123 -0.915,0.0673 -1.342,0.234c-0.345,0.1358 -0.656,0.3458 -0.909,0.6151c-0.224,0.2479 -0.405,0.5315 -0.534,0.8391c-0.224,0.5392 -0.338,1.1174 -0.335,1.7014c-0.022,0.654 0.112,1.303 0.389,1.896c0.245,0.492 0.646,0.89 1.14,1.133c0.494,0.246 1.039,0.373 1.591,0.371c0.489,-0.001 0.973,-0.096 1.426,-0.281c0.381,-0.14 0.737,-0.342 1.053,-0.598l0,-1.578l-2.499,-0.024z"/>
  <path id="svg_38" fill="#2F80ED" d="m168.585,104.837l0,-6.134l0.939,0l0,0.9294c0.158,-0.3327 0.387,-0.627 0.671,-0.8625c0.197,-0.1363 0.431,-0.2087 0.671,-0.2073c0.383,0.0075 0.755,0.1235 1.074,0.3343l-0.359,0.9661c-0.23,-0.1427 -0.494,-0.2201 -0.765,-0.224c-0.222,-0.0027 -0.438,0.0691 -0.614,0.204c-0.188,0.1425 -0.325,0.342 -0.389,0.568c-0.12,0.393 -0.179,0.803 -0.175,1.214l0,3.212l-1.053,0z"/>
  <path id="svg_39" fill="#2F80ED" d="m172.161,101.768c0,-1.136 0.319,-1.9752 0.953,-2.5234c0.54,-0.4536 1.23,-0.6917 1.936,-0.6686c0.385,-0.013 0.768,0.054 1.126,0.1967c0.357,0.1427 0.681,0.3581 0.95,0.6323c0.28,0.3099 0.495,0.672 0.633,1.065c0.138,0.393 0.197,0.809 0.173,1.225c0.03,0.641 -0.093,1.281 -0.359,1.865c-0.232,0.447 -0.593,0.814 -1.037,1.053c-0.455,0.25 -0.967,0.379 -1.486,0.375c-0.387,0.016 -0.773,-0.049 -1.133,-0.192c-0.361,-0.142 -0.687,-0.358 -0.957,-0.634c-0.534,-0.562 -0.799,-1.357 -0.799,-2.394zm1.074,0c-0.049,0.632 0.135,1.259 0.516,1.766c0.161,0.185 0.36,0.334 0.583,0.435c0.224,0.102 0.467,0.155 0.712,0.155c0.246,0 0.489,-0.053 0.713,-0.155c0.223,-0.101 0.422,-0.25 0.582,-0.435c0.347,-0.39 0.519,-0.989 0.517,-1.796c0.044,-0.619 -0.141,-1.232 -0.52,-1.725c-0.161,-0.1829 -0.36,-0.3297 -0.583,-0.4304c-0.223,-0.1006 -0.465,-0.1526 -0.71,-0.1526c-0.245,0 -0.487,0.052 -0.71,0.1526c-0.223,0.1007 -0.422,0.2475 -0.584,0.4304c-0.38,0.503 -0.564,1.127 -0.516,1.755z"/>
  <path id="svg_40" fill="#2F80ED" d="m178.737,103.005l1.033,-0.16c0.033,0.365 0.206,0.704 0.483,0.946c0.319,0.239 0.712,0.358 1.111,0.334c0.379,0.031 0.757,-0.074 1.067,-0.294c0.102,-0.08 0.185,-0.181 0.243,-0.297c0.058,-0.115 0.089,-0.242 0.092,-0.372c0.003,-0.111 -0.025,-0.221 -0.079,-0.319c-0.054,-0.097 -0.133,-0.179 -0.23,-0.235c-0.339,-0.162 -0.697,-0.281 -1.066,-0.355c-0.544,-0.119 -1.076,-0.286 -1.591,-0.498c-0.277,-0.124 -0.51,-0.328 -0.671,-0.585c-0.151,-0.247 -0.23,-0.532 -0.228,-0.822c-0.002,-0.265 0.063,-0.5258 0.188,-0.7591c0.122,-0.2319 0.298,-0.4313 0.513,-0.5817c0.205,-0.1397 0.432,-0.2427 0.671,-0.3042c0.294,-0.085 0.598,-0.1267 0.903,-0.1237c0.433,-0.0077 0.864,0.0625 1.271,0.2073c0.319,0.1066 0.6,0.3028 0.809,0.5649c0.193,0.2837 0.316,0.6091 0.359,0.9495l-1.007,0.14c-0.032,-0.29 -0.176,-0.5562 -0.402,-0.7418c-0.275,-0.1926 -0.608,-0.2858 -0.943,-0.2641c-0.359,-0.0328 -0.719,0.0504 -1.027,0.2374c-0.092,0.0601 -0.169,0.1423 -0.222,0.2391c-0.054,0.0964 -0.082,0.2054 -0.083,0.3154c-0.002,0.132 0.044,0.26 0.128,0.361c0.104,0.129 0.242,0.225 0.399,0.278c0.104,0.04 0.409,0.127 0.923,0.267c0.523,0.129 1.039,0.29 1.543,0.482c0.27,0.117 0.503,0.307 0.671,0.548c0.174,0.263 0.261,0.574 0.248,0.889c-0.001,0.349 -0.106,0.69 -0.302,0.98c-0.218,0.316 -0.523,0.562 -0.879,0.708c-0.41,0.173 -0.853,0.258 -1.298,0.251c-0.649,0.045 -1.294,-0.13 -1.832,-0.495c-0.444,-0.379 -0.728,-0.912 -0.795,-1.491z"/>
  <path id="svg_41" fill="#2F80ED" d="m184.675,103.005l1.03,-0.16c0.036,0.365 0.21,0.703 0.486,0.946c0.319,0.239 0.713,0.358 1.111,0.334c0.379,0.031 0.757,-0.074 1.067,-0.294c0.102,-0.079 0.186,-0.181 0.244,-0.296c0.058,-0.116 0.089,-0.243 0.091,-0.373c0.004,-0.111 -0.023,-0.221 -0.077,-0.318c-0.053,-0.098 -0.132,-0.179 -0.228,-0.236c-0.34,-0.162 -0.698,-0.281 -1.067,-0.355c-0.545,-0.12 -1.078,-0.286 -1.593,-0.498c-0.272,-0.121 -0.502,-0.319 -0.661,-0.569c-0.16,-0.251 -0.243,-0.542 -0.239,-0.838c-0.003,-0.265 0.062,-0.5263 0.188,-0.7591c0.123,-0.2318 0.299,-0.4313 0.514,-0.5817c0.204,-0.1397 0.431,-0.2427 0.671,-0.3042c0.292,-0.0848 0.595,-0.1264 0.899,-0.1237c0.434,-0.0077 0.866,0.0625 1.275,0.2073c0.318,0.1066 0.599,0.3028 0.808,0.5649c0.192,0.2844 0.315,0.6095 0.359,0.9495l-1.006,0.14c-0.032,-0.29 -0.177,-0.5562 -0.403,-0.7418c-0.275,-0.1921 -0.607,-0.2852 -0.943,-0.2641c-0.359,-0.0328 -0.719,0.0504 -1.026,0.2374c-0.093,0.061 -0.169,0.1433 -0.223,0.2399c-0.053,0.0966 -0.083,0.2046 -0.086,0.3146c0,0.132 0.045,0.259 0.128,0.361c0.105,0.129 0.244,0.225 0.402,0.278c0.104,0.04 0.409,0.127 0.919,0.267c0.525,0.13 1.042,0.29 1.547,0.482c0.271,0.117 0.503,0.307 0.671,0.548c0.173,0.264 0.259,0.574 0.248,0.889c-0.001,0.35 -0.107,0.691 -0.305,0.98c-0.216,0.316 -0.52,0.563 -0.876,0.708c-0.411,0.173 -0.855,0.258 -1.301,0.251c-0.648,0.044 -1.292,-0.13 -1.829,-0.495c-0.445,-0.378 -0.729,-0.911 -0.795,-1.491z"/>
  <path id="svg_42" fill="#2F80ED" d="m190.64,101.768c0,-1.136 0.336,-1.9752 0.953,-2.5234c0.54,-0.4536 1.23,-0.6917 1.936,-0.6686c0.385,-0.013 0.768,0.054 1.126,0.1967c0.357,0.1427 0.681,0.3581 0.95,0.6323c0.28,0.3099 0.494,0.672 0.633,1.065c0.138,0.393 0.197,0.809 0.173,1.225c0.03,0.641 -0.093,1.281 -0.359,1.865c-0.231,0.448 -0.593,0.815 -1.037,1.053c-0.455,0.25 -0.967,0.379 -1.486,0.375c-0.387,0.016 -0.773,-0.049 -1.134,-0.192c-0.36,-0.142 -0.686,-0.358 -0.956,-0.634c-0.534,-0.562 -0.799,-1.357 -0.799,-2.394zm1.074,0c-0.049,0.632 0.135,1.259 0.516,1.766c0.161,0.185 0.36,0.334 0.583,0.435c0.224,0.102 0.467,0.155 0.712,0.155c0.246,0 0.489,-0.053 0.712,-0.155c0.224,-0.101 0.423,-0.25 0.583,-0.435c0.345,-0.39 0.517,-0.989 0.517,-1.796c0.044,-0.619 -0.141,-1.232 -0.52,-1.725c-0.162,-0.1829 -0.36,-0.3297 -0.583,-0.4304c-0.224,-0.1006 -0.466,-0.1526 -0.71,-0.1526c-0.245,0 -0.487,0.052 -0.71,0.1526c-0.223,0.1007 -0.422,0.2475 -0.584,0.4304c-0.38,0.503 -0.564,1.127 -0.516,1.755z"/>
  <path id="svg_43" fill="#2F80ED" d="m204.929,104.837l0,-0.775c-0.18,0.291 -0.434,0.53 -0.738,0.69c-0.303,0.161 -0.644,0.238 -0.987,0.222c-0.477,0.001 -0.945,-0.14 -1.342,-0.404c-0.42,-0.277 -0.751,-0.668 -0.956,-1.127c-0.235,-0.525 -0.349,-1.096 -0.335,-1.671c-0.009,-0.572 0.095,-1.14 0.305,-1.672c0.181,-0.4677 0.504,-0.8682 0.923,-1.1463c0.409,-0.2645 0.887,-0.4029 1.375,-0.3978c0.345,-0.0066 0.685,0.0739 0.99,0.234c0.279,0.1469 0.521,0.3549 0.708,0.6084l0,-3.0387l1.036,0l0,8.4714l-0.979,0.006zm-3.302,-3.062c-0.046,0.628 0.131,1.252 0.5,1.762c0.139,0.18 0.317,0.327 0.521,0.428c0.204,0.101 0.429,0.155 0.657,0.157c0.223,0 0.444,-0.05 0.645,-0.146c0.201,-0.097 0.377,-0.238 0.516,-0.412c0.356,-0.493 0.526,-1.096 0.479,-1.702c0,-0.839 -0.161,-1.457 -0.486,-1.849c-0.14,-0.184 -0.322,-0.3332 -0.531,-0.4353c-0.208,-0.1022 -0.438,-0.1544 -0.67,-0.1526c-0.225,-0.0022 -0.447,0.0477 -0.649,0.1457c-0.202,0.0981 -0.378,0.2416 -0.515,0.4193c-0.309,0.3779 -0.467,0.9729 -0.467,1.7849z"/>
  <path id="svg_44" fill="#2F80ED" d="m207.15,101.768c0,-1.136 0.315,-1.9752 0.949,-2.5234c0.541,-0.453 1.23,-0.6911 1.936,-0.6686c0.385,-0.0136 0.769,0.0531 1.126,0.1958c0.358,0.1428 0.682,0.3585 0.951,0.6332c0.279,0.3099 0.494,0.672 0.632,1.065c0.138,0.393 0.197,0.809 0.173,1.225c0.031,0.641 -0.091,1.28 -0.356,1.865c-0.233,0.446 -0.594,0.813 -1.037,1.053c-0.455,0.251 -0.968,0.38 -1.489,0.375c-0.388,0.013 -0.773,-0.054 -1.133,-0.199c-0.359,-0.145 -0.684,-0.363 -0.954,-0.64c-0.533,-0.549 -0.798,-1.344 -0.798,-2.381zm1.07,0c-0.047,0.632 0.136,1.259 0.517,1.766c0.16,0.185 0.36,0.334 0.583,0.436c0.224,0.102 0.467,0.154 0.713,0.154c0.246,0 0.489,-0.052 0.713,-0.154c0.224,-0.102 0.423,-0.251 0.584,-0.436c0.335,-0.392 0.517,-1.003 0.517,-1.796c0.044,-0.619 -0.141,-1.232 -0.52,-1.725c-0.162,-0.183 -0.361,-0.3299 -0.585,-0.4305c-0.223,-0.1006 -0.465,-0.1527 -0.71,-0.1527c-0.246,0 -0.488,0.0521 -0.711,0.1527c-0.223,0.1006 -0.423,0.2475 -0.584,0.4305c-0.38,0.504 -0.563,1.127 -0.517,1.755z"/>
  <path id="svg_45" fill="#2F80ED" d="m217.191,102.116l1.06,-0.093c0.027,0.369 0.142,0.727 0.336,1.043c0.215,0.3 0.512,0.532 0.855,0.668c0.413,0.173 0.857,0.258 1.305,0.251c0.387,0.007 0.771,-0.057 1.134,-0.191c0.291,-0.099 0.546,-0.28 0.735,-0.521c0.157,-0.209 0.242,-0.464 0.241,-0.726c0.005,-0.251 -0.077,-0.496 -0.231,-0.695c-0.206,-0.232 -0.47,-0.405 -0.765,-0.501c-0.228,-0.087 -0.735,-0.224 -1.516,-0.412c-0.565,-0.116 -1.115,-0.293 -1.641,-0.528c-0.367,-0.178 -0.679,-0.4503 -0.906,-0.7887c-0.199,-0.3162 -0.303,-0.683 -0.298,-1.0563c-0.001,-0.4264 0.126,-0.8433 0.365,-1.1968c0.259,-0.386 0.632,-0.6826 1.067,-0.8491c0.496,-0.1967 1.026,-0.2944 1.56,-0.2875c0.574,-0.0126 1.145,0.0909 1.678,0.3042c0.452,0.1788 0.839,0.49 1.11,0.8926c0.261,0.3986 0.405,0.8616 0.416,1.3371l-1.077,0.0803c-0.012,-0.2313 -0.071,-0.4577 -0.172,-0.666c-0.102,-0.2084 -0.244,-0.3945 -0.418,-0.5475c-0.432,-0.3002 -0.954,-0.4441 -1.48,-0.4079c-0.524,-0.0427 -1.047,0.0877 -1.489,0.3711c-0.144,0.1025 -0.261,0.2375 -0.342,0.3938c-0.081,0.1563 -0.124,0.3295 -0.125,0.5055c-0.003,0.1422 0.026,0.2834 0.084,0.4134c0.058,0.13 0.144,0.2457 0.252,0.3387c0.215,0.1939 0.781,0.3945 1.677,0.6017c0.642,0.1257 1.272,0.3064 1.882,0.5414c0.438,0.183 0.817,0.481 1.097,0.863c0.237,0.356 0.36,0.776 0.353,1.203c-0.003,0.454 -0.138,0.898 -0.389,1.277c-0.274,0.411 -0.661,0.734 -1.114,0.929c-0.517,0.228 -1.076,0.342 -1.641,0.335c-0.66,0.02 -1.317,-0.094 -1.932,-0.335c-0.5,-0.203 -0.927,-0.553 -1.225,-1.002c-0.293,-0.462 -0.448,-0.998 -0.446,-1.545z"/>
  <path id="svg_46" fill="#2F80ED" d="m229.396,104.837l0,-0.902c-0.208,0.326 -0.497,0.593 -0.839,0.776c-0.342,0.182 -0.726,0.273 -1.113,0.263c-0.347,0.002 -0.69,-0.068 -1.007,-0.207c-0.276,-0.109 -0.518,-0.289 -0.701,-0.521c-0.165,-0.232 -0.279,-0.495 -0.336,-0.773c-0.05,-0.32 -0.071,-0.645 -0.063,-0.969l0,-3.801l1.043,0l0,3.4c-0.011,0.368 0.01,0.736 0.064,1.1c0.057,0.258 0.206,0.487 0.419,0.645c0.231,0.16 0.507,0.242 0.789,0.234c0.31,0 0.615,-0.083 0.882,-0.241c0.261,-0.147 0.465,-0.376 0.58,-0.652c0.132,-0.386 0.19,-0.793 0.171,-1.2l0,-3.286l1.044,0l0,6.134l-0.933,0z"/>
  <path id="svg_47" fill="#2F80ED" d="m231.943,104.837l0,-8.4707l1.043,0l0,8.4707l-1.043,0z"/>
  <path id="svg_48" fill="#2F80ED" d="m87.3353,88.1227l0,-10.6639l7.4681,0l0,1.8519l-5.284,0l0,2.4203l4.6298,0l0,1.852l-4.6298,0l0,4.5397l-2.1841,0z"/>
  <path id="svg_49" fill="#2F80ED" d="m102.768,80.2535l0,7.8692l-2.07,0l0,-0.9327c-0.279,0.3624 -0.638,0.6553 -1.0501,0.8558c-0.42,0.1951 -0.8787,0.2934 -1.342,0.2875c-0.8689,0 -1.5164,-0.2273 -1.9525,-0.6686c-0.4362,-0.4413 -0.6475,-1.1299 -0.6475,-2.0325l0,-5.3487l2.1136,0l0,4.7436c-0.0367,0.4187 0.0621,0.8381 0.2818,1.1968c0.1179,0.1282 0.2642,0.2273 0.4273,0.2894c0.163,0.0621 0.3384,0.0855 0.5121,0.0683c0.2169,0.0105 0.4336,-0.0235 0.6368,-0.1c0.2032,-0.0765 0.3885,-0.1938 0.5445,-0.3446c0.15,-0.1632 0.266,-0.3545 0.342,-0.5628c0.075,-0.2083 0.108,-0.4295 0.097,-0.6507l0,-4.67l2.107,0z"/>
  <path id="svg_50" fill="#2F80ED" d="m104.617,88.1227l0,-7.8692l2.07,0l0,0.9326c0.275,-0.3644 0.634,-0.6578 1.046,-0.8558c0.42,-0.1948 0.879,-0.2931 1.342,-0.2874c0.873,0 1.524,0.2228 1.956,0.6685c0.436,0.4513 0.651,1.1299 0.651,2.0359l0,5.3654l-2.114,0l0,-4.757c0.037,-0.4238 -0.064,-0.848 -0.288,-1.2101c-0.117,-0.1283 -0.262,-0.2278 -0.424,-0.2904c-0.162,-0.0627 -0.336,-0.0869 -0.509,-0.0707c-0.217,-0.0106 -0.435,0.0234 -0.638,0.0999c-0.204,0.0765 -0.39,0.1938 -0.546,0.3447c-0.15,0.1635 -0.265,0.3549 -0.34,0.5632c-0.075,0.2083 -0.108,0.4293 -0.096,0.6503l0,4.6801l-2.11,0z"/>
  <path id="svg_51" fill="#2F80ED" d="m120.757,77.4588l0,10.6639l-2.013,0l0,-1.0631c-0.258,0.4099 -0.61,0.7535 -1.026,1.0029c-0.411,0.2264 -0.874,0.3416 -1.342,0.3343c-0.458,0.0103 -0.912,-0.0887 -1.323,-0.2887c-0.412,-0.2001 -0.769,-0.4954 -1.043,-0.8613c-0.632,-0.8728 -0.95,-1.933 -0.902,-3.0086c-0.05,-1.0913 0.268,-2.168 0.902,-3.0588c0.417,-0.5508 1.015,-0.9385 1.689,-1.0954c0.675,-0.157 1.383,-0.0734 2.002,0.2363c0.404,0.2191 0.745,0.5379 0.989,0.926l0,-3.7875l2.067,0zm-5.529,6.6858c-0.041,0.6378 0.116,1.2727 0.45,1.8186c0.146,0.2051 0.342,0.3702 0.57,0.4801c0.227,0.1098 0.479,0.1608 0.731,0.1483c0.25,0.0131 0.499,-0.0374 0.724,-0.1467c0.225,-0.1094 0.418,-0.274 0.561,-0.4784c0.331,-0.5482 0.485,-1.1838 0.443,-1.8219c0.039,-0.6089 -0.124,-1.2136 -0.463,-1.7216c-0.153,-0.1981 -0.352,-0.3565 -0.58,-0.4619c-0.227,-0.1053 -0.477,-0.1544 -0.728,-0.1432c-0.244,-0.0078 -0.486,0.045 -0.705,0.1535c-0.218,0.1085 -0.406,0.2695 -0.547,0.4683c-0.328,0.5028 -0.487,1.0961 -0.456,1.6949l0,0.01z"/>
  <path id="svg_52" fill="#2F80ED" d="m127.182,87.1466c-0.259,0.3999 -0.62,0.7232 -1.047,0.936c-0.469,0.2265 -0.985,0.341 -1.506,0.3343c-0.324,0.021 -0.649,-0.0259 -0.953,-0.1376c-0.305,-0.1117 -0.583,-0.2857 -0.815,-0.511c-0.442,-0.5142 -0.665,-1.1799 -0.621,-1.8553c-0.021,-0.311 0.023,-0.623 0.13,-0.916c0.107,-0.293 0.274,-0.5606 0.491,-0.7855c0.416,-0.3912 1.097,-0.6686 2.053,-0.8023c0.218,-0.0335 0.503,-0.0736 0.855,-0.117c0.899,-0.117 1.342,-0.3744 1.342,-0.7756c0.01,-0.1274 -0.011,-0.2553 -0.064,-0.3721c-0.052,-0.1168 -0.132,-0.2187 -0.234,-0.2965c-0.308,-0.165 -0.658,-0.237 -1.007,-0.2072c-0.346,-0.0227 -0.691,0.0664 -0.983,0.254c-0.111,0.0837 -0.2,0.1934 -0.258,0.3193c-0.059,0.1259 -0.085,0.2643 -0.077,0.4028l0,0.117l-1.976,0l0,-0.1438c-0.016,-0.3618 0.053,-0.7223 0.203,-1.0526c0.149,-0.3303 0.373,-0.6212 0.656,-0.8495c0.685,-0.4967 1.522,-0.7412 2.368,-0.6919c1.103,0 1.949,0.1905 2.54,0.5716c0.28,0.1729 0.51,0.4169 0.665,0.707c0.155,0.2901 0.23,0.616 0.217,0.9444l0,4.4762c-0.012,0.2481 0.022,0.4963 0.101,0.7321c0.065,0.1578 0.184,0.2878 0.335,0.3677l0,0.3543l-2.167,0c-0.075,-0.1413 -0.132,-0.2919 -0.168,-0.4479c-0.048,-0.1812 -0.075,-0.3675 -0.08,-0.5549zm-0.037,-2.8984c-0.381,0.1713 -0.779,0.3003 -1.188,0.3845c-0.449,0.0969 -0.671,0.1471 -0.694,0.1538c-0.292,0.0611 -0.561,0.1984 -0.782,0.3978c-0.159,0.1853 -0.238,0.4254 -0.221,0.6685c-0.006,0.1288 0.016,0.2572 0.065,0.3766c0.049,0.1193 0.122,0.2269 0.216,0.3154c0.214,0.1778 0.487,0.2685 0.765,0.2541c0.245,0.0125 0.489,-0.0236 0.72,-0.1063c0.23,-0.0826 0.442,-0.2101 0.622,-0.3751c0.168,-0.1741 0.297,-0.3804 0.382,-0.6064c0.084,-0.2259 0.121,-0.4667 0.108,-0.7074l0.007,-0.7555z"/>
  <path id="svg_53" fill="#2F80ED" d="m135.79,85.1542l2.084,0c-0.038,0.9015 -0.431,1.7517 -1.094,2.3668c-0.687,0.594 -1.576,0.9048 -2.486,0.8691c-0.503,0.0239 -1.004,-0.0642 -1.469,-0.2579c-0.464,-0.1937 -0.879,-0.4882 -1.215,-0.862c-0.651,-0.7443 -0.976,-1.7751 -0.976,-3.0922c0,-1.3171 0.335,-2.3467 1.006,-3.0888c0.348,-0.3763 0.774,-0.6718 1.249,-0.8653c0.475,-0.1936 0.987,-0.2805 1.499,-0.2546c0.885,-0.0375 1.752,0.2518 2.436,0.8123c0.315,0.2883 0.57,0.637 0.747,1.0253c0.178,0.3882 0.275,0.8081 0.286,1.2346l-2.1,0c-0.029,-0.3629 -0.186,-0.7038 -0.443,-0.9628c-0.256,-0.2298 -0.592,-0.3499 -0.936,-0.3343c-0.233,-0.0129 -0.466,0.0375 -0.672,0.1459c-0.207,0.1083 -0.381,0.2704 -0.502,0.4692c-0.296,0.5685 -0.43,1.2064 -0.389,1.8453c-0.037,0.6092 0.103,1.2161 0.402,1.7483c0.123,0.1946 0.295,0.3537 0.498,0.4611c0.204,0.1074 0.433,0.1593 0.663,0.1507c0.173,0.0084 0.346,-0.0187 0.508,-0.0796c0.163,-0.061 0.31,-0.1545 0.435,-0.2748c0.265,-0.2934 0.43,-0.6634 0.469,-1.0563zm-3.089,6.1409l0,-0.9193c0.389,0.1003 0.741,0.1805 1.056,0.2307c0.266,0.0489 0.535,0.0757 0.806,0.0802c0.193,0.0158 0.386,-0.0286 0.553,-0.127c0.059,-0.0479 0.106,-0.1094 0.136,-0.1794c0.03,-0.0699 0.042,-0.1461 0.035,-0.2218c0.007,-0.0774 -0.009,-0.1552 -0.044,-0.2243c-0.036,-0.0692 -0.09,-0.127 -0.157,-0.1668c-0.212,-0.0898 -0.442,-0.1287 -0.671,-0.1137l-0.252,0c-0.053,-0.0037 -0.107,-0.0037 -0.161,0l0,-1.5277l0.742,0l0,0.6519l0.107,0c0.453,-0.0358 0.905,0.082 1.282,0.3343c0.139,0.1408 0.249,0.3082 0.322,0.4923c0.073,0.184 0.108,0.3809 0.103,0.5788c-0.005,0.1979 -0.05,0.3927 -0.132,0.5729c-0.082,0.1801 -0.2,0.3418 -0.347,0.4754c-0.427,0.2727 -0.93,0.4005 -1.436,0.3644c-0.291,-0.0039 -0.582,-0.0307 -0.869,-0.0803c-0.335,-0.0468 -0.693,-0.1203 -1.073,-0.2206z"/>
  <path id="svg_54" fill="#2F80ED" d="m143.738,87.1466c-0.256,0.4013 -0.618,0.725 -1.046,0.936c-0.468,0.227 -0.983,0.3415 -1.503,0.3343c-0.324,0.0212 -0.649,-0.0256 -0.954,-0.1373c-0.304,-0.1117 -0.582,-0.2859 -0.814,-0.5113c-0.444,-0.5133 -0.667,-1.1797 -0.621,-1.8553c-0.022,-0.3111 0.022,-0.6233 0.129,-0.9165c0.107,-0.2931 0.274,-0.5605 0.492,-0.785c0.413,-0.39 1.098,-0.6575 2.053,-0.8023c0.218,-0.0335 0.503,-0.0736 0.855,-0.117c0.895,-0.1159 1.342,-0.3744 1.342,-0.7756c0.01,-0.1273 -0.012,-0.2551 -0.065,-0.3718c-0.052,-0.1166 -0.132,-0.2186 -0.233,-0.2968c-0.309,-0.1648 -0.658,-0.2368 -1.007,-0.2072c-0.345,-0.0227 -0.689,0.0664 -0.98,0.254c-0.111,0.0837 -0.199,0.1934 -0.258,0.3193c-0.058,0.1259 -0.085,0.2643 -0.077,0.4028l0,0.117l-1.976,0l0,-0.1438c-0.017,-0.3619 0.052,-0.7227 0.202,-1.0531c0.149,-0.3304 0.374,-0.6213 0.657,-0.849c0.685,-0.4972 1.522,-0.7418 2.368,-0.6919c1.103,0 1.95,0.1905 2.54,0.5716c0.281,0.1729 0.51,0.4169 0.665,0.707c0.155,0.2901 0.23,0.616 0.217,0.9444l0,4.4762c-0.012,0.2481 0.022,0.4963 0.101,0.7321c0.063,0.1592 0.182,0.29 0.336,0.3677l0,0.3543l-2.201,0c-0.077,-0.1407 -0.134,-0.2915 -0.168,-0.4479c-0.038,-0.1826 -0.056,-0.3686 -0.054,-0.5549zm0.93,-10.1425c-0.074,0.4843 -0.265,0.9433 -0.557,1.3372c-0.116,0.139 -0.262,0.2501 -0.427,0.3248c-0.165,0.0747 -0.345,0.1111 -0.526,0.1064c-0.094,0.0005 -0.189,-0.0062 -0.282,-0.02c-0.089,-0.0121 -0.176,-0.0322 -0.262,-0.0602l-0.634,-0.1905c-0.09,-0.0234 -0.178,-0.0402 -0.255,-0.0535c-0.075,-0.0049 -0.15,-0.0049 -0.224,0c-0.145,-0.0068 -0.287,0.0396 -0.4,0.1303c-0.118,0.116 -0.201,0.2633 -0.238,0.4246l-0.802,0c0.068,-0.4677 0.254,-0.9106 0.54,-1.287c0.117,-0.1341 0.262,-0.2405 0.425,-0.3116c0.163,-0.0712 0.34,-0.1052 0.518,-0.0996c0.102,-0.0007 0.205,0.0072 0.305,0.0234c0.108,0.0185 0.215,0.0442 0.319,0.0769l0.671,0.1805c0.06,0.02 0.122,0.0345 0.185,0.0435c0.071,0.0053 0.143,0.0053 0.214,0c0.072,0.002 0.144,-0.0106 0.211,-0.037c0.067,-0.0265 0.128,-0.0662 0.179,-0.1168c0.118,-0.1326 0.199,-0.2941 0.234,-0.468l0.806,-0.0034zm-0.967,7.2609c-0.38,0.1722 -0.778,0.3012 -1.187,0.3844c-0.446,0.0969 -0.671,0.1471 -0.691,0.1538c-0.292,0.06 -0.562,0.1974 -0.782,0.3978c-0.159,0.1853 -0.239,0.4254 -0.221,0.6686c-0.006,0.1287 0.016,0.2571 0.065,0.3765c0.049,0.1194 0.122,0.2269 0.216,0.3154c0.214,0.1787 0.487,0.2696 0.765,0.2541c0.245,0.0133 0.49,-0.0225 0.72,-0.1052c0.231,-0.0827 0.442,-0.2106 0.622,-0.3762c0.168,-0.1736 0.298,-0.3799 0.383,-0.6059c0.084,-0.2261 0.121,-0.4671 0.107,-0.7078l0.003,-0.7555z"/>
  <path id="svg_55" fill="#2F80ED" d="m147.177,84.178c0,-1.3104 0.356,-2.3389 1.067,-3.0855c0.711,-0.7466 1.69,-1.121 2.936,-1.1232c0.54,-0.0286 1.081,0.0567 1.586,0.2502c0.505,0.1935 0.964,0.491 1.346,0.873c0.715,0.7488 1.072,1.7773 1.07,3.0855c0,1.3105 -0.356,2.3401 -1.07,3.0889c-0.382,0.382 -0.841,0.6795 -1.346,0.873c-0.505,0.1936 -1.046,0.2788 -1.586,0.2502c-1.246,0 -2.225,-0.3744 -2.936,-1.1232c-0.711,-0.7455 -1.067,-1.7784 -1.067,-3.0889zm2.144,0c-0.042,0.6393 0.128,1.2747 0.483,1.8086c0.167,0.2 0.376,0.3609 0.613,0.4713c0.237,0.1104 0.495,0.1677 0.756,0.1677c0.261,0 0.519,-0.0573 0.756,-0.1677c0.236,-0.1104 0.445,-0.2713 0.613,-0.4713c0.315,-0.5498 0.481,-1.172 0.481,-1.8052c0,-0.6332 -0.166,-1.2555 -0.481,-1.8052c-0.169,-0.198 -0.379,-0.3571 -0.616,-0.4662c-0.237,-0.109 -0.494,-0.1655 -0.755,-0.1655c-0.261,0 -0.518,0.0565 -0.755,0.1655c-0.237,0.1091 -0.447,0.2682 -0.615,0.4662c-0.354,0.532 -0.523,1.1651 -0.48,1.8018z"/>
  <path id="svg_56" fill="#2F80ED" d="m160.567,82.8008c0,-1.7205 0.47,-3.0878 1.412,-4.1018c0.942,-1.014 2.212,-1.5188 3.811,-1.5143c1.599,0 2.872,0.5058 3.818,1.5176c0.946,1.0118 1.425,2.378 1.436,4.0985c0,1.7182 -0.474,3.0844 -1.422,4.0984c-0.949,1.014 -2.221,1.521 -3.818,1.521c-1.597,0 -2.868,-0.507 -3.812,-1.521c-0.943,-1.014 -1.419,-2.3802 -1.425,-4.0984zm2.244,0c0,1.1744 0.262,2.0859 0.785,2.7345c0.263,0.3224 0.599,0.5784 0.981,0.7474c0.381,0.1691 0.797,0.2462 1.213,0.2253c0.42,0.0225 0.84,-0.0538 1.225,-0.2228c0.386,-0.169 0.726,-0.4259 0.993,-0.7499c0.525,-0.6486 0.789,-1.5601 0.792,-2.7345c0.002,-1.1745 -0.257,-2.0849 -0.775,-2.7312c-0.267,-0.3247 -0.607,-0.5822 -0.992,-0.7518c-0.386,-0.1696 -0.805,-0.2464 -1.226,-0.2243c-0.417,-0.0209 -0.833,0.0563 -1.214,0.2253c-0.381,0.169 -0.717,0.425 -0.98,0.7475c-0.535,0.644 -0.802,1.5555 -0.802,2.7345z"/>
  <path id="svg_57" fill="#2F80ED" d="m172.148,85.5587l2.107,0c-0.003,0.1729 0.035,0.344 0.111,0.4996c0.076,0.1556 0.187,0.2913 0.325,0.3963c0.367,0.2203 0.793,0.323 1.221,0.2941c0.332,0.0183 0.662,-0.0533 0.956,-0.2072c0.105,-0.0575 0.191,-0.1425 0.25,-0.2457c0.059,-0.1032 0.089,-0.2206 0.086,-0.3393c0,-0.3544 -0.423,-0.6252 -1.265,-0.8023c-0.336,-0.0736 -0.617,-0.1337 -0.822,-0.1872c-1.027,-0.2608 -1.74,-0.5706 -2.141,-0.9294c-0.2,-0.1826 -0.358,-0.4069 -0.462,-0.6571c-0.103,-0.2501 -0.151,-0.52 -0.138,-0.7904c-0.014,-0.3646 0.058,-0.7275 0.21,-1.0595c0.152,-0.332 0.38,-0.624 0.666,-0.8526c0.685,-0.5039 1.525,-0.7544 2.375,-0.7087c0.884,-0.0507 1.76,0.1966 2.486,0.702c0.3,0.2359 0.543,0.5366 0.709,0.8794c0.167,0.3427 0.254,0.7187 0.254,1.0996l-2.057,0c0.001,-0.1495 -0.033,-0.2973 -0.099,-0.4317c-0.065,-0.1345 -0.161,-0.2521 -0.28,-0.3438c-0.296,-0.2002 -0.65,-0.2966 -1.006,-0.2742c-0.311,-0.02 -0.621,0.0423 -0.9,0.1806c-0.093,0.0552 -0.17,0.1348 -0.221,0.2303c-0.052,0.0954 -0.076,0.203 -0.07,0.3112c0,0.3143 0.523,0.5917 1.576,0.8324l0.574,0.1304c1.051,0.2474 1.769,0.5449 2.154,0.8925c0.197,0.1883 0.351,0.4171 0.451,0.6705c0.099,0.2534 0.142,0.5254 0.126,0.7971c0.023,0.392 -0.052,0.7836 -0.218,1.14c-0.165,0.3563 -0.417,0.6663 -0.732,0.9025c-0.63,0.468 -1.548,0.702 -2.754,0.702c-1.089,0 -1.942,-0.244 -2.56,-0.7321c-0.302,-0.2379 -0.543,-0.5437 -0.703,-0.8924c-0.16,-0.3486 -0.235,-0.7302 -0.219,-1.1133l0.01,-0.0936z"/>
  <path id="svg_58" fill="#2F80ED" d="m182.132,88.1227l-2.238,-7.8692l2.144,0l1.292,5.4422l1.09,-5.4523l2.157,0l1.148,5.4523l1.295,-5.4523l2.05,0l-2.218,7.8693l-2.114,0l-1.268,-5.6228l-1.221,5.6328l-2.117,0z"/>
  <path id="svg_59" fill="#2F80ED" d="m196.625,87.1466c-0.256,0.4005 -0.617,0.7241 -1.043,0.936c-0.469,0.2265 -0.985,0.341 -1.506,0.3343c-0.324,0.0212 -0.649,-0.0256 -0.954,-0.1373c-0.304,-0.1117 -0.582,-0.2859 -0.814,-0.5113c-0.444,-0.5133 -0.667,-1.1797 -0.621,-1.8553c-0.022,-0.3111 0.022,-0.6233 0.129,-0.9165c0.107,-0.2931 0.274,-0.5606 0.492,-0.785c0.413,-0.39 1.098,-0.6575 2.053,-0.8023c0.218,-0.0335 0.503,-0.0736 0.855,-0.117c0.895,-0.1159 1.342,-0.3745 1.342,-0.7756c0.01,-0.1274 -0.012,-0.2551 -0.065,-0.3718c-0.052,-0.1167 -0.132,-0.2186 -0.233,-0.2968c-0.309,-0.165 -0.658,-0.237 -1.007,-0.2072c-0.346,-0.0232 -0.691,0.0659 -0.983,0.254c-0.111,0.0837 -0.2,0.1934 -0.258,0.3193c-0.059,0.1259 -0.085,0.2642 -0.077,0.4028l0,0.117l-1.976,0l0,-0.1438c-0.017,-0.3619 0.052,-0.7227 0.201,-1.0531c0.149,-0.3304 0.375,-0.6213 0.657,-0.849c0.686,-0.4972 1.523,-0.7418 2.369,-0.692c1.103,0 1.949,0.1906 2.54,0.5717c0.28,0.1729 0.51,0.4169 0.665,0.707c0.155,0.2901 0.23,0.616 0.217,0.9444l0,4.4762c-0.012,0.2481 0.022,0.4963 0.101,0.7321c0.063,0.1592 0.182,0.29 0.335,0.3677l0,0.3543l-2.167,0c-0.077,-0.1407 -0.133,-0.2915 -0.168,-0.4479c-0.048,-0.1815 -0.076,-0.3675 -0.084,-0.5549zm-0.033,-2.8984c-0.381,0.1713 -0.779,0.3003 -1.188,0.3845c-0.449,0.0969 -0.671,0.1471 -0.694,0.1537c-0.292,0.0601 -0.562,0.1975 -0.782,0.3978c-0.159,0.1854 -0.239,0.4255 -0.222,0.6686c-0.005,0.1288 0.017,0.2572 0.066,0.3766c0.049,0.1193 0.122,0.2269 0.216,0.3154c0.214,0.1784 0.487,0.2692 0.765,0.2541c0.245,0.0132 0.49,-0.0225 0.72,-0.1052c0.231,-0.0827 0.442,-0.2106 0.622,-0.3762c0.169,-0.1734 0.299,-0.3796 0.384,-0.6056c0.085,-0.2261 0.122,-0.4672 0.109,-0.7082l0.004,-0.7555z"/>
  <path id="svg_60" fill="#2F80ED" d="m200.537,88.1227l0,-10.6639l2.114,0l0,10.6639l-2.114,0z"/>
  <path id="svg_61" fill="#2F80ED" d="m211.813,77.4588l0,10.6639l-2.013,0l0,-1.0631c-0.258,0.4099 -0.61,0.7535 -1.027,1.0029c-0.41,0.2264 -0.873,0.3416 -1.341,0.3343c-0.458,0.0103 -0.912,-0.0887 -1.323,-0.2887c-0.412,-0.2001 -0.769,-0.4954 -1.043,-0.8613c-0.635,-0.8717 -0.954,-1.9324 -0.906,-3.0086c-0.05,-1.0919 0.269,-2.1691 0.906,-3.0588c0.416,-0.5519 1.014,-0.9404 1.689,-1.0974c0.675,-0.1571 1.383,-0.0727 2.002,0.2383c0.411,0.2157 0.758,0.535 1.006,0.926l0,-3.7875l2.05,0zm-5.529,6.6858c-0.043,0.6379 0.115,1.2733 0.45,1.8186c0.146,0.2053 0.342,0.3706 0.57,0.4805c0.227,0.1098 0.479,0.1607 0.731,0.1479c0.25,0.0131 0.499,-0.0374 0.724,-0.1467c0.225,-0.1094 0.418,-0.274 0.561,-0.4784c0.331,-0.5482 0.485,-1.1838 0.443,-1.8219c0.04,-0.6094 -0.124,-1.2147 -0.466,-1.7216c-0.153,-0.1983 -0.351,-0.3569 -0.578,-0.4622c-0.227,-0.1054 -0.477,-0.1544 -0.727,-0.1429c-0.244,-0.0084 -0.487,0.0441 -0.705,0.1527c-0.219,0.1086 -0.406,0.2698 -0.547,0.4691c-0.334,0.5005 -0.498,1.0944 -0.469,1.6949l0.013,0.01z"/>
  <path id="svg_62" fill="#2F80ED" d="m213.316,84.178c0,-1.3104 0.356,-2.3389 1.067,-3.0855c0.711,-0.7466 1.69,-1.121 2.935,-1.1232c0.541,-0.0286 1.081,0.0567 1.587,0.2502c0.505,0.1935 0.964,0.491 1.346,0.873c0.715,0.7488 1.073,1.7773 1.073,3.0855c0,1.3105 -0.359,2.3401 -1.073,3.0889c-0.382,0.382 -0.841,0.6795 -1.346,0.873c-0.506,0.1936 -1.046,0.2788 -1.587,0.2502c-1.243,0 -2.222,-0.3744 -2.935,-1.1232c-0.731,-0.7455 -1.067,-1.7784 -1.067,-3.0889zm2.144,0c-0.041,0.6392 0.129,1.274 0.483,1.8086c0.16,0.2099 0.369,0.3779 0.608,0.4892c0.24,0.1112 0.503,0.1625 0.767,0.1493c0.263,0.0124 0.524,-0.0392 0.761,-0.1506c0.238,-0.1112 0.444,-0.2788 0.602,-0.4879c0.315,-0.5498 0.481,-1.172 0.481,-1.8052c0,-0.6332 -0.166,-1.2555 -0.481,-1.8052c-0.159,-0.2082 -0.367,-0.3746 -0.605,-0.4847c-0.237,-0.1101 -0.499,-0.1606 -0.761,-0.1471c-0.263,-0.0137 -0.526,0.0366 -0.766,0.1467c-0.24,0.1101 -0.449,0.2766 -0.609,0.4851c-0.355,0.5318 -0.526,1.1645 -0.487,1.8018l0.007,0z"/>
  <path id="svg_63" fill="#2F80ED" d="m236.465,84.4588c-0.017,0.553 -0.151,1.0961 -0.393,1.5938c-0.242,0.4977 -0.588,0.9389 -1.013,1.2945c-0.952,0.7489 -2.143,1.1299 -3.355,1.0731c-1.583,0 -2.813,-0.4925 -3.69,-1.4776c-0.879,-1.0028 -1.319,-2.3634 -1.319,-4.1418c0,-1.7785 0.447,-3.2059 1.342,-4.1687c0.896,-0.9627 2.184,-1.4474 3.865,-1.4474c1.369,0 2.448,0.3343 3.238,1.0028c0.403,0.352 0.727,0.7844 0.952,1.2693c0.225,0.4849 0.345,1.0114 0.353,1.5455l-2.174,0c-0.056,-0.5385 -0.321,-1.034 -0.738,-1.3807c-0.474,-0.3373 -1.049,-0.5046 -1.631,-0.4747c-0.415,-0.0268 -0.832,0.0438 -1.215,0.2064c-0.384,0.1626 -0.723,0.4125 -0.992,0.7297c-0.503,0.6217 -0.755,1.531 -0.755,2.7278c0,1.1611 0.25,2.0525 0.751,2.6743c0.47,0.5172 1.113,0.8467 1.808,0.9273c0.696,0.0806 1.397,-0.0933 1.973,-0.4894c0.446,-0.3726 0.741,-0.8943 0.829,-1.4675l2.164,0.0033z"/>
  <path id="svg_64" fill="#2F80ED" d="m238.055,88.1227l0,-7.8692l1.963,0l0,1.3371c0.217,-0.4716 0.549,-0.8818 0.966,-1.1934c0.389,-0.2571 0.848,-0.3889 1.315,-0.3778l0.205,0c0.038,-0.0024 0.076,-0.0024 0.114,0l0,2.1362l-0.705,0c-0.235,-0.0178 -0.472,0.0128 -0.695,0.0898c-0.224,0.0771 -0.429,0.199 -0.603,0.3581c-0.317,0.3709 -0.474,0.8516 -0.436,1.3372l0,4.1619l-2.124,0.0201z"/>
  <path id="svg_65" fill="#2F80ED" d="m250.807,80.2535l0,7.8692l-2.07,0l0,-0.9327c-0.279,0.3624 -0.638,0.6553 -1.05,0.8558c-0.42,0.1951 -0.878,0.2934 -1.342,0.2875c-0.865,0 -1.515,-0.2229 -1.949,-0.6686c-0.434,-0.4457 -0.651,-1.1232 -0.651,-2.0325l0,-5.3487l2.114,0l0,4.7436c-0.038,0.4192 0.062,0.8392 0.285,1.1968c0.117,0.1284 0.263,0.2276 0.425,0.2897c0.163,0.0621 0.338,0.0854 0.511,0.068c0.217,0.0109 0.434,-0.0229 0.637,-0.0994c0.203,-0.0765 0.388,-0.194 0.544,-0.3452c0.15,-0.1632 0.266,-0.3545 0.342,-0.5628c0.075,-0.2083 0.108,-0.4295 0.097,-0.6507l0,-4.67l2.107,0z"/>
  <path id="svg_66" fill="#2F80ED" d="m251.985,88.1227l0,-1.6147l4.331,-4.5831l-4.083,0l0,-1.6714l6.609,0l0,1.7149l-4.26,4.3959l4.418,0l0,1.7517l-7.015,0.0067z"/>
  <path id="svg_67" fill="#2F80ED" d="m427.883,72.799821l0,-24.2249l16.894,0l0,4.215l-11.979,0l0,5.4889l10.497,0l0,4.2109l-10.497,0l0,10.3101l-4.915,0z"/>
  <path id="svg_68" fill="#2F80ED" d="m447.335,72.799821l0,-24.2249l4.98,0l0,24.2249l-4.98,0z"/>
  <path id="svg_69" fill="#2F80ED" d="m455.614,60.03601c0,-3.9132 1.065,-7.0181 3.196,-9.3147c2.131,-2.2966 5.004,-3.4463 8.619,-3.449c3.615,0 6.494,1.1524 8.636,3.4572c2.141,2.3048 3.212,5.407 3.212,9.3065c0,3.9023 -1.071,7.0059 -3.212,9.3107c-2.142,2.3048 -5.021,3.4558 -8.636,3.4531c-3.615,0 -6.488,-1.1511 -8.619,-3.4531c-2.131,-2.3021 -3.196,-5.4056 -3.196,-9.3107zm5.079,0c0,2.6653 0.591,4.7352 1.772,6.2099c1.181,1.4746 2.836,2.2119 4.964,2.2119c2.15,0 3.821,-0.7373 5.014,-2.2119c1.192,-1.4747 1.788,-3.5446 1.788,-6.2099c0,-2.6625 -0.596,-4.7324 -1.788,-6.2098c-1.193,-1.4774 -2.864,-2.2147 -5.014,-2.2119c-2.122,0 -3.777,0.7345 -4.964,2.2037c-1.187,1.4692 -1.778,3.5419 -1.772,6.218z"/>
  <path id="svg_70" fill="#2F80ED" d="m503.448,63.812719c-0.188,2.7527 -1.248,4.9373 -3.18,6.554c-1.932,1.6166 -4.454,2.4276 -7.567,2.4331c-3.585,0 -6.371,-1.1183 -8.357,-3.3548c-1.986,-2.2365 -2.981,-5.3769 -2.984,-9.4212c0,-4.1208 1.014,-7.279 3.041,-9.4745c2.027,-2.1956 4.941,-3.2879 8.742,-3.277c3.088,0 5.529,0.7537 7.321,2.2611c1.793,1.5074 2.777,3.6374 2.951,6.3901l-4.911,0c-0.129,-1.2228 -0.729,-2.347 -1.674,-3.1336c-0.912,-0.7168 -2.136,-1.0773 -3.683,-1.0773c-2.183,0 -3.847,0.7073 -4.993,2.1218c-1.146,1.4146 -1.716,3.4818 -1.711,6.2017c0,2.6352 0.568,4.6696 1.703,6.1033c1.135,1.4337 2.747,2.1518 4.837,2.1546c1.335,0.0585 2.648,-0.3516 3.712,-1.1592c1.008,-0.8457 1.674,-2.0293 1.875,-3.3302l4.878,0.0081z"/>
  <path id="svg_71" fill="#2F80ED" d="m506.583,72.799821l0,-24.2249l11.733,0c2.639,0 4.593,0.5653 5.865,1.6959c1.271,1.1305 1.907,2.8564 1.907,5.1775c0.044,1.292 -0.278,2.5701 -0.929,3.6866c-0.611,0.9796 -1.561,1.6998 -2.668,2.0235c0.929,0.2788 1.726,0.8857 2.242,1.7082c0.442,0.77 0.696,1.962 0.762,3.5882l0.098,2.8674l0,0.0983c0.038,1.45 0.35,2.328 0.937,2.6338l0,0.7373l-5.455,0c-0.195,-0.3979 -0.333,-0.8212 -0.41,-1.2575c-0.103,-0.5886 -0.16,-1.1844 -0.172,-1.7818l-0.065,-2.552c-0.057,-1.4992 -0.34,-2.5137 -0.847,-3.0434c-0.508,-0.5298 -1.426,-0.792 -2.754,-0.7865l-5.268,0l0,9.4212l-4.976,0.0082zm4.976,-13.6321l5.853,0c1.268,0 2.206,-0.2581 2.803,-0.7742c0.598,-0.5161 0.892,-1.3272 0.892,-2.4331c0.032,-0.4378 -0.029,-0.8772 -0.18,-1.2895c-0.15,-0.4123 -0.386,-0.7881 -0.691,-1.1027c-0.577,-0.5448 -1.445,-0.8192 -2.595,-0.8192l-6.082,0l0,6.4187z"/>
  <path id="svg_72" fill="#2F80ED" d="m529.616,47.825316l5.03,0l0,15.1969c0,1.876 0.372,3.2414 1.117,4.0962c0.745,0.8547 1.927,1.2848 3.548,1.2903c1.637,0 2.84,-0.4097 3.593,-1.2821c0.753,-0.8725 1.126,-2.2284 1.126,-4.0962l0,-15.1969l4.976,0l0,15.7417c0,2.9711 -0.829,5.2513 -2.488,6.8406c-1.659,1.5893 -4.049,2.384 -7.17,2.384c-3.146,0 -5.554,-0.7919 -7.223,-2.3758c-1.67,-1.5839 -2.507,-3.8668 -2.509,-6.8488l0,-15.7499z"/>
  <path id="svg_73" fill="#2F80ED" d="m551.159,72.799821l0,-4.2068l13.162,-15.627l-12.896,0l0,-4.3911l18.949,0l0,4.215l-13.219,15.6352l12.899,0l0,4.3747l-18.895,0z"/>
  <path id="svg_74" fill="#2F80ED" d="m366.965,97.4567l2.607,0c-0.014,1.0072 -0.24,2.0001 -0.663,2.9143c-0.423,0.914 -1.034,1.728 -1.792,2.39c-1.531,1.314 -3.505,1.972 -5.922,1.975c-2.786,0 -4.969,-0.876 -6.549,-2.626c-1.579,-1.751 -2.369,-4.1727 -2.369,-7.2667c0,-2.8564 0.828,-5.1244 2.484,-6.8038c1.656,-1.6794 3.892,-2.5192 6.708,-2.5192c2.24,0 4.073,0.5326 5.5,1.5976c0.699,0.5089 1.281,1.1608 1.709,1.9122c0.427,0.7514 0.69,1.5852 0.771,2.4461l-2.644,0c-0.1,-0.5587 -0.309,-1.0921 -0.616,-1.5694c-0.307,-0.4773 -0.705,-0.8892 -1.172,-1.2119c-1.1,-0.6931 -2.385,-1.032 -3.683,-0.9708c-2.011,0 -3.568,0.6486 -4.67,1.9457c-1.102,1.2971 -1.656,3.1254 -1.661,5.4848c0,2.2283 0.575,4.0143 1.727,5.3574c0.56,0.661 1.263,1.186 2.056,1.536c0.792,0.35 1.654,0.515 2.519,0.484c1.457,0.06 2.883,-0.438 3.986,-1.393c0.518,-0.465 0.933,-1.033 1.221,-1.6662c0.288,-0.6337 0.442,-1.32 0.453,-2.0161z"/>
  <path id="svg_75" fill="#2F80ED" d="m369.85,104.228l7.367,-18.2366l2.967,0l7.367,18.2366l-2.918,0l-2.096,-5.4483l-7.776,0l-2.111,5.4483l-2.8,0zm5.73,-7.5783l6.167,0l-3.061,-8.0449l-3.106,8.0449z"/>
  <path id="svg_76" fill="#2F80ED" d="m391.377,88.6908l0,15.5372l-2.455,0l0,-18.2366l3.843,0l4.911,13.9517c0.144,0.3959 0.251,0.7029 0.319,0.9219c0.065,0.221 0.119,0.409 0.151,0.577c0.074,-0.307 0.144,-0.577 0.217,-0.819c0.074,-0.242 0.148,-0.463 0.229,-0.6799l5.079,-13.9517l3.855,0l0,18.2366l-2.615,0l0,-15.5372c-0.061,0.2622 -0.135,0.5284 -0.212,0.8192c-0.078,0.2909 -0.168,0.5325 -0.258,0.7988l-5.091,13.9272l-2.542,0l-4.972,-13.9272c-0.09,-0.2335 -0.168,-0.4793 -0.242,-0.7455c-0.074,-0.2663 -0.155,-0.5694 -0.217,-0.8725z"/>
  <path id="svg_77" fill="#2F80ED" d="m411.05,104.228l0,-18.2366l7.285,0c0.903,-0.0181 1.806,0.0353 2.701,0.1598c0.569,0.0947 1.121,0.2742 1.637,0.5325c0.79,0.3906 1.44,1.0176 1.858,1.7941c0.445,0.8596 0.666,1.8176 0.643,2.7854c0.02,0.9361 -0.201,1.8616 -0.643,2.6871c-0.44,0.7848 -1.093,1.4294 -1.883,1.8597c-0.522,0.279 -1.088,0.4687 -1.673,0.5612c-1.049,0.1361 -2.107,0.1922 -3.164,0.1679l-4.092,0l0,7.6889l-2.669,0zm2.689,-9.8927l4.502,0c1.567,0 2.66,-0.2293 3.274,-0.6922c0.614,-0.4629 0.933,-1.2534 0.933,-2.3799c0,-1.1265 -0.311,-1.8556 -0.929,-2.3266c-0.618,-0.4711 -1.637,-0.7046 -3.09,-0.7046l-4.678,0l-0.012,6.1033z"/>
  <path id="svg_78" fill="#2F80ED" d="m427.6,97.3051l0,-11.3137l2.685,0l0,11.3383c0,1.7122 0.409,2.9753 1.228,3.7893c0.818,0.813 2.089,1.223 3.81,1.229c1.703,0 2.973,-0.41 3.81,-1.229c0.839,-0.82 1.257,-2.0853 1.257,-3.7729l0,-11.3547l2.701,0l0,11.3137c0,2.4577 -0.682,4.3069 -2.046,5.5459c-1.365,1.24 -3.373,1.868 -6.025,1.885c-2.472,0 -4.327,-0.619 -5.566,-1.856c-1.238,-1.237 -1.856,-3.0953 -1.854,-5.5749z"/>
  <path id="svg_79" fill="#2F80ED" d="m445.62,98.2227l2.595,0c-0.011,0.5994 0.111,1.1938 0.359,1.74c0.247,0.5463 0.612,1.0303 1.069,1.4183c0.929,0.782 2.165,1.175 3.716,1.175c1.551,0 2.738,-0.299 3.622,-0.893c0.413,-0.253 0.753,-0.61 0.986,-1.035c0.232,-0.426 0.35,-0.9046 0.34,-1.3895c0,-1.3954 -1.658,-2.4563 -4.972,-3.1827l-0.459,-0.0983c-2.687,-0.5872 -4.461,-1.2412 -5.32,-1.9621c-0.437,-0.3793 -0.781,-0.8539 -1.006,-1.3872c-0.225,-0.5333 -0.325,-1.1111 -0.292,-1.6891c-0.019,-0.7615 0.148,-1.5162 0.485,-2.1991c0.337,-0.6829 0.835,-1.2735 1.451,-1.7209c1.288,-0.9886 3.004,-1.4815 5.149,-1.4787c2.182,0 3.901,0.5174 5.156,1.5524c0.622,0.5189 1.118,1.1732 1.449,1.9129c0.331,0.7396 0.49,1.5452 0.463,2.3553l-2.567,0c-0.012,-0.5382 -0.138,-1.0676 -0.371,-1.5529c-0.233,-0.4852 -0.567,-0.9152 -0.979,-1.2611c-0.819,-0.6513 -1.919,-0.9749 -3.327,-0.9749c-1.112,-0.0491 -2.212,0.2363 -3.16,0.8192c-0.364,0.2208 -0.664,0.5324 -0.871,0.9044c-0.208,0.372 -0.315,0.7915 -0.312,1.2174c0,1.4119 1.638,2.4646 4.912,3.1582l1.113,0.2458l0.282,0.0614c2.117,0.4615 3.521,0.9654 4.211,1.5115c0.523,0.3961 0.944,0.9115 1.228,1.5033c0.282,0.6195 0.422,1.294 0.409,1.9744c0.027,0.8137 -0.146,1.6213 -0.502,2.3533c-0.357,0.732 -0.887,1.365 -1.544,1.845c-1.364,1.041 -3.211,1.561 -5.541,1.561c-2.404,0 -4.274,-0.56 -5.611,-1.68c-1.337,-1.119 -2.057,-2.721 -2.161,-4.8043z"/>
  <path id="svg_80" fill="#2F80ED" d="m475.393,104.228l-7.047,-18.2366l2.783,0l5.697,15.2666l5.525,-15.2666l2.807,0l-6.957,18.2366l-2.808,0z"/>
  <path id="svg_81" fill="#2F80ED" d="m486.652,104.228l0,-18.2366l2.689,0l0,18.2366l-2.689,0z"/>
  <path id="svg_82" fill="#2F80ED" d="m492.979,85.9914l7.674,0c0.917,-0.0197 1.835,0.0296 2.746,0.1475c0.548,0.087 1.08,0.254 1.58,0.4956c0.793,0.3854 1.455,0.9967 1.903,1.7573c0.448,0.8098 0.673,1.7246 0.65,2.6502c0.026,0.8895 -0.213,1.7665 -0.687,2.5192c-0.506,0.736 -1.218,1.306 -2.047,1.6385c0.648,0.1254 1.23,0.4802 1.638,0.9994c0.321,0.4697 0.525,1.2671 0.609,2.3922l0.229,3.0067c0.014,0.492 0.106,0.979 0.275,1.442c0.116,0.296 0.34,0.537 0.626,0.676l0,0.508l-3.106,0c-0.249,-0.38 -0.423,-1.192 -0.524,-2.438l0,-0.077l-0.16,-2.3763c-0.09,-1.2288 -0.372,-2.0153 -0.847,-2.3758c-0.475,-0.3604 -1.662,-0.5448 -3.561,-0.5448l-4.338,0l0,7.8119l-2.66,0l0,-18.2326zm2.632,2.1423l0,6.1771l4.596,0c1.637,0 2.832,-0.2499 3.515,-0.7414c0.684,-0.4916 1.027,-1.3231 1.027,-2.4782c0,-1.0923 -0.322,-1.8556 -0.965,-2.2898c-0.644,-0.4342 -1.837,-0.6567 -3.577,-0.6677l-4.596,0z"/>
  <path id="svg_83" fill="#2F80ED" d="m514.932,104.228l0,-16.0205l-6.246,0l0,-2.2161l15.196,0l0,2.2161l-6.245,0l0,16.0205l-2.705,0z"/>
  <path id="svg_84" fill="#2F80ED" d="m525.478,97.3051l0,-11.3137l2.689,0l0,11.3383c0,1.7122 0.409,2.9753 1.228,3.7893c0.818,0.813 2.087,1.223 3.806,1.229c1.702,0 2.972,-0.41 3.81,-1.229c0.819,-0.82 1.256,-2.0853 1.256,-3.7729l0,-11.3547l2.702,0l0,11.3137c0,2.4577 -0.683,4.3069 -2.047,5.5459c-1.364,1.24 -3.373,1.868 -6.028,1.885c-2.472,0 -4.326,-0.619 -5.562,-1.856c-1.236,-1.237 -1.854,-3.0953 -1.854,-5.5749z"/>
  <path id="svg_85" fill="#2F80ED" d="m541.726,104.228l7.366,-18.2366l2.967,0l7.367,18.2366l-2.914,0l-2.099,-5.4483l-7.776,0l-2.112,5.4483l-2.799,0zm5.729,-7.5783l6.172,0l-3.066,-8.0449l-3.106,8.0449z"/>
  <path id="svg_86" fill="#2F80ED" d="m560.776,104.228l0,-18.2366l2.714,0l0,15.9346l9.863,0l0,2.302l-12.577,0z"/>
  <path stroke="null" id="svg_89" fill="#2F80ED" d="m416.28962,32.621527l0,-2.152587l-3.616863,0l0,-13.526469l-0.98293,0c0,0 0.112216,-0.960324 0,-1.074906c3.578587,-7.243405 -3.751114,-8.490193 -3.751114,-8.490193l-0.046519,-0.714795c0.161591,-0.134178 0.288987,-0.304534 0.371822,-0.497153c0.082917,-0.19262 0.118826,-0.402043 0.104953,-0.611157c-0.013874,-0.209105 -0.077205,-0.411984 -0.18485,-0.592051c-0.107564,-0.18006 -0.256424,-0.332208 -0.434255,-0.444008l-0.20811,-3.074692c0,0 0,-0.905766 -0.512031,-0.905766c-0.512031,0 -0.509256,0.736618 -0.509256,0.736618c0,0 -0.131395,1.696942 -0.260096,3.273849c-0.160775,0.11224 -0.294781,0.258252 -0.392715,0.427743c-0.097934,0.169483 -0.157347,0.358316 -0.174078,0.55318c-0.01673,0.194856 0.009712,0.390993 0.077368,0.574578c0.067656,0.183585 0.174894,0.350138 0.314205,0.487923c-0.013466,0.22493 -0.039092,0.448962 -0.076715,0.671141c-7.157092,2.264379 -3.690803,8.659301 -3.690803,8.659301l0,0.963098l-1.136278,0l0,13.641052l-3.748339,0l0,-9.565124l1.136278,-1.074906l0,-1.527769c-0.418749,-0.132048 -0.800936,-0.359254 -1.116447,-0.663666c-0.31551,-0.304493 -0.555693,-0.677784 -0.701615,-1.090576l-1.760525,0l-0.90899,1.074906l-6.023589,0l-0.966526,-1.017615l-1.760607,0l-0.966445,1.132198l-2.269863,0l-0.969219,-1.072213l-1.590773,0l-1.078824,1.02039l-6.023589,0l-1.023981,-1.132198l-1.533319,0c-0.165345,0.411649 -0.424625,0.779309 -0.757274,1.073845c-0.332649,0.294536 -0.729608,0.507869 -1.159293,0.623105l0,1.636884l1.193733,1.074906l0,9.450541l-3.748339,0l0,-13.581068l-1.253962,0l0,-1.091229c3.351299,-7.12883 -3.578587,-8.432918 -3.578587,-8.432918l-0.065697,-0.785724c0.134659,-0.138544 0.237653,-0.304485 0.301963,-0.486438c0.064228,-0.181953 0.088222,-0.375609 0.070268,-0.567666c-0.017955,-0.192057 -0.077449,-0.377976 -0.174241,-0.544978c-0.096873,-0.167002 -0.228921,-0.311144 -0.386921,-0.42252l-0.273807,-3.175638c0,0 -0.172527,-0.851201 -0.512031,-0.851201c-0.339504,0 -0.454495,0.851201 -0.454495,0.851201c0,0 -0.123234,1.596005 -0.24916,3.131984c-0.19293,0.120002 -0.352154,0.286816 -0.46277,0.48483c-0.110616,0.198014 -0.169009,0.420757 -0.169711,0.647376c0.005297,0.188229 0.050771,0.373169 0.133386,0.542513c0.082632,0.169352 0.200479,0.319224 0.345748,0.439642c-0.013221,0.229728 -0.040643,0.458412 -0.082101,0.684787c-7.157166,1.866131 -3.805843,8.659317 -3.805843,8.659317l0,0.960324l-1.147231,0l0,13.703811l-3.406076,0l0,1.980713l1.418287,1.132198l0,11.619451l-1.418287,0l0,1.811533l1.418287,1.189489l0,7.966353l-1.418287,0l0,1.980713l1.418287,1.238619l0,6.566796l-1.418287,2.545384l0,4.133219l66.05708,0l0,-4.185043l-1.368953,-2.376285l0,-6.847784l1.368953,-1.132198l0,-2.092603l-1.368953,0l0,-7.698993l1.368953,-1.186714l0,-2.095296l-1.368953,0l0,-11.488465l1.368953,-1.074906zm-2.034251,38.372223l-61.922775,0l0,-1.926115l1.369002,-2.092521l0,-34.299069l2.097312,0l0,-13.641052l1.13627,0l0,-3.950409c-0.651644,-0.622044 -0.917233,-1.49235 -0.917233,-2.455448c0,-0.90442 0.360585,-1.771869 1.002427,-2.411378c0.641851,-0.63959 1.512393,-0.998844 2.420078,-0.998844c0.907684,0 1.778235,0.359254 2.42011,0.998844c0.641794,0.639508 1.002435,1.506958 1.002435,2.411378c0,0.968566 -0.232756,1.838873 -0.884425,2.455448l0,3.904054l1.207444,0l0,13.695569l7.953948,0l0,-11.949488l-0.569486,-1.132279l1.30603,0.226472l22.550182,0l1.421021,-0.452863l-0.512031,1.364056l0,11.941409l7.940237,0l0,-13.641052l1.193814,0l0,-3.955877c-0.651669,-0.622044 -0.840599,-1.49235 -0.840599,-2.455448c0,-0.90442 0.36056,-1.771869 1.002435,-2.411378c0.641875,-0.63959 1.512345,-0.998844 2.420029,-0.998844c0.907766,0 1.778235,0.359254 2.42011,0.998844c0.641875,0.639508 1.002435,1.506958 1.002435,2.411378c0.009385,0.455474 -0.074348,0.908011 -0.246141,1.330187c-0.171874,0.422095 -0.428134,0.805017 -0.753193,1.125261l0,3.846763l1.248494,0l0,13.75286l2.102804,0l0,34.290908l1.418246,2.149813l0.011018,1.868824z"/>
 </g>
</svg>