<svg width="228" height="50" viewBox="0 0 228 50" fill="none" xmlns="http://www.w3.org/2000/svg">
<path d="M30.8346 19.9801V18.9753H29.1463V12.6613H28.6875C28.6875 12.6613 28.7399 12.2131 28.6875 12.1596C30.3579 8.77845 26.9365 8.19647 26.9365 8.19647L26.9148 7.86281C26.9902 7.80018 27.0497 7.72066 27.0884 7.63075C27.127 7.54083 27.1438 7.44308 27.1373 7.34547C27.1309 7.24786 27.1013 7.15316 27.0511 7.06911C27.0008 6.98505 26.9314 6.91403 26.8483 6.86185L26.7512 5.42662C26.7512 5.42662 26.7512 5.00382 26.5122 5.00382C26.2732 5.00382 26.2745 5.34766 26.2745 5.34766C26.2745 5.34766 26.2131 6.13978 26.1531 6.87585C26.078 6.92825 26.0155 6.99641 25.9697 7.07552C25.924 7.15463 25.8963 7.24278 25.8885 7.33374C25.8807 7.42469 25.893 7.51625 25.9246 7.60194C25.9562 7.68764 26.0062 7.76538 26.0713 7.8297C26.065 7.93469 26.053 8.03927 26.0355 8.14298C22.6946 9.19998 24.3126 12.185 24.3126 12.185V12.6346H23.7822V19.0021H22.0326V14.5372L22.563 14.0354V13.3223C22.3675 13.2606 22.1891 13.1546 22.0418 13.0125C21.8945 12.8704 21.7824 12.6961 21.7143 12.5034H20.8925L20.4682 13.0052H17.6565L17.2053 12.5302H16.3835L15.9324 13.0587H14.8728L14.4204 12.5582H13.6779L13.1743 13.0345H10.3626L9.88456 12.506H9.16884C9.09166 12.6981 8.97063 12.8698 8.81535 13.0072C8.66006 13.1447 8.47479 13.2443 8.2742 13.2981V14.0622L8.83143 14.5639V18.9753H7.08176V12.6359H6.49641V12.1265C8.06076 8.79883 4.82598 8.1901 4.82598 8.1901L4.7953 7.82333C4.85818 7.75866 4.90626 7.6812 4.93625 7.59627C4.96625 7.51134 4.97744 7.42094 4.96906 7.33129C4.96068 7.24164 4.93293 7.15486 4.88772 7.0769C4.8425 6.99895 4.78089 6.93167 4.70712 6.87968L4.57931 5.39733C4.57931 5.39733 4.49879 5 4.34031 5C4.18183 5 4.12815 5.39733 4.12815 5.39733C4.12815 5.39733 4.07064 6.14232 4.01185 6.8593C3.92179 6.91532 3.84747 6.99318 3.79583 7.08561C3.7442 7.17804 3.71694 7.28202 3.71661 7.3878C3.71909 7.47566 3.74031 7.56199 3.77888 7.64104C3.81744 7.72009 3.87246 7.79005 3.94028 7.84626C3.93408 7.95349 3.92128 8.06024 3.90193 8.1659C0.561071 9.03697 2.12542 12.208 2.12542 12.208V12.6562H1.58991V19.053H0V19.9775L0.662038 20.506V25.9299H0V26.7755L0.662038 27.3307V31.0493H0V31.9739L0.662038 32.552V35.6173L0 36.8055V38.7348H30.8346V36.7813L30.1956 35.6721V32.4756L30.8346 31.9471V30.9703H30.1956V27.3765L30.8346 26.8226V25.8445H30.1956V20.4819L30.8346 19.9801ZM29.885 37.8918H0.980277V36.9927L1.61931 36.0159V20.0056H2.59831V13.6381H3.12871V11.7941C2.82453 11.5037 2.70055 11.0975 2.70055 10.6479C2.70055 10.2258 2.86887 9.82085 3.16847 9.52232C3.46808 9.22379 3.87443 9.05607 4.29814 9.05607C4.72184 9.05607 5.12819 9.22379 5.4278 9.52232C5.7274 9.82085 5.89572 10.2258 5.89572 10.6479C5.89572 11.1 5.78708 11.5063 5.4829 11.7941V13.6165H6.04653V20.0094H9.75931V14.4315L9.49347 13.903L10.1031 14.0087H20.6293L21.2926 13.7973L21.0536 14.434V20.0081H24.76V13.6406H25.3172V11.7941C25.013 11.5037 24.9248 11.0975 24.9248 10.6479C24.9248 10.2258 25.0932 9.82085 25.3928 9.52232C25.6924 9.22379 26.0987 9.05607 26.5224 9.05607C26.9461 9.05607 27.3525 9.22379 27.6521 9.52232C27.9517 9.82085 28.12 10.2258 28.12 10.6479C28.1244 10.8605 28.0853 11.0718 28.0051 11.2688C27.9249 11.4659 27.8053 11.6446 27.6535 11.7941V13.5897H28.2363V20.0094H29.2179V36.0159L29.8799 37.0194L29.885 37.8918Z" fill="white"/>
<path d="M33.0533 31.6326V28.1266H35.5085V28.7315H33.7678V29.5262H35.2938V30.1349H33.7678V31.6275L33.0533 31.6326Z" fill="white"/>
<path d="M36.0044 31.6326V28.1266H36.7278V31.6326H36.0044Z" fill="white"/>
<path d="M37.3297 29.8777C37.3297 29.3123 37.4844 28.8631 37.7937 28.5303C38.1319 28.2093 38.581 28.0303 39.0481 28.0303C39.5152 28.0303 39.9643 28.2093 40.3025 28.5303C40.6127 28.8631 40.7682 29.3118 40.769 29.8764C40.7699 30.441 40.6144 30.8901 40.3025 31.2238C39.9645 31.5451 39.5153 31.7243 39.0481 31.7243C38.5809 31.7243 38.1317 31.5451 37.7937 31.2238C37.4844 30.8961 37.3297 30.4474 37.3297 29.8777ZM38.0672 29.8777C38.0466 30.1977 38.1368 30.5151 38.3228 30.7768C38.4097 30.8826 38.5202 30.9667 38.6457 31.0222C38.7711 31.0778 38.9078 31.1032 39.0449 31.0964C39.1829 31.1034 39.3207 31.0781 39.4472 31.0226C39.5736 30.9671 39.6854 30.8829 39.7734 30.7768C39.943 30.5076 40.0329 30.1962 40.0329 29.8783C40.0329 29.5605 39.943 29.2491 39.7734 28.9799C39.6812 28.879 39.5687 28.7985 39.4433 28.7437C39.3179 28.6888 39.1824 28.6607 39.0454 28.6613C38.9084 28.6619 38.7731 28.6912 38.6482 28.7471C38.5233 28.8031 38.4116 28.8846 38.3202 28.9862C38.1541 29.1964 38.0646 29.4956 38.0646 29.8777H38.0672Z" fill="white"/>
<path d="M44.4051 30.4278C44.3993 30.6097 44.3551 30.7883 44.2754 30.952C44.1956 31.1157 44.0822 31.2608 43.9424 31.3779C43.6303 31.6237 43.2395 31.749 42.842 31.7306C42.3214 31.7306 41.9167 31.5685 41.6279 31.2441C41.339 30.9198 41.1946 30.4643 41.1946 29.8777C41.1946 29.2834 41.342 28.8266 41.6368 28.5074C41.9316 28.1882 42.3551 28.0294 42.9072 28.0311C43.3554 28.0311 43.7103 28.1402 43.9718 28.3584C44.1041 28.4741 44.2106 28.6162 44.2843 28.7755C44.3581 28.9347 44.3975 29.1076 44.4 29.283H43.6881C43.6699 29.106 43.5827 28.9432 43.4453 28.8296C43.2898 28.7185 43.1008 28.6637 42.9098 28.6742C42.7731 28.6652 42.6362 28.6883 42.5102 28.7416C42.3841 28.7949 42.2723 28.877 42.1838 28.9811C42.0177 29.1849 41.9346 29.4821 41.9346 29.8726C41.9346 30.2546 42.0177 30.5488 42.1826 30.7564C42.3368 30.927 42.5481 31.0358 42.7771 31.0623C43.006 31.0888 43.2368 31.0312 43.4261 30.9003C43.572 30.7771 43.6686 30.6058 43.6983 30.4176L44.4051 30.4278Z" fill="white"/>
<path d="M44.9828 31.6326V28.1266H46.689C47.0724 28.1266 47.3566 28.2086 47.5415 28.3724C47.7255 28.5354 47.8188 28.785 47.8188 29.1212C47.8255 29.3091 47.7785 29.495 47.6833 29.6574C47.5957 29.7984 47.4594 29.9026 47.2999 29.9503C47.4353 29.99 47.5513 30.0779 47.6258 30.1973C47.703 30.3591 47.7411 30.5366 47.737 30.7156L47.7524 31.1308V31.1512C47.7524 31.36 47.8022 31.4874 47.8878 31.5332V31.6402H47.0954C47.0667 31.5828 47.0469 31.5214 47.0366 31.4581C47.0219 31.3739 47.0133 31.2888 47.0111 31.2034L47.0021 30.8354C47.0114 30.6782 46.9663 30.5227 46.8743 30.3947C46.7613 30.3056 46.6176 30.2644 46.4743 30.2801H45.7075V31.644L44.9828 31.6326ZM45.7062 29.6599H46.5574C46.7019 29.6715 46.8458 29.6318 46.9638 29.5478C47.0098 29.502 47.045 29.4466 47.0671 29.3857C47.0892 29.3247 47.0976 29.2596 47.0916 29.1951C47.0959 29.1317 47.0867 29.068 47.0647 29.0084C47.0427 28.9487 47.0083 28.8943 46.9638 28.8487C46.856 28.7618 46.7186 28.7198 46.5804 28.7315H45.696L45.7062 29.6599Z" fill="white"/>
<path d="M48.454 28.1177H49.1838V30.317C49.1655 30.5278 49.2231 30.7381 49.3461 30.9105C49.4125 30.9769 49.4927 31.028 49.581 31.0603C49.6693 31.0927 49.7636 31.1054 49.8573 31.0977C49.9528 31.1061 50.0489 31.0938 50.1391 31.0617C50.2293 31.0296 50.3115 30.9785 50.3801 30.9118C50.5039 30.7392 50.5619 30.5284 50.5437 30.317V28.1177H51.267V30.3947C51.267 30.8252 51.1465 31.1554 50.9053 31.3855C50.6638 31.6147 50.3162 31.7306 49.8624 31.7306C49.4087 31.7306 49.056 31.616 48.8132 31.3868C48.5703 31.1575 48.4489 30.8264 48.4489 30.3947L48.454 28.1177Z" fill="white"/>
<path d="M51.7067 31.6326V31.0238L53.6238 28.7621H51.7399V28.1254H54.4942V28.7315L52.5771 30.9945H54.4533V31.6313L51.7067 31.6326Z" fill="white"/>
<path d="M33.4176 9.50816V5.57562H34.2036L35.1379 8.35565C35.2231 8.61545 35.2861 8.80944 35.327 8.93764C35.3722 8.79501 35.442 8.58488 35.5366 8.30726L36.4811 5.5718H37.184V9.50816H36.6805V6.21619L35.5302 9.50816H35.0586L33.9173 6.16015V9.50816H33.4176Z" fill="white"/>
<path d="M37.9675 6.13086V5.57562H38.448V6.13086H37.9675ZM37.9675 9.50816V6.65936H38.448V9.50816H37.9675Z" fill="white"/>
<path d="M39.1893 9.50816V6.65936H39.6264V7.06433C39.7232 6.91314 39.8583 6.79006 40.0181 6.70755C40.1778 6.62504 40.3566 6.58601 40.5364 6.59441C40.6992 6.59247 40.8606 6.62412 41.0106 6.68738C41.1391 6.7367 41.2514 6.82044 41.3352 6.92934C41.41 7.0368 41.4614 7.15871 41.486 7.28719C41.5083 7.44237 41.5173 7.59915 41.5128 7.75584V9.50816H41.0285V7.77494C41.0349 7.62595 41.0159 7.47695 40.9722 7.33431C40.9337 7.23596 40.863 7.15341 40.7716 7.09999C40.6693 7.04054 40.5525 7.01056 40.4342 7.01339C40.2373 7.00963 40.0462 7.07961 39.8987 7.20951C39.7491 7.33686 39.675 7.59156 39.675 7.95196V9.50816H39.1893Z" fill="white"/>
<path d="M42.2592 6.13086V5.57562H42.7436V6.13086H42.2592ZM42.2592 9.50816V6.65936H42.7436V9.50816H42.2592Z" fill="white"/>
<path d="M43.2868 8.65747L43.7661 8.58234C43.782 8.75204 43.8625 8.90924 43.991 9.02169C44.1379 9.13153 44.3189 9.18611 44.5022 9.17578C44.678 9.18938 44.853 9.14116 44.9969 9.03952C45.0461 9.00234 45.0862 8.95446 45.1141 8.89951C45.142 8.84456 45.157 8.784 45.1579 8.72242C45.1583 8.67137 45.1455 8.62108 45.1207 8.57644C45.0958 8.5318 45.0597 8.49434 45.016 8.46772C44.858 8.39356 44.6915 8.33882 44.5201 8.30471C44.2677 8.2487 44.0205 8.17116 43.7814 8.07294C43.6532 8.01459 43.5449 7.92034 43.4696 7.80168C43.3987 7.68685 43.362 7.55441 43.3635 7.41964C43.362 7.29662 43.3919 7.17525 43.4504 7.06688C43.5074 6.95855 43.5887 6.86484 43.6881 6.79308C43.7828 6.72942 43.8872 6.68167 43.9974 6.65172C44.1332 6.61267 44.274 6.59337 44.4153 6.59441C44.6165 6.59017 44.8166 6.62298 45.0058 6.6912C45.1529 6.73852 45.2833 6.82692 45.3815 6.9459C45.4709 7.07831 45.5282 7.22958 45.549 7.3878L45.0748 7.45147C45.0598 7.3174 44.9929 7.19447 44.8882 7.1089C44.7611 7.01765 44.6063 6.9727 44.4498 6.98155C44.2837 6.96741 44.1174 7.00572 43.9744 7.09108C43.932 7.11915 43.8968 7.1569 43.8719 7.20119C43.8471 7.24548 43.8331 7.29504 43.8313 7.34577C43.8306 7.40692 43.8514 7.46638 43.89 7.51388C43.9394 7.57246 44.004 7.61649 44.0766 7.64122C44.1252 7.65905 44.2671 7.70108 44.5048 7.76857C44.7486 7.83192 44.988 7.91061 45.2218 8.00417C45.3503 8.05734 45.461 8.14564 45.5413 8.25887C45.6216 8.38171 45.6618 8.52627 45.6563 8.67275C45.6557 8.83482 45.6067 8.99305 45.5157 9.12739C45.4144 9.27455 45.2723 9.38916 45.1068 9.45723C44.9164 9.53719 44.7114 9.57666 44.5048 9.57311C44.1325 9.57311 43.8491 9.49628 43.6549 9.34261C43.4508 9.16789 43.3196 8.92356 43.2868 8.65747Z" fill="white"/>
<path d="M47.2961 9.07645L47.3651 9.50307C47.245 9.52932 47.1225 9.5434 46.9996 9.5451C46.8584 9.55246 46.7177 9.52398 46.5906 9.46232C46.5003 9.41353 46.4284 9.33659 46.3861 9.24328C46.3342 9.05822 46.3139 8.86579 46.326 8.67403V7.03504H45.9707V6.65299H46.326V5.95385L46.8079 5.66349V6.65936H47.2961V7.04141H46.8079V8.70077C46.8024 8.78985 46.811 8.87924 46.8334 8.96566C46.851 9.00504 46.8805 9.03797 46.9178 9.0599C46.9687 9.08567 47.0256 9.09753 47.0827 9.09428C47.1541 9.09267 47.2254 9.08672 47.2961 9.07645Z" fill="white"/>
<path d="M49.727 8.58998L50.228 8.65238C50.1629 8.92174 50.0078 9.16107 49.7883 9.33115C49.5499 9.49934 49.2622 9.58399 48.9704 9.57184C48.787 9.58154 48.6036 9.55252 48.4322 9.48668C48.2609 9.42084 48.1054 9.31967 47.976 9.18979C47.7306 8.93509 47.6079 8.57512 47.6079 8.10987C47.6079 7.63104 47.7319 7.25918 47.9799 6.99429C48.1025 6.8631 48.252 6.75972 48.4183 6.69117C48.5846 6.62261 48.7637 6.59048 48.9435 6.59696C49.1186 6.59121 49.2928 6.62303 49.4545 6.69027C49.6161 6.7575 49.7613 6.85858 49.8803 6.98665C50.1219 7.24135 50.2433 7.61066 50.2433 8.08058C50.2433 8.1086 50.2433 8.15189 50.2433 8.20793H48.1089C48.1078 8.47183 48.2022 8.7273 48.3748 8.92745C48.4509 9.00946 48.5435 9.07455 48.6466 9.11844C48.7496 9.16233 48.8608 9.18404 48.9729 9.18215C49.1359 9.18659 49.2958 9.13735 49.4279 9.04207C49.5702 8.92407 49.6742 8.76677 49.727 8.58998ZM48.1358 7.80932H49.7321C49.7264 7.61562 49.6628 7.42802 49.5493 7.27064C49.4776 7.18112 49.386 7.10937 49.2818 7.06099C49.1776 7.0126 49.0636 6.9889 48.9486 6.99174C48.8452 6.98844 48.7422 7.00603 48.6457 7.04346C48.5493 7.08088 48.4615 7.13737 48.3876 7.20951C48.2292 7.36965 48.139 7.58453 48.1358 7.80932ZM48.6572 6.30533L49.0164 5.55397H49.6554L49.056 6.30533H48.6572Z" fill="white"/>
<path d="M50.8299 9.50816V6.65936H51.267V7.09108C51.3395 6.93716 51.4446 6.80073 51.5751 6.6912C51.666 6.62762 51.7745 6.59379 51.8856 6.59441C52.0631 6.59883 52.2357 6.65265 52.3841 6.74978L52.2166 7.19805C52.11 7.13163 51.9871 7.09552 51.8613 7.09362C51.7583 7.09266 51.6579 7.1263 51.5763 7.18913C51.4899 7.25589 51.4268 7.34815 51.3961 7.45275C51.3404 7.63559 51.3128 7.82581 51.3143 8.0169V9.50816H50.8299Z" fill="white"/>
<path d="M52.6742 6.13086V5.57562H53.1586V6.13086H52.6742ZM52.6742 9.50816V6.65936H53.1586V9.50816H52.6742Z" fill="white"/>
<path d="M53.7158 8.08313C53.7158 7.5559 53.8632 7.16536 54.158 6.91151C54.4068 6.69955 54.7254 6.58663 55.0527 6.59441C55.2312 6.58745 55.4092 6.61785 55.5751 6.68366C55.7411 6.74946 55.8914 6.84921 56.0163 6.97646C56.2719 7.23116 56.3908 7.58774 56.3908 8.0411C56.405 8.33825 56.3485 8.63453 56.2259 8.9058C56.118 9.11311 55.9501 9.28344 55.7441 9.39482C55.536 9.51091 55.3014 9.57186 55.0629 9.57184C54.8833 9.5797 54.7041 9.54974 54.537 9.48391C54.3698 9.41808 54.2185 9.31786 54.0928 9.18979C53.8423 8.9334 53.7167 8.56451 53.7158 8.08313ZM54.2143 8.08313C54.2143 8.44862 54.2948 8.71987 54.4545 8.90326C54.5293 8.98906 54.6217 9.05788 54.7254 9.10503C54.8291 9.15219 54.9418 9.1766 55.0559 9.1766C55.1699 9.1766 55.2826 9.15219 55.3863 9.10503C55.4901 9.05788 55.5825 8.98906 55.6572 8.90326C55.8174 8.71987 55.8975 8.44183 55.8975 8.06912C55.8975 7.71594 55.817 7.44893 55.6559 7.26809C55.5811 7.18268 55.4887 7.11423 55.3851 7.06732C55.2815 7.02041 55.169 6.99615 55.0552 6.99615C54.9414 6.99615 54.8289 7.02041 54.7253 7.06732C54.6217 7.11423 54.5294 7.18268 54.4545 7.26809C54.2952 7.44723 54.2151 7.71891 54.2143 8.08313Z" fill="white"/>
<path d="M60.3503 9.50816V9.14777C60.2669 9.28303 60.1487 9.39366 60.0081 9.46821C59.8674 9.54276 59.7094 9.57854 59.5502 9.57184C59.3266 9.57296 59.1077 9.5078 58.9214 9.38464C58.7276 9.2563 58.5739 9.07625 58.4779 8.86505C58.3681 8.62187 58.3139 8.35738 58.3194 8.09077C58.3163 7.82628 58.3649 7.56373 58.4626 7.31776C58.5464 7.09718 58.6986 6.90895 58.8971 6.78034C59.0871 6.65696 59.3094 6.59227 59.5361 6.59441C59.6961 6.59187 59.8543 6.62907 59.9962 6.70266C60.1263 6.77073 60.2387 6.86794 60.3247 6.98665V5.57562H60.8065V9.50816H60.3503ZM58.8166 8.08567C58.8166 8.45159 58.8937 8.72454 59.0479 8.90453C59.1125 8.98812 59.1953 9.05599 59.29 9.10298C59.3848 9.14998 59.4891 9.17487 59.5949 9.17578C59.6983 9.17662 59.8005 9.15415 59.8939 9.11004C59.9873 9.06593 60.0695 9.00133 60.1343 8.92108C60.2825 8.75129 60.3566 8.4881 60.3566 8.13152C60.3566 7.74183 60.2812 7.45572 60.1304 7.27318C60.0652 7.18769 59.9808 7.11846 59.8841 7.07095C59.7874 7.02343 59.681 6.99894 59.5732 6.99938C59.469 6.99839 59.3661 7.02158 59.2724 7.06712C59.1788 7.11265 59.0971 7.17928 59.0338 7.26172C58.8907 7.43407 58.8187 7.70872 58.8179 8.08567H58.8166Z" fill="white"/>
<path d="M63.4266 9.15668C63.2732 9.29194 63.0982 9.40082 62.9089 9.47887C62.738 9.54183 62.557 9.57333 62.3747 9.57184C62.1128 9.58927 61.8539 9.50738 61.6501 9.34261C61.5671 9.26951 61.5012 9.17917 61.457 9.07796C61.4129 8.97675 61.3915 8.86713 61.3944 8.7568C61.3946 8.62744 61.4265 8.50009 61.4873 8.38579C61.5481 8.2715 61.636 8.17372 61.7434 8.10096C61.8497 8.0279 61.9677 7.97323 62.0923 7.93922C62.2341 7.90572 62.378 7.88147 62.523 7.86663C62.8162 7.83969 63.1061 7.7838 63.3882 7.6998C63.3882 7.63358 63.3882 7.59156 63.3882 7.57246C63.3962 7.49745 63.388 7.42162 63.3642 7.35002C63.3404 7.27842 63.3015 7.21272 63.2502 7.1573C63.0926 7.03698 62.8961 6.97852 62.6981 6.99302C62.5193 6.97832 62.3404 7.02021 62.1868 7.11272C62.0605 7.2221 61.9757 7.37134 61.9466 7.53552L61.4724 7.47058C61.5042 7.2932 61.5773 7.12572 61.6858 6.98155C61.8009 6.84852 61.9516 6.7509 62.1204 6.70011C62.3295 6.63004 62.549 6.59602 62.7696 6.59951C62.9717 6.59327 63.1733 6.62259 63.3652 6.6861C63.494 6.72775 63.6098 6.80189 63.7014 6.90132C63.7773 6.99726 63.829 7.10993 63.8522 7.22989C63.8727 7.37753 63.8808 7.52662 63.8764 7.67561V8.31872C63.869 8.60307 63.8792 8.8876 63.9071 9.17069C63.9295 9.29138 63.9728 9.40728 64.0349 9.51326H63.5237C63.4701 9.40118 63.4372 9.28039 63.4266 9.15668ZM63.3869 8.07803C63.1306 8.16862 62.8648 8.22972 62.5945 8.26014C62.4506 8.27582 62.3091 8.30831 62.1728 8.35693C62.0945 8.38869 62.0277 8.44329 61.9811 8.51357C61.9255 8.59961 61.9029 8.70272 61.9175 8.804C61.932 8.90528 61.9828 8.99794 62.0603 9.06499C62.183 9.15843 62.3358 9.20375 62.4897 9.19234C62.6642 9.19391 62.836 9.15 62.9882 9.06499C63.1274 8.99024 63.2393 8.87343 63.3077 8.73133C63.3684 8.57793 63.3954 8.41336 63.3869 8.24868V8.07803Z" fill="white"/>
<path d="M66.044 8.24486L66.5361 8.20156C66.5511 8.37337 66.6067 8.5392 66.6984 8.68549C66.7989 8.82308 66.9368 8.92914 67.0959 8.99113C67.2876 9.0714 67.4938 9.1113 67.7017 9.10829C67.8817 9.11188 68.0608 9.08164 68.2295 9.01914C68.3642 8.97349 68.4825 8.88934 68.5695 8.77718C68.6429 8.67988 68.6823 8.5614 68.682 8.4397C68.6842 8.32323 68.6463 8.20952 68.5746 8.11751C68.4789 8.00931 68.3558 7.9288 68.218 7.88446C67.9876 7.80876 67.7534 7.745 67.5164 7.69344C67.2523 7.64053 66.995 7.55808 66.7495 7.44765C66.5788 7.36548 66.4331 7.23929 66.3278 7.08216C66.2352 6.93539 66.1868 6.76522 66.1885 6.59187C66.1889 6.39373 66.248 6.20013 66.3584 6.03535C66.4795 5.85677 66.6526 5.71944 66.8543 5.64184C67.0847 5.5525 67.3305 5.50923 67.5777 5.51449C67.8432 5.50696 68.1075 5.55287 68.3548 5.64948C68.5634 5.73262 68.7416 5.87696 68.866 6.06337C68.9871 6.24821 69.0543 6.4629 69.0603 6.68356L68.5593 6.72049C68.5538 6.6132 68.5268 6.50809 68.4798 6.4114C68.4328 6.31471 68.3669 6.2284 68.2858 6.15761C68.0857 6.0165 67.8427 5.94898 67.5982 5.96658C67.2825 5.96658 67.0524 6.02516 66.908 6.13978C66.8414 6.18753 66.7871 6.25023 66.7493 6.32279C66.7116 6.39536 66.6915 6.47575 66.6907 6.55748C66.689 6.6233 66.7019 6.68868 66.7284 6.74899C66.7549 6.8093 66.7944 6.86305 66.8441 6.90642C66.9451 6.99684 67.2071 7.09108 67.6327 7.18659C67.9307 7.2452 68.2229 7.33045 68.5056 7.44129C68.7106 7.5243 68.8878 7.66337 69.0168 7.84244C69.1278 8.00763 69.1853 8.20274 69.1817 8.4015C69.1824 8.61146 69.1211 8.81698 69.0053 8.9924C68.8761 9.18227 68.6946 9.33087 68.4826 9.42029C68.2434 9.52623 67.9839 9.57882 67.7221 9.57439C67.4164 9.58364 67.112 9.53077 66.8275 9.41902C66.5954 9.32313 66.3974 9.16039 66.2588 8.95165C66.1215 8.74104 66.0471 8.49595 66.044 8.24486Z" fill="white"/>
<path d="M71.702 9.15668C71.5486 9.29194 71.3737 9.40082 71.1844 9.47887C71.0135 9.54183 70.8325 9.57333 70.6502 9.57184C70.3883 9.58927 70.1294 9.50738 69.9255 9.34261C69.8425 9.26951 69.7767 9.17917 69.7325 9.07796C69.6883 8.97675 69.667 8.86713 69.6699 8.7568C69.6698 8.62767 69.7013 8.50046 69.7617 8.38618C69.822 8.27191 69.9094 8.17401 70.0163 8.10096C70.1225 8.02938 70.24 7.976 70.3639 7.94304C70.5057 7.90954 70.6496 7.88529 70.7946 7.87045C71.0879 7.84351 71.3777 7.78762 71.6599 7.70363C71.6599 7.6374 71.6599 7.59538 71.6599 7.57628C71.6678 7.50127 71.6597 7.42544 71.6358 7.35384C71.612 7.28225 71.5732 7.21654 71.5218 7.16112C71.3642 7.0408 71.1677 6.98234 70.9697 6.99684C70.7909 6.98214 70.612 7.02403 70.4585 7.11654C70.3322 7.22592 70.2474 7.37516 70.2182 7.53934L69.7607 7.47185C69.7925 7.29447 69.8656 7.12699 69.9741 6.98283C70.0866 6.85072 70.234 6.75276 70.3997 6.70011C70.6088 6.63004 70.8284 6.59602 71.049 6.59951C71.251 6.59327 71.4526 6.62259 71.6445 6.6861C71.7733 6.72775 71.8891 6.80189 71.9807 6.90132C72.0566 6.99726 72.1083 7.10993 72.1315 7.22989C72.152 7.37753 72.1601 7.52662 72.1557 7.67561V8.31872C72.1483 8.60307 72.1586 8.8876 72.1864 9.17069C72.2088 9.29138 72.2521 9.40728 72.3142 9.51326H71.803C71.7481 9.40143 71.7139 9.28063 71.702 9.15668ZM71.6624 8.07803C71.4061 8.16862 71.1403 8.22972 70.87 8.26014C70.7261 8.27582 70.5845 8.30831 70.4483 8.35693C70.37 8.38869 70.3031 8.44329 70.2565 8.51357C70.201 8.59961 70.1784 8.70272 70.193 8.804C70.2075 8.90528 70.2582 8.99794 70.3358 9.06499C70.4584 9.15843 70.6112 9.20375 70.7652 9.19234C70.9397 9.19391 71.1115 9.15 71.2637 9.06499C71.4029 8.99024 71.5148 8.87343 71.5832 8.73133C71.6439 8.57793 71.6709 8.41336 71.6624 8.24868V8.07803Z" fill="white"/>
<path d="M74.7771 9.50816V9.08919C74.6802 9.24058 74.5458 9.36453 74.3869 9.44907C74.2279 9.53362 74.0498 9.5759 73.8696 9.57184C73.7069 9.57327 73.5457 9.54028 73.3968 9.47505C73.2687 9.42426 73.1563 9.34082 73.0708 9.23309C72.9964 9.12558 72.9454 9.00366 72.9213 8.87524C72.898 8.72615 72.8882 8.57527 72.8919 8.42442V6.65936H73.3763V8.23849C73.371 8.40882 73.3809 8.57928 73.4057 8.74789C73.4306 8.86742 73.4977 8.97407 73.5949 9.04843C73.7023 9.12288 73.8309 9.16084 73.9617 9.15668C74.1057 9.15705 74.2471 9.11831 74.3706 9.04461C74.4949 8.97684 74.592 8.86845 74.6454 8.7377C74.7073 8.55892 74.7346 8.37009 74.7259 8.18119V6.65299H75.2103V9.50816H74.7771ZM73.7546 6.30533L74.1137 5.55397H74.7528L74.1598 6.30533H73.7546Z" fill="white"/>
<path d="M77.824 9.50816V9.14777C77.7406 9.28303 77.6225 9.39366 77.4818 9.46821C77.3412 9.54276 77.1831 9.57854 77.0239 9.57184C76.8007 9.57317 76.5821 9.50798 76.3964 9.38464C76.2019 9.25668 76.0477 9.07656 75.9516 8.86505C75.8428 8.62158 75.7892 8.35723 75.7944 8.09077C75.7909 7.82637 75.8391 7.56381 75.9363 7.31776C76.0199 7.10021 76.1695 6.9141 76.3644 6.78544C76.5544 6.66205 76.7767 6.59737 77.0034 6.59951C77.1569 6.59651 77.3088 6.63063 77.4462 6.69894C77.5835 6.76726 77.7022 6.86773 77.792 6.99174V5.57562H78.2738V9.50816H77.824ZM76.2903 8.08567C76.2903 8.45159 76.3678 8.72454 76.5229 8.90453C76.5872 8.98809 76.6698 9.05596 76.7643 9.10296C76.8589 9.14996 76.963 9.17487 77.0686 9.17578C77.1722 9.17672 77.2746 9.1543 77.3682 9.11019C77.4619 9.06608 77.5443 9.00143 77.6093 8.92108C77.7567 8.75129 77.8304 8.4881 77.8304 8.13152C77.8304 7.74183 77.755 7.45572 77.6041 7.27318C77.5393 7.18658 77.455 7.11627 77.358 7.06785C77.2611 7.01943 77.1541 6.99424 77.0456 6.99429C76.9415 6.9935 76.8386 7.01677 76.745 7.06229C76.6514 7.10781 76.5697 7.17433 76.5063 7.25663C76.364 7.43237 76.2924 7.70872 76.2916 8.08567H76.2903Z" fill="white"/>
<path d="M80.9923 8.58998L81.4933 8.65238C81.4286 8.9216 81.274 9.16094 81.0549 9.33115C80.8174 9.49827 80.5313 9.58285 80.2408 9.57184C80.0574 9.58146 79.874 9.5524 79.7027 9.48657C79.5314 9.42073 79.3759 9.3196 79.2465 9.18979C79.0011 8.93509 78.8797 8.57342 78.8797 8.10987C78.8797 7.64632 79.0075 7.25918 79.2503 6.99429C79.373 6.86323 79.5226 6.75994 79.6888 6.6914C79.8551 6.62286 80.0341 6.59065 80.214 6.59696C80.389 6.59113 80.5633 6.62291 80.725 6.69015C80.8866 6.75739 81.0318 6.85851 81.1508 6.98665C81.3936 7.24135 81.515 7.61066 81.515 8.08058C81.515 8.1086 81.515 8.1519 81.515 8.20793H79.3743C79.3734 8.47199 79.4683 8.72749 79.6414 8.92745C79.7173 9.0093 79.8097 9.07429 79.9126 9.11818C80.0154 9.16206 80.1264 9.18386 80.2382 9.18215C80.4013 9.18678 80.5612 9.13753 80.6932 9.04207C80.8363 8.9248 80.9406 8.76723 80.9923 8.58998ZM79.4011 7.80933H80.9974C80.993 7.61541 80.9292 7.42747 80.8146 7.27064C80.743 7.18098 80.6515 7.10911 80.5473 7.06072C80.443 7.01232 80.3289 6.98871 80.214 6.99174C80.1105 6.98844 80.0075 7.00603 79.9111 7.04346C79.8147 7.08088 79.7268 7.13737 79.6529 7.20951C79.4955 7.37031 79.4055 7.58477 79.4011 7.80933Z" fill="white"/>
<path d="M33.3792 44.938V41.711H35.5647V42.093H33.8087V43.0927H35.3283V43.4748H33.8087V44.9406L33.3792 44.938Z" fill="white"/>
<path d="M36.0721 42.1669V41.711H36.4696V42.1669H36.0721ZM36.0721 44.938V42.6012H36.4696V44.938H36.0721Z" fill="white"/>
<path d="M36.9271 43.7689C36.9271 43.336 37.0486 43.0163 37.2901 42.8075C37.4959 42.6347 37.7586 42.5439 38.0276 42.5528C38.1741 42.5476 38.3201 42.573 38.4563 42.6271C38.5925 42.6813 38.7159 42.7631 38.8187 42.8673C38.925 42.9854 39.0069 43.1232 39.0596 43.2729C39.1122 43.4227 39.1346 43.5813 39.1254 43.7397C39.1366 43.9838 39.0902 44.2272 38.9899 44.4503C38.9011 44.6205 38.7631 44.7602 38.5937 44.8514C38.4205 44.9467 38.2255 44.9958 38.0276 44.994C37.8801 45.0002 37.733 44.9754 37.5959 44.9212C37.4587 44.867 37.3345 44.7846 37.2313 44.6795C37.0281 44.4668 36.9271 44.1637 36.9271 43.7689ZM37.3361 43.7689C37.3176 44.0095 37.3876 44.2485 37.533 44.4413C37.5941 44.512 37.6699 44.5686 37.755 44.6074C37.8401 44.6462 37.9327 44.6663 38.0263 44.6663C38.1199 44.6663 38.2124 44.6462 38.2976 44.6074C38.3827 44.5686 38.4584 44.512 38.5196 44.4413C38.6508 44.2928 38.7164 44.0648 38.7164 43.7575C38.7333 43.5217 38.6628 43.2879 38.5183 43.1004C38.4568 43.0305 38.381 42.9746 38.2961 42.9362C38.2111 42.8979 38.1189 42.8781 38.0256 42.8781C37.9324 42.8781 37.8402 42.8979 37.7552 42.9362C37.6703 42.9746 37.5945 43.0305 37.533 43.1004C37.388 43.292 37.318 43.5297 37.3361 43.7689Z" fill="white"/>
<path d="M41.1218 44.0822L41.5128 44.1319C41.485 44.3769 41.3681 44.6034 41.1844 44.7686C41.0042 44.9219 40.7732 45.0027 40.5364 44.9953C40.3923 45.0012 40.2487 44.9763 40.1151 44.9223C39.9815 44.8683 39.8611 44.7863 39.7619 44.682C39.5676 44.4732 39.4692 44.1726 39.4692 43.783C39.4648 43.5557 39.5083 43.3301 39.597 43.1207C39.6733 42.9401 39.8084 42.7903 39.9804 42.6954C40.1514 42.6001 40.3444 42.551 40.5402 42.5528C40.7646 42.543 40.9854 42.611 41.1652 42.7451C41.3331 42.8833 41.4441 43.0782 41.4771 43.2927L41.0936 43.3512C41.0688 43.2152 41.0001 43.0909 40.8981 42.9972C40.8033 42.9182 40.683 42.8762 40.5594 42.8788C40.4672 42.8758 40.3754 42.8935 40.2909 42.9305C40.2064 42.9675 40.1313 43.023 40.0712 43.0927C39.9434 43.2366 39.8833 43.462 39.8833 43.7728C39.8833 44.0835 39.9434 44.314 40.0648 44.4566C40.122 44.5259 40.1943 44.5812 40.2763 44.6183C40.3583 44.6554 40.4477 44.6733 40.5377 44.6706C40.6818 44.6747 40.8219 44.6231 40.9288 44.5267C41.043 44.4054 41.1112 44.2482 41.1218 44.0822Z" fill="white"/>
<path d="M41.849 44.938V42.6012H42.2068V42.9552C42.2671 42.8285 42.3543 42.7163 42.4624 42.6266C42.5375 42.5747 42.6267 42.5471 42.7181 42.5477C42.8638 42.5505 43.0056 42.5947 43.127 42.675L42.9903 43.0431C42.9028 42.9887 42.802 42.9592 42.6989 42.9577C42.6144 42.9567 42.532 42.984 42.465 43.0354C42.3934 43.0897 42.3414 43.1657 42.3167 43.2519C42.271 43.4017 42.2485 43.5576 42.2503 43.7142V44.938H41.849Z" fill="white"/>
<path d="M44.8972 44.938V44.5942C44.8178 44.7186 44.7075 44.8205 44.5769 44.8899C44.4464 44.9593 44.3 44.9939 44.1521 44.9902C44.0201 44.9911 43.8894 44.9642 43.7686 44.9113C43.6632 44.8704 43.5709 44.8017 43.5015 44.7126C43.4377 44.6251 43.394 44.5247 43.3737 44.4184C43.354 44.2963 43.3459 44.1727 43.3494 44.0491V42.6012H43.7469V43.8963C43.7421 44.0364 43.7502 44.1767 43.7712 44.3153C43.7926 44.4139 43.8494 44.5013 43.9309 44.5611C44.0188 44.6223 44.1241 44.6536 44.2313 44.6502C44.3492 44.6504 44.4649 44.6187 44.5661 44.5585C44.6661 44.5029 44.7444 44.4154 44.7885 44.3102C44.8385 44.1631 44.8606 44.0081 44.8537 43.853V42.6012H45.2512V44.938H44.8972Z" fill="white"/>
<path d="M45.6653 44.938V44.6171L47.1593 42.9081C46.9894 42.917 46.8398 42.9221 46.7107 42.9221H45.7535V42.6012H47.6706V42.8559L46.4002 44.3395L46.1548 44.6107C46.3324 44.5967 46.4999 44.5903 46.6558 44.5903H47.7409V44.9316L45.6653 44.938Z" fill="white"/>
<path d="M49.4317 44.938V41.711H50.0784L50.8453 43.9956C50.9169 44.2083 50.9731 44.3675 50.9999 44.4732C51.037 44.356 51.0945 44.1841 51.1725 43.9561L51.9483 41.711H52.5247V44.938H52.1118V42.2369L51.1712 44.938H50.7878L49.8509 42.1911V44.938H49.4317Z" fill="white"/>
<path d="M54.6935 44.6502C54.568 44.7619 54.424 44.8511 54.2679 44.9138C54.1276 44.9654 53.9791 44.9913 53.8296 44.9902C53.6149 45.0046 53.4027 44.9377 53.2353 44.803C53.1678 44.7425 53.1144 44.6681 53.0786 44.585C53.0429 44.5019 53.0257 44.412 53.0282 44.3216C53.0274 44.2152 53.0528 44.1101 53.1023 44.0157C53.1517 43.9213 53.2238 43.8405 53.3119 43.7804C53.3997 43.7226 53.4964 43.6796 53.5982 43.6531C53.7144 43.6258 53.8323 43.6058 53.951 43.5932C54.1914 43.5716 54.429 43.5259 54.6603 43.4569C54.6603 43.4022 54.6603 43.3678 54.6603 43.3538C54.6667 43.2921 54.6599 43.2298 54.6403 43.1709C54.6207 43.1121 54.5887 43.0581 54.5466 43.0125C54.4172 42.9143 54.2563 42.8667 54.0941 42.8788C53.9494 42.8679 53.8048 42.9017 53.68 42.9756C53.5763 43.0657 53.5064 43.1883 53.4819 43.3232L53.0985 43.2697C53.1247 43.1239 53.1847 42.9861 53.2736 42.8673C53.3662 42.7575 53.488 42.6758 53.6251 42.6317C53.7962 42.5737 53.9761 42.5457 54.1567 42.5489C54.3224 42.5434 54.4876 42.5671 54.645 42.619C54.7506 42.6536 54.8456 42.7145 54.921 42.796C54.9845 42.8746 55.0283 42.9672 55.0488 43.066C55.0649 43.1871 55.0713 43.3093 55.068 43.4315V43.96C55.0621 44.1933 55.0706 44.4268 55.0936 44.6591C55.1116 44.7574 55.1457 44.852 55.1945 44.9393H54.7792C54.7335 44.8488 54.7045 44.7509 54.6935 44.6502ZM54.6603 43.7651C54.4503 43.8394 54.2325 43.8894 54.011 43.9141C53.8924 43.9274 53.7758 43.9543 53.6634 43.9944C53.5997 44.02 53.5453 44.0645 53.5075 44.1217C53.4708 44.1772 53.4517 44.2424 53.4525 44.3089C53.4515 44.3592 53.4617 44.4091 53.4825 44.4549C53.5033 44.5007 53.5341 44.5413 53.5727 44.5738C53.6727 44.6512 53.7979 44.6888 53.9241 44.6795C54.067 44.6824 54.2081 44.6477 54.3331 44.5789C54.4475 44.5173 54.5396 44.4216 54.5964 44.3051C54.6453 44.179 54.6671 44.044 54.6603 43.909V43.7651Z" fill="white"/>
<path d="M56.5467 44.584L56.6042 44.9342C56.5055 44.9556 56.4049 44.9671 56.3039 44.9686C56.1879 44.9746 56.0723 44.9513 55.9678 44.9011C55.8937 44.8612 55.8348 44.7981 55.8003 44.7215C55.7577 44.5692 55.7413 44.4107 55.7518 44.2529V42.9081H55.4604V42.6012H55.7518V42.0217L56.1467 41.7836V42.6012H56.5467V42.9081H56.1467V44.2758C56.1425 44.349 56.1494 44.4224 56.1671 44.4936C56.1814 44.5257 56.2056 44.5524 56.2362 44.57C56.2779 44.5916 56.3247 44.6017 56.3716 44.5993C56.4303 44.5981 56.4888 44.593 56.5467 44.584Z" fill="white"/>
<path d="M56.787 43.7689C56.787 43.336 56.9084 43.0163 57.15 42.8075C57.3559 42.6349 57.6185 42.5442 57.8874 42.5528C58.0341 42.5477 58.1802 42.5732 58.3164 42.6276C58.4526 42.682 58.576 42.764 58.6785 42.8686C58.7849 42.9866 58.8668 43.1245 58.9194 43.2742C58.9721 43.4239 58.9944 43.5825 58.9853 43.7409C58.9965 43.9851 58.9501 44.2285 58.8498 44.4515C58.761 44.6217 58.623 44.7615 58.4536 44.8527C58.2803 44.948 58.0853 44.9971 57.8874 44.9953C57.74 45.0015 57.5929 44.9766 57.4557 44.9225C57.3185 44.8683 57.1943 44.7859 57.0912 44.6808C56.8893 44.4668 56.787 44.1637 56.787 43.7689ZM57.196 43.7689C57.1775 44.0095 57.2474 44.2485 57.3928 44.4413C57.454 44.5119 57.5297 44.5686 57.6149 44.6074C57.7 44.6462 57.7925 44.6663 57.8861 44.6663C57.9798 44.6663 58.0723 44.6462 58.1574 44.6074C58.2425 44.5686 58.3183 44.5119 58.3795 44.4413C58.5115 44.2928 58.5772 44.0648 58.5763 43.7575C58.5935 43.5218 58.5235 43.2881 58.3795 43.1004C58.3178 43.0305 58.2419 42.9745 58.1569 42.9362C58.0718 42.8979 57.9795 42.878 57.8861 42.878C57.7928 42.878 57.7005 42.8979 57.6154 42.9362C57.5304 42.9745 57.4545 43.0305 57.3928 43.1004C57.2478 43.292 57.1778 43.5296 57.196 43.7689Z" fill="white"/>
<path d="M62.2737 43.6722V43.2901H63.6464V44.4872C63.4507 44.648 63.2307 44.777 62.9946 44.8692C62.7746 44.953 62.5412 44.9962 62.3057 44.9966C62.004 45.0007 61.706 44.9307 61.4379 44.7928C61.1841 44.664 60.9782 44.4579 60.85 44.2045C60.7148 43.9378 60.6464 43.6424 60.6506 43.3436C60.6487 43.0395 60.7165 42.739 60.8487 42.4649C60.9667 42.2064 61.1665 41.9934 61.4174 41.8587C61.6813 41.7222 61.9753 41.6539 62.2725 41.66C62.4908 41.6568 62.7077 41.6953 62.9115 41.7734C63.0852 41.8376 63.2386 41.9466 63.3563 42.0892C63.4743 42.2463 63.5579 42.4264 63.6017 42.6177L63.2182 42.7234C63.1816 42.5861 63.1201 42.4566 63.0367 42.3414C62.9558 42.2405 62.8496 42.1627 62.7287 42.116C62.587 42.0574 62.4348 42.0284 62.2814 42.0306C62.1067 42.0259 61.9329 42.0562 61.7702 42.1198C61.6388 42.1715 61.5205 42.2515 61.4238 42.3541C61.3386 42.4485 61.2699 42.5566 61.2206 42.6737C61.1351 42.8792 61.0917 43.0996 61.0928 43.3219C61.0847 43.5709 61.1355 43.8182 61.2411 44.044C61.3344 44.2315 61.4871 44.3832 61.6756 44.4757C61.8636 44.5695 62.0711 44.618 62.2814 44.6171C62.4677 44.6168 62.6522 44.5805 62.8246 44.5101C62.9701 44.4567 63.1057 44.3797 63.2259 44.2822V43.6811L62.2737 43.6722Z" fill="white"/>
<path d="M64.2228 44.938V42.6012H64.5807V42.9552C64.6409 42.8285 64.7281 42.7163 64.8363 42.6266C64.9113 42.5747 65.0005 42.5471 65.0919 42.5477C65.2376 42.5505 65.3794 42.5947 65.5009 42.675L65.3641 43.0431C65.2766 42.9887 65.1758 42.9592 65.0727 42.9577C64.9882 42.9567 64.9058 42.984 64.8388 43.0354C64.7672 43.0897 64.7152 43.1657 64.6906 43.2519C64.6448 43.4017 64.6224 43.5576 64.6241 43.7142V44.938H64.2228Z" fill="white"/>
<path d="M65.5852 43.7689C65.5852 43.336 65.7066 43.0163 65.9482 42.8075C66.154 42.6347 66.4167 42.5439 66.6856 42.5528C66.8323 42.5478 66.9783 42.5733 67.1146 42.6277C67.2508 42.6821 67.3741 42.7641 67.4768 42.8686C67.5831 42.9866 67.665 43.1245 67.7176 43.2742C67.7703 43.4239 67.7927 43.5825 67.7835 43.7409C67.795 43.9852 67.7481 44.2288 67.6467 44.4515C67.5584 44.6216 67.4208 44.7614 67.2518 44.8527C67.0785 44.948 66.8835 44.9971 66.6856 44.9953C66.5382 45.0015 66.3911 44.9766 66.2539 44.9225C66.1167 44.8683 65.9925 44.7859 65.8894 44.6808C65.6862 44.4668 65.5852 44.1637 65.5852 43.7689ZM65.9942 43.7689C65.9757 44.0095 66.0457 44.2485 66.191 44.4413C66.2522 44.512 66.3279 44.5686 66.4131 44.6074C66.4982 44.6462 66.5907 44.6663 66.6843 44.6663C66.778 44.6663 66.8705 44.6462 66.9556 44.6074C67.0408 44.5686 67.1165 44.512 67.1777 44.4413C67.3098 44.2928 67.3754 44.0648 67.3745 43.7575C67.3913 43.5217 67.3209 43.2879 67.1764 43.1004C67.1149 43.0305 67.0391 42.9746 66.9541 42.9362C66.8692 42.8979 66.777 42.8781 66.6837 42.8781C66.5904 42.8781 66.4983 42.8979 66.4133 42.9362C66.3283 42.9746 66.2526 43.0305 66.191 43.1004C66.046 43.292 65.9761 43.5297 65.9942 43.7689Z" fill="white"/>
<path d="M68.0902 44.2401L68.4839 44.179C68.4966 44.3182 68.5625 44.4472 68.6679 44.5394C68.7892 44.6306 68.9392 44.6758 69.091 44.6668C69.2355 44.6783 69.3794 44.6386 69.4974 44.5547C69.5363 44.5243 69.5679 44.4857 69.59 44.4417C69.6121 44.3976 69.6241 44.3492 69.6252 44.3C69.6262 44.2575 69.6158 44.2156 69.5951 44.1784C69.5745 44.1413 69.5443 44.1103 69.5076 44.0886C69.3783 44.027 69.2417 43.9817 69.1012 43.9536C68.8941 43.908 68.6914 43.8446 68.4954 43.7638C68.3898 43.7166 68.3008 43.639 68.2398 43.541C68.182 43.4467 68.1519 43.3382 68.1528 43.2277C68.1521 43.1269 68.1767 43.0275 68.2244 42.9386C68.271 42.8503 68.338 42.7743 68.42 42.717C68.4977 42.6638 68.5842 42.6246 68.6756 42.6011C68.7872 42.5688 68.9031 42.5529 69.0194 42.554C69.1843 42.5511 69.3484 42.5778 69.5038 42.633C69.6251 42.6736 69.7321 42.7484 69.8118 42.8482C69.8855 42.9563 69.9324 43.0802 69.9485 43.2099L69.5651 43.2634C69.5529 43.1528 69.4979 43.0514 69.4118 42.9807C69.3071 42.9073 69.1803 42.8718 69.0526 42.88C68.9159 42.8675 68.7788 42.8992 68.6615 42.9705C68.6261 42.9934 68.597 43.0247 68.5767 43.0616C68.5564 43.0985 68.5456 43.1398 68.5452 43.1819C68.5445 43.232 68.5617 43.2807 68.5938 43.3194C68.6334 43.3682 68.6862 43.4049 68.7459 43.4251C68.7855 43.4404 68.9018 43.4735 69.0973 43.527C69.2969 43.5761 69.4932 43.6374 69.6852 43.7104C69.7883 43.7549 69.8768 43.8272 69.9409 43.9192C70.0071 44.0195 70.0402 44.138 70.0354 44.258C70.035 44.3909 69.9949 44.5208 69.9204 44.6311C69.8374 44.7515 69.7211 44.8453 69.5856 44.9011C69.4292 44.9669 69.2607 44.9994 69.091 44.9966C68.8437 45.0136 68.5979 44.9472 68.3931 44.8081C68.2241 44.6635 68.1159 44.4607 68.0902 44.2401Z" fill="white"/>
<path d="M70.3524 44.2401L70.7448 44.179C70.7586 44.3182 70.8248 44.447 70.9301 44.5394C71.0514 44.6306 71.2014 44.6758 71.3531 44.6668C71.4976 44.6783 71.6416 44.6386 71.7596 44.5547C71.7986 44.5244 71.8303 44.4859 71.8525 44.4418C71.8746 44.3977 71.8865 44.3493 71.8874 44.3C71.8886 44.2576 71.8785 44.2157 71.858 44.1785C71.8376 44.1414 71.8076 44.1103 71.771 44.0886C71.6417 44.027 71.5052 43.9817 71.3646 43.9536C71.1571 43.908 70.954 43.8445 70.7575 43.7639C70.6541 43.7176 70.5666 43.6422 70.5057 43.5469C70.4449 43.4516 70.4133 43.3406 70.415 43.2277C70.4137 43.1268 70.4383 43.0273 70.4866 42.9386C70.5331 42.8503 70.6002 42.7743 70.6821 42.717C70.7599 42.6638 70.8464 42.6246 70.9378 42.6012C71.049 42.5689 71.1644 42.553 71.2803 42.554C71.4456 42.5511 71.6101 42.5778 71.7659 42.633C71.8873 42.6736 71.9943 42.7484 72.074 42.8482C72.1472 42.9565 72.194 43.0804 72.2107 43.2099L71.8273 43.2634C71.8151 43.1528 71.7601 43.0514 71.6739 42.9807C71.5691 42.9075 71.4425 42.872 71.3148 42.88C71.1781 42.8675 71.0409 42.8992 70.9237 42.9705C70.8885 42.9937 70.8595 43.0251 70.839 43.0619C70.8186 43.0987 70.8073 43.1398 70.8061 43.1819C70.806 43.2319 70.8231 43.2805 70.8547 43.3194C70.8948 43.3683 70.948 43.4049 71.008 43.4251C71.0477 43.4404 71.164 43.4735 71.3582 43.527C71.5582 43.5762 71.7549 43.6374 71.9474 43.7104C72.0505 43.7549 72.139 43.8272 72.203 43.9192C72.2688 44.0198 72.3018 44.138 72.2976 44.258C72.2973 44.3912 72.2568 44.5212 72.1813 44.6311C72.0991 44.7517 71.9831 44.8456 71.8477 44.9011C71.6909 44.9669 71.522 44.9994 71.3519 44.9966C71.105 45.0134 70.8597 44.947 70.6553 44.8081C70.4857 44.6639 70.3775 44.4609 70.3524 44.2401Z" fill="white"/>
<path d="M72.6248 43.7689C72.6248 43.336 72.7526 43.0163 72.9878 42.8075C73.1936 42.6347 73.4563 42.5439 73.7252 42.5528C73.8719 42.5478 74.0179 42.5733 74.1541 42.6277C74.2903 42.6821 74.4137 42.7641 74.5163 42.8686C74.6227 42.9866 74.7046 43.1245 74.7572 43.2742C74.8099 43.4239 74.8322 43.5825 74.8231 43.7409C74.8345 43.9852 74.7877 44.2288 74.6863 44.4515C74.5984 44.6219 74.4607 44.7618 74.2914 44.8527C74.1181 44.948 73.9231 44.9971 73.7252 44.9953C73.5778 45.0015 73.4307 44.9766 73.2935 44.9225C73.1563 44.8683 73.0321 44.7859 72.929 44.6808C72.7258 44.4668 72.6248 44.1637 72.6248 43.7689ZM73.0338 43.7689C73.0153 44.0095 73.0852 44.2485 73.2306 44.4413C73.2918 44.512 73.3675 44.5686 73.4527 44.6074C73.5378 44.6462 73.6303 44.6663 73.7239 44.6663C73.8176 44.6663 73.9101 44.6462 73.9952 44.6074C74.0803 44.5686 74.1561 44.512 74.2173 44.4413C74.3485 44.2928 74.4141 44.0648 74.4141 43.7575C74.4309 43.5217 74.3605 43.2879 74.216 43.1004C74.1545 43.0305 74.0787 42.9746 73.9937 42.9362C73.9088 42.8979 73.8166 42.8781 73.7233 42.8781C73.63 42.8781 73.5378 42.8979 73.4529 42.9362C73.3679 42.9746 73.2921 43.0305 73.2306 43.1004C73.0856 43.292 73.0156 43.5297 73.0338 43.7689Z" fill="white"/>
<path d="M78.0681 44.938V44.6426C77.9997 44.7537 77.9027 44.8445 77.7872 44.9057C77.6717 44.9668 77.5418 44.996 77.4112 44.9902C77.2292 44.9906 77.0512 44.9369 76.8999 44.8361C76.74 44.7306 76.6136 44.5817 76.5357 44.407C76.4463 44.2068 76.4026 43.9893 76.4079 43.7702C76.4046 43.5524 76.4441 43.3361 76.5242 43.1335C76.5932 42.9552 76.716 42.8026 76.8756 42.6967C77.0315 42.5959 77.2138 42.5432 77.3997 42.5451C77.5309 42.5426 77.6606 42.5732 77.7767 42.6343C77.883 42.6902 77.9752 42.7695 78.0464 42.866V41.7084H78.4413V44.9355L78.0681 44.938ZM76.8105 43.7715C76.7927 44.0106 76.8602 44.2482 77.0009 44.4426C77.0537 44.5113 77.1216 44.5671 77.1994 44.6057C77.2771 44.6443 77.3626 44.6648 77.4495 44.6655C77.5345 44.6657 77.6185 44.6466 77.6951 44.6098C77.7717 44.5729 77.8389 44.5193 77.8917 44.4528C78.0276 44.2651 78.0924 44.0354 78.0745 43.8046C78.0745 43.485 78.0131 43.2494 77.8892 43.1004C77.8356 43.0301 77.7664 42.9733 77.687 42.9343C77.6076 42.8954 77.5201 42.8755 77.4316 42.8762C77.346 42.8754 77.2614 42.8944 77.1844 42.9317C77.1074 42.9691 77.0402 43.0238 76.9881 43.0914C76.8705 43.2354 76.8105 43.462 76.8105 43.7715Z" fill="white"/>
<path d="M78.9142 43.7689C78.9142 43.336 79.0343 43.0163 79.2759 42.8075C79.4818 42.6349 79.7444 42.5442 80.0133 42.5528C80.16 42.5476 80.3061 42.573 80.4424 42.6274C80.5786 42.6818 80.7019 42.7639 80.8044 42.8686C80.9108 42.9866 80.9927 43.1245 81.0453 43.2742C81.0979 43.4239 81.1203 43.5825 81.1112 43.7409C81.123 43.9851 81.0766 44.2287 80.9757 44.4515C80.887 44.6214 80.7495 44.7611 80.5808 44.8527C80.4071 44.9482 80.2116 44.9973 80.0133 44.9953C79.8657 45.0005 79.7187 44.9747 79.5817 44.9196C79.4448 44.8646 79.321 44.7815 79.2183 44.6757C79.0151 44.4668 78.9142 44.1637 78.9142 43.7689ZM79.3219 43.7689C79.3039 44.0094 79.3738 44.2482 79.5187 44.4413C79.58 44.512 79.6558 44.5686 79.7411 44.6075C79.8263 44.6463 79.9189 44.6664 80.0127 44.6664C80.1064 44.6664 80.199 44.6463 80.2842 44.6075C80.3695 44.5686 80.4453 44.512 80.5066 44.4413C80.6344 44.2923 80.7035 44.0593 80.7035 43.7575C80.7203 43.5217 80.6498 43.2879 80.5054 43.1004C80.4437 43.0305 80.3678 42.9745 80.2827 42.9362C80.1977 42.8979 80.1054 42.878 80.012 42.878C79.9187 42.878 79.8264 42.8979 79.7413 42.9362C79.6562 42.9745 79.5803 43.0305 79.5187 43.1004C79.3742 43.2922 79.3043 43.5297 79.3219 43.7689Z" fill="white"/>
<path d="M82.7394 43.9014L83.1433 43.8657C83.1535 44.0064 83.1973 44.1427 83.2711 44.2631C83.353 44.3773 83.4661 44.4657 83.597 44.5178C83.7543 44.5834 83.9236 44.616 84.0942 44.6133C84.2414 44.6161 84.388 44.5915 84.5262 44.5407C84.6368 44.5028 84.734 44.4338 84.806 44.342C84.866 44.2623 84.8983 44.1653 84.8981 44.0657C84.8998 43.9699 84.8687 43.8765 84.8099 43.8008C84.7315 43.7124 84.6309 43.6464 84.5185 43.6098C84.4316 43.5766 84.2386 43.5244 83.9408 43.4531C83.7258 43.4088 83.5162 43.3413 83.3158 43.2519C83.1761 43.184 83.057 43.0803 82.9707 42.9514C82.8949 42.8309 82.8554 42.6912 82.857 42.5489C82.8567 42.3865 82.9052 42.2277 82.9963 42.093C83.095 41.946 83.237 41.833 83.4027 41.7696C83.5917 41.6946 83.7936 41.6574 83.997 41.66C84.2157 41.6552 84.4331 41.6947 84.6361 41.7759C84.8083 41.844 84.9558 41.9626 85.0591 42.116C85.1583 42.2678 85.2132 42.4442 85.2176 42.6253L84.8073 42.6559C84.8026 42.5678 84.7802 42.4816 84.7416 42.4022C84.7029 42.3228 84.6488 42.2519 84.5824 42.1936C84.4178 42.0793 84.2189 42.0245 84.0188 42.0383C83.8192 42.022 83.6197 42.0717 83.4513 42.1796C83.3966 42.2187 83.352 42.2701 83.3211 42.3296C83.2903 42.3892 83.274 42.4552 83.2736 42.5222C83.2725 42.5764 83.2833 42.6302 83.3054 42.6797C83.3275 42.7292 83.3603 42.7733 83.4015 42.8087C83.4832 42.8826 83.6992 42.959 84.0405 43.038C84.285 43.0858 84.525 43.1549 84.7575 43.2443C84.9242 43.3139 85.0687 43.4275 85.1754 43.5728C85.2657 43.7086 85.3124 43.8685 85.3096 44.0313C85.3086 44.2043 85.2571 44.3734 85.1613 44.5178C85.0572 44.6742 84.9099 44.7971 84.737 44.8718C84.5404 44.9587 84.3272 45.0021 84.1121 44.9991C83.8605 45.0068 83.6101 44.9635 83.3759 44.8718C83.1853 44.7941 83.0227 44.661 82.9094 44.4897C82.7977 44.3137 82.7387 44.1096 82.7394 43.9014Z" fill="white"/>
<path d="M87.389 44.938V44.5942C87.3099 44.7185 87.1998 44.8204 87.0694 44.8898C86.9391 44.9592 86.7929 44.9938 86.6452 44.9902C86.5132 44.991 86.3826 44.9641 86.2618 44.9113C86.1567 44.8698 86.0645 44.8012 85.9947 44.7126C85.9318 44.6246 85.8883 44.5243 85.8668 44.4184C85.8478 44.2963 85.8397 44.1727 85.8426 44.0491V42.6012H86.24V43.8963C86.2359 44.0364 86.244 44.1766 86.2643 44.3153C86.2863 44.4136 86.343 44.5009 86.4241 44.5611C86.512 44.6222 86.6173 44.6534 86.7244 44.6502C86.8427 44.6504 86.9589 44.6187 87.0605 44.5585C87.16 44.5027 87.2379 44.4152 87.2817 44.3102C87.3316 44.1631 87.3538 44.0081 87.3468 43.853V42.6012H87.7443V44.938H87.389Z" fill="white"/>
<path d="M88.3591 44.938V41.711H88.7565V44.938H88.3591Z" fill="white"/>
<path d="M33.2706 38.5705V34.5081H36.1156V35.2136H34.1026V36.1356H35.8664V36.8411H34.1026V38.5705H33.2706Z" fill="white"/>
<path d="M39.1497 35.5727V38.5705H38.3611V38.2152C38.2549 38.3533 38.118 38.4649 37.9611 38.5413C37.8011 38.6156 37.6264 38.653 37.4499 38.6508C37.1189 38.6508 36.8722 38.5642 36.706 38.3961C36.5399 38.228 36.4594 37.9656 36.4594 37.6218V35.5842H37.2646V37.3913C37.2506 37.5508 37.2882 37.7105 37.3719 37.8472C37.4168 37.896 37.4726 37.9338 37.5347 37.9574C37.5968 37.9811 37.6636 37.99 37.7298 37.9835C37.8124 37.9875 37.895 37.9745 37.9724 37.9454C38.0498 37.9162 38.1203 37.8716 38.1796 37.8141C38.2369 37.7519 38.2812 37.6791 38.3099 37.5997C38.3387 37.5203 38.3513 37.4361 38.3471 37.3518V35.5727H39.1497Z" fill="white"/>
<path d="M39.8539 38.5705V35.5727H40.6425V35.9281C40.7474 35.7892 40.8841 35.6774 41.0412 35.602C41.2013 35.5278 41.376 35.4904 41.5525 35.4925C41.8848 35.4925 42.1331 35.5774 42.2976 35.7472C42.4637 35.9191 42.5455 36.1777 42.5455 36.5228V38.5667H41.7403V36.7545C41.7542 36.5931 41.7157 36.4315 41.6304 36.2935C41.586 36.2447 41.5308 36.2068 41.4691 36.1829C41.4074 36.159 41.341 36.1498 41.2751 36.156C41.1923 36.152 41.1095 36.1649 41.0319 36.194C40.9543 36.2232 40.8835 36.2679 40.824 36.3254C40.7669 36.3876 40.7229 36.4606 40.6944 36.5399C40.6659 36.6193 40.6534 36.7035 40.6578 36.7877V38.5705H39.8539Z" fill="white"/>
<path d="M46.0027 34.5081V38.5705H45.2359V38.1656C45.1374 38.3217 45.0034 38.4526 44.8448 38.5476C44.6884 38.6339 44.5122 38.6778 44.3335 38.675C44.1592 38.6789 43.9864 38.6412 43.8296 38.565C43.6729 38.4888 43.5367 38.3763 43.4325 38.2369C43.1916 37.9044 43.0704 37.5005 43.0887 37.0907C43.0697 36.675 43.1907 36.2648 43.4325 35.9255C43.5914 35.7157 43.8191 35.568 44.076 35.5082C44.3328 35.4484 44.6026 35.4802 44.8384 35.5982C44.9923 35.6817 45.1221 35.8031 45.2154 35.951V34.5081H46.0027ZM43.8964 37.0551C43.8808 37.2981 43.9406 37.5399 44.0677 37.7479C44.1236 37.826 44.1983 37.8889 44.2849 37.9308C44.3716 37.9726 44.4674 37.992 44.5636 37.9873C44.6588 37.9923 44.7537 37.973 44.8393 37.9314C44.9249 37.8897 44.9985 37.827 45.0531 37.7491C45.179 37.5403 45.2378 37.2982 45.2218 37.0551C45.2365 36.8231 45.1746 36.5928 45.0454 36.3992C44.987 36.3238 44.9112 36.2634 44.8245 36.2233C44.7377 36.1832 44.6425 36.1645 44.547 36.1687C44.454 36.1658 44.3618 36.1859 44.2786 36.2272C44.1954 36.2686 44.1238 36.3299 44.0703 36.4056C43.9453 36.5971 43.8845 36.8232 43.8964 37.0513V37.0551Z" fill="white"/>
<path d="M48.4502 38.1987C48.3518 38.351 48.214 38.4742 48.0514 38.5553C47.8727 38.6416 47.6762 38.6852 47.4776 38.6826C47.3542 38.6906 47.2305 38.6728 47.1145 38.6302C46.9985 38.5877 46.8927 38.5214 46.804 38.4356C46.6358 38.2397 46.551 37.9861 46.5676 37.7288C46.5596 37.6103 46.5764 37.4914 46.6172 37.3798C46.6579 37.2682 46.7215 37.1663 46.804 37.0806C46.9625 36.9316 47.222 36.8259 47.5862 36.7749C47.6693 36.7622 47.7779 36.7469 47.9121 36.7303C48.2546 36.6858 48.4233 36.5877 48.4233 36.4349C48.4272 36.3864 48.4189 36.3376 48.399 36.2931C48.3791 36.2486 48.3484 36.2098 48.3096 36.1802C48.1922 36.1173 48.059 36.0899 47.9262 36.1012C47.7942 36.0926 47.6629 36.1265 47.5517 36.198C47.5094 36.2299 47.4756 36.2717 47.4533 36.3197C47.431 36.3676 47.4209 36.4203 47.4239 36.4731V36.5177H46.6711V36.4629C46.6651 36.3251 46.6916 36.1877 46.7484 36.0619C46.8052 35.9361 46.8908 35.8252 46.9983 35.7383C47.2594 35.5491 47.5783 35.4559 47.9006 35.4747C48.3207 35.4747 48.6432 35.5473 48.8681 35.6925C48.975 35.7583 49.0624 35.8513 49.1214 35.9618C49.1805 36.0723 49.209 36.1964 49.2042 36.3216V38.0268C49.1996 38.1213 49.2126 38.2159 49.2426 38.3057C49.2675 38.3658 49.3127 38.4153 49.3704 38.4457V38.5807H48.5448C48.5161 38.5269 48.4946 38.4695 48.4809 38.4101C48.4624 38.341 48.4521 38.2701 48.4502 38.1987ZM48.4361 37.0946C48.2912 37.1598 48.1395 37.2089 47.9837 37.241C47.8124 37.278 47.7281 37.2971 47.7191 37.2996C47.6081 37.3229 47.5053 37.3752 47.4213 37.4511C47.3608 37.5217 47.3305 37.6132 47.337 37.7058C47.3349 37.7549 47.3434 37.8038 47.3619 37.8493C47.3804 37.8948 47.4085 37.9357 47.4444 37.9695C47.5258 38.0372 47.6298 38.0718 47.7357 38.0662C47.8289 38.071 47.9221 38.0572 48.0099 38.0258C48.0976 37.9943 48.1782 37.9457 48.247 37.8829C48.3107 37.8166 48.3602 37.7379 48.3923 37.6519C48.4244 37.5658 48.4384 37.4741 48.4336 37.3824L48.4361 37.0946Z" fill="white"/>
<path d="M51.7297 37.4397H52.5234C52.5088 37.7831 52.3591 38.107 52.1067 38.3413C51.8448 38.5676 51.5061 38.686 51.1597 38.6724C50.9681 38.6815 50.777 38.648 50.6001 38.5742C50.4232 38.5004 50.2651 38.3882 50.1372 38.2458C49.8893 37.9622 49.7653 37.5696 49.7653 37.0678C49.7653 36.5661 49.8931 36.1738 50.1487 35.8911C50.281 35.7478 50.4434 35.6352 50.6243 35.5615C50.8053 35.4877 51.0003 35.4546 51.1955 35.4645C51.5325 35.4502 51.8629 35.5604 52.1233 35.774C52.2436 35.8838 52.3404 36.0166 52.408 36.1645C52.4756 36.3124 52.5127 36.4724 52.517 36.6348H51.7169C51.7057 36.4966 51.646 36.3668 51.5482 36.2681C51.4508 36.1805 51.3227 36.1348 51.1916 36.1407C51.1028 36.1358 51.0142 36.155 50.9355 36.1963C50.8567 36.2376 50.7906 36.2993 50.7443 36.375C50.6318 36.5916 50.5805 36.8346 50.5961 37.078C50.582 37.3101 50.6353 37.5413 50.7494 37.744C50.7961 37.8182 50.8615 37.8788 50.9392 37.9197C51.0168 37.9606 51.1039 37.9804 51.1916 37.9771C51.2576 37.9803 51.3235 37.97 51.3853 37.9468C51.4471 37.9236 51.5034 37.8879 51.5508 37.8421C51.6518 37.7303 51.7145 37.5894 51.7297 37.4397ZM50.5526 39.7791V39.4289C50.7009 39.4671 50.8351 39.4977 50.9552 39.5168C51.0564 39.5354 51.159 39.5456 51.2619 39.5473C51.3356 39.5533 51.4092 39.5364 51.4728 39.4989C51.4954 39.4807 51.5131 39.4572 51.5245 39.4306C51.5359 39.404 51.5405 39.3749 51.538 39.3461C51.5405 39.3166 51.5347 39.287 51.5211 39.2606C51.5075 39.2343 51.4868 39.2123 51.4613 39.1971C51.3807 39.1629 51.2931 39.1481 51.2057 39.1538H51.1098C51.0894 39.1524 51.0689 39.1524 51.0485 39.1538V38.5718H51.3309V38.8202H51.3718C51.5443 38.8065 51.7164 38.8514 51.8601 38.9475C51.9133 39.0011 51.9551 39.0649 51.9829 39.135C52.0108 39.2051 52.0242 39.2801 52.0223 39.3555C52.0204 39.4309 52.0032 39.5052 51.9718 39.5738C51.9404 39.6424 51.8955 39.704 51.8396 39.7549C51.6771 39.8588 51.4852 39.9075 51.2926 39.8937C51.1816 39.8922 51.0709 39.882 50.9616 39.8631C50.8338 39.8453 50.6975 39.8173 50.5526 39.7791Z" fill="white"/>
<path d="M54.7574 38.1987C54.6597 38.3516 54.5218 38.4749 54.3587 38.5553C54.1804 38.6417 53.9843 38.6854 53.7861 38.6826C53.6627 38.6907 53.539 38.6729 53.423 38.6303C53.307 38.5878 53.2012 38.5214 53.1126 38.4356C52.9437 38.24 52.8588 37.9861 52.8761 37.7288C52.8678 37.6102 52.8845 37.4913 52.9252 37.3796C52.966 37.268 53.0298 37.1661 53.1126 37.0806C53.2702 36.932 53.5309 36.8301 53.8947 36.7749C53.9778 36.7622 54.0865 36.7469 54.2207 36.7303C54.5615 36.6862 54.7319 36.5877 54.7319 36.4349C54.7355 36.3864 54.7271 36.3377 54.7072 36.2933C54.6874 36.2488 54.6567 36.21 54.6181 36.1802C54.5007 36.1174 54.3675 36.09 54.2347 36.1012C54.1031 36.0926 53.9722 36.1266 53.8615 36.198C53.8192 36.2299 53.7854 36.2717 53.7631 36.3197C53.7408 36.3676 53.7307 36.4203 53.7337 36.4731V36.5177H52.9809V36.4629C52.9746 36.325 53.0009 36.1876 53.0578 36.0617C53.1146 35.9358 53.2004 35.825 53.3081 35.7383C53.5691 35.5489 53.8881 35.4557 54.2104 35.4747C54.6305 35.4747 54.953 35.5473 55.1779 35.6925C55.2848 35.7583 55.3722 35.8513 55.4312 35.9618C55.4903 36.0723 55.5188 36.1964 55.5141 36.3216V38.0268C55.5094 38.1213 55.5224 38.2159 55.5524 38.3057C55.5764 38.3663 55.6219 38.4161 55.6802 38.4457V38.5807H54.8418C54.8125 38.5271 54.791 38.4697 54.7779 38.4101C54.7635 38.3405 54.7567 38.2697 54.7574 38.1987ZM55.1115 34.3349C55.0834 34.5194 55.0106 34.6942 54.8993 34.8443C54.8552 34.8973 54.7997 34.9396 54.7368 34.968C54.6739 34.9965 54.6054 35.0104 54.5363 35.0086C54.5004 35.0088 54.4645 35.0062 54.429 35.0009C54.3951 34.9963 54.3617 34.9887 54.3293 34.978L54.0877 34.9054C54.0532 34.8965 54.02 34.8902 53.9906 34.8851C53.9621 34.8832 53.9335 34.8832 53.905 34.8851C53.8499 34.8825 53.7958 34.9001 53.7529 34.9347C53.7077 34.9789 53.6763 35.035 53.6621 35.0965H53.3567C53.3825 34.9183 53.4533 34.7496 53.5625 34.6062C53.6069 34.5551 53.6621 34.5145 53.7243 34.4874C53.7864 34.4604 53.8538 34.4474 53.9216 34.4495C53.9605 34.4493 53.9994 34.4523 54.0379 34.4584C54.079 34.4655 54.1195 34.4753 54.1593 34.4877L54.4149 34.5565C54.4378 34.5641 54.4613 34.5696 54.4852 34.5731C54.5124 34.5751 54.5398 34.5751 54.567 34.5731C54.5944 34.5738 54.6217 34.569 54.6472 34.559C54.6727 34.5489 54.6958 34.5338 54.7153 34.5145C54.7604 34.464 54.7913 34.4025 54.8047 34.3362L55.1115 34.3349ZM54.7434 37.1009C54.5986 37.1666 54.4468 37.2157 54.2909 37.2474C54.121 37.2843 54.0353 37.3034 54.0277 37.306C53.9165 37.3288 53.8136 37.3812 53.7299 37.4575C53.6693 37.5281 53.639 37.6196 53.6455 37.7122C53.6434 37.7612 53.6519 37.8102 53.6704 37.8556C53.689 37.9011 53.7171 37.9421 53.7529 37.9758C53.8341 38.0439 53.9383 38.0785 54.0443 38.0726C54.1375 38.0777 54.2307 38.064 54.3185 38.0325C54.4064 38.001 54.4869 37.9523 54.5555 37.8892C54.6195 37.8231 54.6691 37.7445 54.7012 37.6584C54.7333 37.5723 54.7472 37.4805 54.7421 37.3887L54.7434 37.1009Z" fill="white"/>
<path d="M56.0675 37.0678C56.0675 36.5686 56.2029 36.1768 56.4739 35.8924C56.7448 35.608 57.1176 35.4653 57.5922 35.4645C57.7981 35.4536 58.004 35.4861 58.1965 35.5598C58.3889 35.6335 58.5637 35.7469 58.7092 35.8924C58.9819 36.1777 59.1178 36.5695 59.1169 37.0678C59.1169 37.567 58.9814 37.9593 58.7092 38.2445C58.5637 38.3901 58.3889 38.5034 58.1965 38.5771C58.004 38.6508 57.7981 38.6833 57.5922 38.6724C57.1176 38.6724 56.7448 38.5298 56.4739 38.2445C56.2029 37.9605 56.0675 37.567 56.0675 37.0678ZM56.8841 37.0678C56.8681 37.3114 56.9328 37.5534 57.0682 37.7568C57.1319 37.833 57.2116 37.8943 57.3017 37.9363C57.3918 37.9784 57.4901 38.0002 57.5896 38.0002C57.6891 38.0002 57.7874 37.9784 57.8776 37.9363C57.9677 37.8943 58.0474 37.833 58.1111 37.7568C58.2312 37.5474 58.2944 37.3103 58.2944 37.0691C58.2944 36.8279 58.2312 36.5908 58.1111 36.3814C58.0468 36.306 57.9668 36.2454 57.8766 36.2038C57.7865 36.1623 57.6883 36.1407 57.589 36.1407C57.4897 36.1407 57.3915 36.1623 57.3014 36.2038C57.2112 36.2454 57.1312 36.306 57.0669 36.3814C56.9321 36.5841 56.8679 36.8252 56.8841 37.0678Z" fill="white"/>
<path d="M61.1682 36.5431C61.1682 35.8877 61.3476 35.3669 61.7063 34.9806C62.065 34.5943 62.549 34.402 63.1582 34.4037C63.7674 34.4037 64.2522 34.5964 64.6126 34.9818C64.973 35.3673 65.1554 35.8877 65.1596 36.5431C65.1596 37.1977 64.979 37.7182 64.6177 38.1045C64.2565 38.4907 63.7716 38.6839 63.1633 38.6839C62.5549 38.6839 62.071 38.4907 61.7114 38.1045C61.3518 37.7182 61.1708 37.1977 61.1682 36.5431ZM62.0232 36.5431C62.0232 36.9906 62.1229 37.3378 62.3223 37.5849C62.4226 37.7077 62.5506 37.8052 62.6958 37.8696C62.841 37.934 62.9994 37.9634 63.1582 37.9554C63.3183 37.964 63.4782 37.9349 63.6249 37.8706C63.7717 37.8062 63.9012 37.7083 64.003 37.5849C64.2032 37.3378 64.3037 36.9906 64.3046 36.5431C64.3054 36.0957 64.207 35.7489 64.0094 35.5027C63.9077 35.379 63.7783 35.2809 63.6315 35.2163C63.4847 35.1517 63.3248 35.1224 63.1646 35.1308C63.0058 35.1229 62.8474 35.1523 62.7022 35.2167C62.557 35.2811 62.429 35.3786 62.3287 35.5014C62.1251 35.7468 62.0232 36.094 62.0232 36.5431Z" fill="white"/>
<path d="M65.5801 37.5938H66.3827C66.3817 37.6596 66.3962 37.7248 66.4251 37.7841C66.454 37.8434 66.4964 37.8951 66.5489 37.9351C66.6888 38.019 66.8512 38.0581 67.0141 38.0471C67.1404 38.0541 67.2663 38.0268 67.3783 37.9682C67.4181 37.9463 67.451 37.9139 67.4736 37.8746C67.4961 37.8353 67.5074 37.7906 67.5062 37.7453C67.5062 37.6103 67.3451 37.5072 67.0243 37.4397C66.8965 37.4117 66.7892 37.3887 66.7112 37.3684C66.3201 37.269 66.0483 37.151 65.8958 37.0143C65.8194 36.9448 65.7593 36.8593 65.7198 36.764C65.6802 36.6687 65.6622 36.5659 65.667 36.4629C65.6618 36.324 65.6892 36.1858 65.7471 36.0593C65.805 35.9328 65.8918 35.8216 66.0006 35.7345C66.2616 35.5425 66.5815 35.4471 66.9055 35.4645C67.2423 35.4452 67.5759 35.5394 67.8525 35.7319C67.9668 35.8218 68.0592 35.9363 68.1228 36.0669C68.1863 36.1975 68.2193 36.3407 68.2193 36.4858H67.4359C67.4361 36.4289 67.4232 36.3726 67.3982 36.3214C67.3731 36.2701 67.3366 36.2253 67.2914 36.1904C67.1788 36.1141 67.0439 36.0774 66.908 36.086C66.7898 36.0783 66.6716 36.1021 66.5655 36.1547C66.5299 36.1758 66.5007 36.2061 66.4811 36.2425C66.4615 36.2788 66.4522 36.3198 66.4543 36.361C66.4543 36.4807 66.6537 36.5864 67.055 36.6781L67.2735 36.7278C67.674 36.822 67.9475 36.9354 68.0941 37.0678C68.1692 37.1395 68.2278 37.2267 68.2658 37.3232C68.3037 37.4198 68.3202 37.5234 68.3139 37.6269C68.3226 37.7762 68.2941 37.9254 68.231 38.0612C68.1679 38.1969 68.0721 38.315 67.9522 38.405C67.7119 38.5833 67.3622 38.6724 66.9029 38.6724C66.488 38.6724 66.1629 38.5795 65.9277 38.3935C65.8127 38.3029 65.7209 38.1864 65.6598 38.0536C65.5987 37.9208 65.5701 37.7754 65.5763 37.6294L65.5801 37.5938Z" fill="white"/>
<path d="M69.3836 38.5705L68.5312 35.5727H69.3478L69.8399 37.646L70.2553 35.5689H71.0771L71.5142 37.646L72.0075 35.5689H72.7884L71.9436 38.5667H71.1384L70.6553 36.4247L70.1901 38.5705H69.3836Z" fill="white"/>
<path d="M74.9049 38.1987C74.8073 38.3513 74.6699 38.4745 74.5074 38.5553C74.3286 38.6416 74.1322 38.6852 73.9335 38.6826C73.8102 38.6907 73.6865 38.6729 73.5704 38.6303C73.4544 38.5878 73.3487 38.5214 73.26 38.4356C73.0912 38.24 73.0063 37.9861 73.0236 37.7288C73.0152 37.6102 73.0319 37.4913 73.0727 37.3796C73.1134 37.268 73.1772 37.1661 73.26 37.0806C73.4176 36.932 73.6784 36.8301 74.0422 36.7749C74.1253 36.7622 74.2339 36.7469 74.3681 36.7303C74.7089 36.6862 74.8793 36.5877 74.8793 36.4349C74.883 36.3864 74.8745 36.3377 74.8546 36.2933C74.8348 36.2488 74.8042 36.21 74.7656 36.1802C74.6482 36.1173 74.5149 36.0899 74.3821 36.1012C74.2501 36.0924 74.1187 36.1264 74.0077 36.198C73.9653 36.2299 73.9316 36.2717 73.9093 36.3197C73.887 36.3676 73.8769 36.4203 73.8799 36.4731V36.5177H73.1271V36.4629C73.1208 36.325 73.1471 36.1876 73.2039 36.0617C73.2608 35.9358 73.3465 35.825 73.4543 35.7383C73.7153 35.5489 74.0342 35.4557 74.3566 35.4747C74.7766 35.4747 75.0991 35.5473 75.3241 35.6925C75.4309 35.7583 75.5183 35.8513 75.5774 35.9618C75.6364 36.0723 75.665 36.1964 75.6602 36.3216V38.0268C75.6555 38.1213 75.6685 38.2159 75.6986 38.3057C75.7226 38.3663 75.768 38.4161 75.8264 38.4457V38.5807H75.0007C74.9715 38.5271 74.95 38.4697 74.9368 38.4101C74.9186 38.341 74.9079 38.2701 74.9049 38.1987ZM74.8921 37.0946C74.7471 37.1598 74.5954 37.2089 74.4397 37.241C74.2684 37.278 74.184 37.2971 74.1751 37.2996C74.0639 37.3225 73.9611 37.3748 73.8773 37.4511C73.8168 37.5217 73.7865 37.6132 73.793 37.7058C73.7908 37.7549 73.7993 37.8038 73.8179 37.8493C73.8364 37.8948 73.8645 37.9357 73.9003 37.9695C73.9816 38.0374 74.0858 38.072 74.1917 38.0662C74.2849 38.0713 74.3782 38.0577 74.466 38.0262C74.5538 37.9947 74.6344 37.9459 74.7029 37.8829C74.7671 37.8168 74.8169 37.7382 74.8492 37.6521C74.8816 37.566 74.8957 37.4742 74.8908 37.3824L74.8921 37.0946Z" fill="white"/>
<path d="M76.3951 38.5705V34.5081H77.2003V38.5705H76.3951Z" fill="white"/>
<path d="M80.6907 34.5081V38.5705H79.9238V38.1656C79.8254 38.3217 79.6914 38.4526 79.5327 38.5476C79.3764 38.6339 79.2002 38.6778 79.0215 38.675C78.8471 38.6789 78.6744 38.6412 78.5176 38.565C78.3609 38.4888 78.2247 38.3763 78.1205 38.2369C77.8785 37.9048 77.7569 37.5007 77.7754 37.0907C77.7561 36.6748 77.8777 36.2644 78.1205 35.9255C78.279 35.7152 78.5067 35.5673 78.7638 35.5074C79.0208 35.4476 79.2907 35.4797 79.5264 35.5982C79.6829 35.6804 79.8151 35.802 79.9098 35.951V34.5081H80.6907ZM78.5844 37.0551C78.5682 37.2981 78.628 37.5402 78.7557 37.7479C78.8115 37.8261 78.8861 37.8891 78.9728 37.9309C79.0595 37.9728 79.1554 37.9922 79.2516 37.9873C79.3467 37.9923 79.4416 37.973 79.5273 37.9314C79.6129 37.8897 79.6865 37.827 79.7411 37.7491C79.8669 37.5403 79.9258 37.2982 79.9098 37.0551C79.9248 36.8229 79.8623 36.5923 79.7321 36.3992C79.6741 36.3237 79.5985 36.2633 79.512 36.2231C79.4254 36.183 79.3303 36.1643 79.235 36.1687C79.142 36.1655 79.0497 36.1855 78.9664 36.2269C78.8832 36.2683 78.8116 36.3297 78.7582 36.4056C78.6309 36.5963 78.5682 36.8225 78.5793 37.0513L78.5844 37.0551Z" fill="white"/>
<path d="M81.2632 37.0678C81.2632 36.5686 81.3987 36.1768 81.6697 35.8924C81.9406 35.608 82.3134 35.4653 82.788 35.4645C82.9939 35.4536 83.1998 35.4861 83.3923 35.5598C83.5847 35.6335 83.7594 35.7469 83.905 35.8924C84.1777 36.1777 84.314 36.5695 84.314 37.0678C84.314 37.567 84.1772 37.9593 83.905 38.2445C83.7594 38.3901 83.5847 38.5034 83.3923 38.5771C83.1998 38.6508 82.9939 38.6833 82.788 38.6724C82.3142 38.6724 81.9415 38.5298 81.6697 38.2445C81.3911 37.9605 81.2632 37.567 81.2632 37.0678ZM82.0799 37.0678C82.0646 37.3113 82.1292 37.5531 82.264 37.7568C82.3248 37.8368 82.4044 37.9008 82.4957 37.9431C82.587 37.9855 82.6874 38.0051 82.788 38C82.8878 38.0048 82.9873 37.9851 83.0778 37.9427C83.1682 37.9003 83.2469 37.8365 83.3069 37.7568C83.427 37.5474 83.4902 37.3103 83.4902 37.0691C83.4902 36.8279 83.427 36.5908 83.3069 36.3814C83.2464 36.3021 83.1674 36.2387 83.0768 36.1968C82.9861 36.1548 82.8865 36.1356 82.7867 36.1407C82.6863 36.1355 82.5862 36.1547 82.4949 36.1966C82.4036 36.2385 82.3239 36.302 82.2627 36.3814C82.1275 36.584 82.0625 36.825 82.0774 37.0678H82.0799Z" fill="white"/>
<path d="M90.0819 37.1748C90.0754 37.3854 90.0244 37.5923 89.9321 37.7819C89.8398 37.9716 89.7084 38.1396 89.5464 38.2751C89.1837 38.5604 88.7299 38.7055 88.2683 38.6839C87.6651 38.6839 87.1964 38.4963 86.8624 38.121C86.5276 37.739 86.3602 37.2206 86.3602 36.5431C86.3602 35.8656 86.5302 35.3219 86.8714 34.9551C87.2126 34.5883 87.7034 34.4037 88.3437 34.4037C88.8652 34.4037 89.2763 34.531 89.5771 34.7857C89.7307 34.9198 89.8543 35.0845 89.9399 35.2693C90.0256 35.454 90.0713 35.6546 90.0742 35.858H89.246C89.2247 35.6529 89.1238 35.4641 88.9649 35.3321C88.7843 35.2035 88.5653 35.1398 88.3437 35.1512C88.1853 35.141 88.0267 35.1679 87.8807 35.2298C87.7346 35.2918 87.6052 35.387 87.5028 35.5078C87.3111 35.7447 87.2152 36.0911 87.2152 36.547C87.2152 36.9893 87.3106 37.3289 87.5015 37.5658C87.6805 37.7628 87.9252 37.8883 88.1902 37.919C88.4551 37.9497 88.7223 37.8834 88.9419 37.7326C89.1118 37.5906 89.224 37.3919 89.2575 37.1735L90.0819 37.1748Z" fill="white"/>
<path d="M90.6877 38.5705V35.5727H91.4354V36.0821C91.5182 35.9025 91.6447 35.7462 91.8035 35.6275C91.9517 35.5296 92.1266 35.4793 92.3045 35.4836H92.3824C92.3969 35.4827 92.4114 35.4827 92.4259 35.4836V36.2974H92.1575C92.0677 36.2906 91.9775 36.3022 91.8924 36.3316C91.8073 36.3609 91.7292 36.4074 91.6629 36.468C91.5422 36.6093 91.4825 36.7924 91.4967 36.9774V38.5629L90.6877 38.5705Z" fill="white"/>
<path d="M95.5456 35.5727V38.5705H94.7571V38.2152C94.6508 38.3533 94.5139 38.4649 94.357 38.5413C94.197 38.6156 94.0223 38.653 93.8458 38.6508C93.5161 38.6508 93.2685 38.5659 93.1032 38.3961C92.938 38.2263 92.8553 37.9682 92.8553 37.6218V35.5842H93.6605V37.3913C93.6462 37.551 93.6843 37.711 93.7691 37.8472C93.8137 37.8961 93.8692 37.9339 93.9312 37.9576C93.9931 37.9812 94.0597 37.9901 94.1257 37.9835C94.2084 37.9876 94.291 37.9747 94.3684 37.9456C94.4458 37.9165 94.5163 37.8717 94.5756 37.8141C94.6328 37.7519 94.6771 37.6791 94.7059 37.5997C94.7346 37.5203 94.7472 37.4361 94.743 37.3518V35.5727H95.5456Z" fill="white"/>
<path d="M95.9942 38.5705V37.9554L97.6442 36.2095H96.0888V35.5727H98.6066V36.226L96.9835 37.9007H98.6667V38.568L95.9942 38.5705Z" fill="white"/>
<path d="M159.306 33.836V22.3965H167.284V24.3869H161.627V26.9789H166.584V28.9673H161.627V33.836H159.306Z" fill="white"/>
<path d="M168.491 33.836V22.3965H170.843V33.836H168.491Z" fill="white"/>
<path d="M172.401 28.1269C172.401 26.279 172.904 24.8128 173.91 23.7283C174.917 22.6438 176.273 22.1009 177.98 22.0996C179.688 22.0996 181.047 22.6438 182.058 23.7322C183.07 24.8205 183.575 26.2855 183.575 28.1269C183.575 29.9697 183.07 31.4353 182.058 32.5236C181.047 33.612 179.688 34.1555 177.98 34.1543C176.273 34.1543 174.917 33.6107 173.91 32.5236C172.904 31.4365 172.401 29.971 172.401 28.1269ZM174.799 28.1269C174.799 29.3855 175.078 30.363 175.636 31.0593C176.194 31.7557 176.976 32.1039 177.98 32.1039C178.996 32.1039 179.785 31.7557 180.348 31.0593C180.911 30.363 181.192 29.3855 181.192 28.1269C181.192 26.8696 180.911 25.8922 180.348 25.1945C179.785 24.4969 178.996 24.1487 177.98 24.15C176.978 24.15 176.197 24.4969 175.636 25.1906C175.076 25.8844 174.797 26.8632 174.799 28.1269Z" fill="white"/>
<path d="M194.989 29.9084C194.9 31.2083 194.4 32.2399 193.488 33.0033C192.576 33.7668 191.384 34.1498 189.914 34.1523C188.221 34.1523 186.906 33.6243 185.968 32.5681C185.03 31.512 184.56 30.029 184.559 28.1192C184.559 26.1733 185.038 24.6819 185.995 23.6451C186.952 22.6084 188.328 22.0925 190.123 22.0977C191.582 22.0977 192.734 22.4536 193.58 23.1654C194.427 23.8773 194.891 24.8831 194.974 26.183H192.655C192.594 25.6055 192.31 25.0747 191.864 24.7032C191.433 24.3647 190.855 24.1945 190.125 24.1945C189.094 24.1945 188.308 24.5285 187.767 25.1965C187.226 25.8644 186.957 26.8406 186.959 28.125C186.959 29.3694 187.227 30.3301 187.763 31.0071C188.299 31.6841 189.061 32.0233 190.048 32.0246C190.678 32.0522 191.298 31.8586 191.801 31.4772C192.276 31.0779 192.591 30.5189 192.686 29.9046L194.989 29.9084Z" fill="white"/>
<path d="M196.47 33.836V22.3965H202.01C203.256 22.3965 204.179 22.6634 204.78 23.1973C205.38 23.7312 205.68 24.5462 205.68 25.6423C205.701 26.2524 205.549 26.8559 205.242 27.3831C204.953 27.8457 204.505 28.1858 203.982 28.3387C204.421 28.4703 204.797 28.7569 205.041 29.1453C205.249 29.509 205.369 30.0718 205.4 30.8398L205.447 32.1938V32.2402C205.465 32.925 205.612 33.3395 205.889 33.484V33.8321H203.313C203.221 33.6442 203.156 33.4443 203.12 33.2383C203.071 32.9603 203.044 32.679 203.039 32.3969L203.008 31.1918C202.981 30.4838 202.847 30.0048 202.608 29.7546C202.368 29.5044 201.934 29.3806 201.307 29.3832H198.82V33.8321L196.47 33.836ZM198.82 27.3986H201.583C202.182 27.3986 202.625 27.2768 202.907 27.033C203.189 26.7893 203.328 26.4063 203.328 25.8841C203.343 25.6773 203.314 25.4698 203.243 25.2751C203.173 25.0804 203.061 24.903 202.917 24.7544C202.644 24.4971 202.235 24.3675 201.692 24.3675H198.82V27.3986Z" fill="white"/>
<path d="M207.346 22.3652H209.721V29.5415C209.721 30.4275 209.897 31.0722 210.249 31.4759C210.601 31.8795 211.159 32.0826 211.925 32.0852C212.698 32.0852 213.266 31.8917 213.621 31.4797C213.977 31.0677 214.153 30.4275 214.153 29.5454V22.3691H216.503V29.8027C216.503 31.2057 216.111 32.2825 215.328 33.033C214.545 33.7835 213.416 34.1587 211.942 34.1587C210.457 34.1587 209.319 33.7848 208.531 33.0368C207.742 32.2889 207.348 31.2109 207.346 29.8027V22.3652Z" fill="white"/>
<path d="M217.52 33.836V31.8495L223.735 24.4701H217.645V22.3965H226.593V24.3869L220.351 31.7702H226.442V33.836H217.52Z" fill="white"/>
<path d="M130.539 46.0214H131.77C131.763 46.497 131.657 46.9659 131.457 47.3974C131.257 47.829 130.969 48.2137 130.611 48.5263C129.888 49.1466 128.956 49.4573 127.814 49.4586C126.499 49.4586 125.468 49.0453 124.722 48.2187C123.976 47.3921 123.603 46.2483 123.603 44.7873C123.603 43.4384 123.994 42.3674 124.776 41.5744C125.558 40.7813 126.614 40.3848 127.944 40.3848C129.001 40.3848 129.867 40.6362 130.541 41.1391C130.871 41.3795 131.146 41.6873 131.348 42.0421C131.55 42.397 131.674 42.7907 131.712 43.1973H130.464C130.416 42.9334 130.317 42.6815 130.172 42.4561C130.028 42.2307 129.839 42.0362 129.619 41.8839C129.1 41.5566 128.493 41.3965 127.88 41.4254C126.93 41.4254 126.195 41.7317 125.675 42.3442C125.154 42.9568 124.893 43.8201 124.89 44.9343C124.89 45.9865 125.162 46.8299 125.706 47.4644C125.97 47.7764 126.302 48.0244 126.677 48.1895C127.051 48.3547 127.458 48.4328 127.866 48.418C128.554 48.4466 129.228 48.2114 129.749 47.7603C129.993 47.5406 130.189 47.2727 130.325 46.9734C130.461 46.6742 130.534 46.3501 130.539 46.0214Z" fill="white"/>
<path d="M131.902 49.219L135.38 40.6074H136.781L140.26 49.219H138.882L137.893 46.6463H134.221L133.223 49.219H131.902ZM134.607 45.6405H137.52L136.074 41.8415L134.607 45.6405Z" fill="white"/>
<path d="M142.067 41.8821V49.219H140.907V40.6074H142.722L145.041 47.1957C145.11 47.3827 145.16 47.5278 145.192 47.6309C145.223 47.7354 145.248 47.8243 145.264 47.9037C145.298 47.7586 145.331 47.6309 145.366 47.5168C145.401 47.4027 145.436 47.2982 145.474 47.1957L147.873 40.6074H149.693V49.219H148.458V41.8821C148.429 42.0059 148.394 42.1317 148.358 42.269C148.321 42.4063 148.278 42.5205 148.236 42.6462L145.832 49.2229H144.632L142.283 42.6462C142.241 42.5359 142.204 42.4199 142.169 42.2941C142.135 42.1684 142.096 42.0253 142.067 41.8821Z" fill="white"/>
<path d="M151.357 49.2187V40.6071H154.797C155.224 40.5985 155.65 40.6238 156.073 40.6825C156.341 40.7273 156.602 40.812 156.846 40.934C157.219 41.1185 157.525 41.4145 157.723 41.7812C157.933 42.1871 158.037 42.6395 158.026 43.0966C158.036 43.5386 157.931 43.9756 157.723 44.3655C157.515 44.7361 157.207 45.0404 156.834 45.2436C156.587 45.3754 156.32 45.465 156.044 45.5086C155.548 45.5729 155.049 45.5994 154.55 45.5879H152.617V49.2187H151.357ZM152.627 44.5473H154.753C155.493 44.5473 156.009 44.439 156.299 44.2204C156.589 44.0018 156.739 43.6285 156.739 43.0966C156.739 42.5646 156.592 42.2203 156.301 41.9979C156.009 41.7754 155.528 41.6652 154.841 41.6652H152.633L152.627 44.5473Z" fill="white"/>
<path d="M159.172 45.95V40.6074H160.44V45.9616C160.44 46.7701 160.633 47.3666 161.02 47.7508C161.407 48.1351 162.006 48.3286 162.819 48.3311C163.623 48.3311 164.223 48.1377 164.618 47.7508C165.015 47.364 165.212 46.7663 165.212 45.9693V40.6074H166.487V45.95C166.487 47.1106 166.165 47.9836 165.521 48.5691C164.877 49.1545 163.929 49.4511 162.676 49.4588C161.509 49.4588 160.633 49.1668 160.048 48.5826C159.463 47.9984 159.171 47.1209 159.172 45.95Z" fill="white"/>
<path d="M167.682 46.3831H168.907C168.902 46.6662 168.96 46.9468 169.076 47.2048C169.193 47.4627 169.366 47.6915 169.581 47.8744C170.02 48.2439 170.604 48.4296 171.336 48.4296C172.069 48.4296 172.629 48.2884 173.047 48.0079C173.242 47.8884 173.402 47.7198 173.512 47.5189C173.622 47.318 173.677 47.0918 173.673 46.8628C173.673 46.2038 172.89 45.7028 171.325 45.3598L171.108 45.3134C169.839 45.0362 169.002 44.7273 168.596 44.3869C168.39 44.2077 168.227 43.9836 168.121 43.7318C168.015 43.48 167.968 43.2071 167.983 42.9342C167.974 42.5746 168.053 42.2182 168.212 41.8957C168.371 41.5732 168.606 41.2943 168.897 41.0831C169.505 40.6162 170.316 40.3835 171.329 40.3848C172.359 40.3848 173.171 40.6291 173.764 41.1179C174.057 41.3629 174.291 41.6719 174.448 42.0212C174.604 42.3705 174.679 42.7509 174.666 43.1334H173.454C173.449 42.8793 173.389 42.6293 173.279 42.4001C173.169 42.171 173.011 41.9679 172.817 41.8046C172.43 41.497 171.91 41.3442 171.245 41.3442C170.721 41.321 170.201 41.4558 169.753 41.7311C169.582 41.8353 169.44 41.9825 169.342 42.1581C169.244 42.3338 169.193 42.5319 169.195 42.733C169.195 43.3997 169.968 43.8968 171.514 44.2244L172.04 44.3404L172.173 44.3695C173.173 44.5874 173.836 44.8253 174.162 45.0832C174.409 45.2702 174.607 45.5136 174.741 45.7931C174.874 46.0856 174.94 46.4041 174.935 46.7254C174.947 47.1097 174.866 47.4912 174.697 47.8368C174.529 48.1823 174.279 48.4814 173.968 48.7081C173.324 49.1994 172.452 49.4451 171.352 49.4451C170.217 49.4451 169.333 49.1807 168.702 48.652C168.071 48.1233 167.731 47.367 167.682 46.3831Z" fill="white"/>
<path d="M181.741 49.219L178.413 40.6074H179.728L182.418 47.8166L185.027 40.6074H186.353L183.067 49.219H181.741Z" fill="white"/>
<path d="M187.058 49.219V40.6074H188.328V49.219H187.058Z" fill="white"/>
<path d="M190.046 40.6075H193.669C194.103 40.5981 194.536 40.6214 194.966 40.6771C195.225 40.7182 195.476 40.797 195.712 40.9112C196.087 41.0931 196.399 41.3818 196.611 41.741C196.822 42.1234 196.929 42.5554 196.918 42.9925C196.93 43.4125 196.817 43.8266 196.593 44.1821C196.354 44.5296 196.018 44.7988 195.627 44.9558C195.933 45.015 196.207 45.1826 196.4 45.4278C196.552 45.6496 196.648 46.0261 196.688 46.5574L196.796 47.9772C196.803 48.2096 196.846 48.4396 196.926 48.6581C196.981 48.7978 197.086 48.9117 197.221 48.9772V49.2171H195.755C195.637 49.0378 195.555 48.6542 195.507 48.0662V48.0294L195.432 46.9075C195.389 46.3272 195.256 45.9558 195.032 45.7856C194.808 45.6154 194.247 45.5284 193.35 45.5284H191.302V49.2171H190.046V40.6075ZM191.288 41.6191V44.5361H193.459C194.232 44.5361 194.796 44.4181 195.119 44.1859C195.442 43.9538 195.604 43.5612 195.604 43.0157C195.604 42.4999 195.452 42.1394 195.148 41.9344C194.844 41.7294 194.281 41.6243 193.459 41.6191H191.288Z" fill="white"/>
<path d="M200.412 49.219V41.6539H197.463V40.6074H204.639V41.6539H201.69V49.219H200.412Z" fill="white"/>
<path d="M205.392 45.95V40.6074H206.662V45.9616C206.662 46.7701 206.855 47.3666 207.242 47.7508C207.628 48.1351 208.228 48.3286 209.039 48.3311C209.843 48.3311 210.443 48.1377 210.839 47.7508C211.225 47.364 211.432 46.7663 211.432 45.9693V40.6074H212.707V45.95C212.707 47.1106 212.385 47.9836 211.741 48.5691C211.097 49.1545 210.148 49.4511 208.894 49.4588C207.727 49.4588 206.852 49.1668 206.268 48.5826C205.684 47.9984 205.392 47.1209 205.392 45.95Z" fill="white"/>
<path d="M213.065 49.219L216.544 40.6074H217.945L221.423 49.219H220.047L219.056 46.6463H215.384L214.387 49.219H213.065ZM215.771 45.6405H218.685L217.237 41.8415L215.771 45.6405Z" fill="white"/>
<path d="M222.061 49.219V40.6074H223.342V48.1319H228V49.219H222.061Z" fill="white"/>
<path d="M153.788 15.0238V14.018H152.103V7.68503H151.643C151.643 7.68503 151.697 7.23433 151.643 7.18211C153.311 3.78932 149.904 3.20709 149.904 3.20709L149.882 2.87246C149.958 2.80967 150.017 2.72988 150.056 2.63961C150.095 2.54935 150.111 2.45119 150.105 2.35321C150.098 2.25522 150.068 2.16021 150.018 2.07595C149.968 1.9917 149.898 1.92062 149.815 1.86855L149.718 0.425549C149.718 0.425549 149.718 0 149.48 0C149.243 0 149.231 0.346242 149.231 0.346242C149.231 0.346242 149.171 1.13931 149.109 1.89369C149.034 1.94596 148.972 2.01416 148.926 2.09344C148.88 2.17272 148.852 2.26113 148.845 2.35238C148.837 2.44363 148.849 2.53546 148.881 2.62134C148.913 2.70722 148.963 2.78504 149.028 2.84924C149.011 3.04268 148.997 3.15873 148.993 3.16454C145.658 4.22261 147.272 7.21693 147.272 7.21693V7.66762H146.742V14.0509H145.003V9.56518L145.532 9.06226V8.34657C145.337 8.28481 145.159 8.17858 145.012 8.03626C144.866 7.89393 144.754 7.7194 144.686 7.52642H143.864L143.433 8.02934H140.631L140.181 7.55736H139.361L138.911 8.08737H137.852L137.402 7.58444H136.669L136.167 8.06222H133.351L132.876 7.53222H132.161C132.082 7.72612 131.96 7.89916 131.803 8.03777C131.646 8.17638 131.46 8.27678 131.258 8.33109V9.10482L131.815 9.60774V14.018H130.075V7.65795H129.495V7.15503C131.057 3.8164 127.828 3.20709 127.828 3.20709L127.779 2.83764C127.844 2.77345 127.894 2.69588 127.925 2.61039C127.956 2.5249 127.968 2.43357 127.961 2.34283C127.953 2.25209 127.925 2.16416 127.88 2.08522C127.835 2.00628 127.773 1.93826 127.698 1.88596L127.586 0.400403C127.586 0.400403 127.507 0.00193436 127.348 0.00193436C127.19 0.00193436 127.13 0.400403 127.13 0.400403C127.13 0.400403 127.074 1.14705 127.014 1.86661C126.932 1.91799 126.863 1.98782 126.812 2.07058C126.761 2.15334 126.731 2.24675 126.723 2.34342C126.714 2.44008 126.729 2.53734 126.765 2.62749C126.8 2.71763 126.857 2.79819 126.929 2.86278C126.924 2.96985 126.911 3.07645 126.892 3.18195C123.557 4.05626 125.118 7.24401 125.118 7.24401V7.6947H124.589V14.0973H123V15.0238L123.663 15.5538V20.9854H123V21.8326L123.663 22.3897V26.1268H123V27.0552L123.663 27.6355V30.7092L123 31.9026V33.837H153.788V31.8756L153.152 30.7691V27.5562L153.788 27.0262V26.0455H153.152V22.4516L153.788 21.8964V20.9041H153.152V15.5267L153.788 15.0238Z" fill="white"/>
<path d="M152.173 31.1089V15.0541H151.193V8.61279H150.613V6.81195C150.766 6.66095 150.887 6.47994 150.967 6.28025C151.047 6.08056 151.085 5.86647 151.079 5.65136C151.086 5.43725 151.051 5.22383 150.974 5.02382C150.897 4.82382 150.781 4.64132 150.632 4.48722C150.483 4.33311 150.305 4.21055 150.108 4.12685C149.911 4.04314 149.699 4 149.485 4C149.271 4 149.059 4.04314 148.862 4.12685C148.665 4.21055 148.487 4.33311 148.338 4.48722C148.19 4.64132 148.074 4.82382 147.997 5.02382C147.92 5.22383 147.884 5.43725 147.892 5.65136C147.892 6.10592 147.981 6.51406 148.278 6.81195V8.66696H147.722V15.0502H144.013V9.46196L144.253 8.82557L143.59 9.03641H133.086L132.477 8.93196L132.742 9.46196V15.0521H129.036V8.63987H128.473V6.81195C128.619 6.65773 128.73 6.47488 128.801 6.27506C128.872 6.07523 128.9 5.86282 128.885 5.65136C128.892 5.43725 128.857 5.22383 128.78 5.02382C128.703 4.82382 128.587 4.64132 128.438 4.48722C128.29 4.33311 128.111 4.21055 127.914 4.12685C127.717 4.04314 127.505 4 127.291 4C127.077 4 126.865 4.04314 126.668 4.12685C126.471 4.21055 126.293 4.33311 126.145 4.48722C125.996 4.64132 125.88 4.82382 125.803 5.02382C125.726 5.22383 125.69 5.43725 125.698 5.65136C125.686 5.86381 125.717 6.07653 125.791 6.27622C125.864 6.47591 125.978 6.65829 126.125 6.81195V8.66696H125.596V15.0502H124.616V31.105L123.98 32.0857V32.9851H152.835V32.1244L152.173 31.1089Z" fill="#56CCF2"/>
</svg>
