<?xml version="1.0" encoding="UTF-8" standalone="no"?>
<svg
   xmlns:dc="http://purl.org/dc/elements/1.1/"
   xmlns:cc="http://creativecommons.org/ns#"
   xmlns:rdf="http://www.w3.org/1999/02/22-rdf-syntax-ns#"
   xmlns:svg="http://www.w3.org/2000/svg"
   xmlns="http://www.w3.org/2000/svg"
   xmlns:sodipodi="http://sodipodi.sourceforge.net/DTD/sodipodi-0.dtd"
   xmlns:inkscape="http://www.inkscape.org/namespaces/inkscape"
   width="710.42413"
   height="645.02045"
   viewBox="0 0 710.42413 645.02045"
   fill="none"
   version="1.1"
   id="svg1089"
   sodipodi:docname="pg2.imagem1.svg"
   inkscape:version="1.0 (4035a4f, 2020-05-01)">
  <metadata
     id="metadata1095">
    <rdf:RDF>
      <cc:Work
         rdf:about="">
        <dc:format>image/svg+xml</dc:format>
        <dc:type
           rdf:resource="http://purl.org/dc/dcmitype/StillImage" />
      </cc:Work>
    </rdf:RDF>
  </metadata>
  <defs
     id="defs1093">
    <rect
       x="356.77899"
       y="509.46171"
       width="234.47702"
       height="37.391685"
       id="rect1127" />
    <rect
       x="13.242888"
       y="416.76149"
       width="607.61488"
       height="142.5558"
       id="rect1121" />
    <rect
       x="119.96499"
       y="-116.07002"
       width="201.75929"
       height="56.087528"
       id="rect1113" />
    <rect
       x="-31.93873"
       y="-165.14661"
       width="683.95624"
       height="95.037201"
       id="rect1105" />
    <rect
       x="25.706783"
       y="-158.91466"
       width="645.78558"
       height="71.667397"
       id="rect1099" />
  </defs>
  <sodipodi:namedview
     inkscape:document-rotation="0"
     pagecolor="#ffffff"
     bordercolor="#666666"
     borderopacity="1"
     objecttolerance="10"
     gridtolerance="10"
     guidetolerance="10"
     inkscape:pageopacity="0"
     inkscape:pageshadow="2"
     inkscape:window-width="1920"
     inkscape:window-height="955"
     id="namedview1091"
     showgrid="false"
     inkscape:zoom="1.2837079"
     inkscape:cx="206.04377"
     inkscape:cy="552.47984"
     inkscape:window-x="0"
     inkscape:window-y="23"
     inkscape:window-maximized="0"
     inkscape:current-layer="svg1089" />
  <path
     d="m 505.445,186.54012 v 10.257 h 15.484 v 30.7703 h 43.548 v -30.7703 h 15.483 v -10.257 c 0,-12.9481 -10.398,-23.4445 -23.225,-23.4445 h -28.064 c -12.827,0 -23.226,10.4968 -23.226,23.4445 z"
     fill="#e28086"
     id="path833" />
  <path
     d="m 554.8,227.56742 h 9.677 v -35.655 c 0,-2.6977 -2.167,-4.8842 -4.839,-4.8842 -2.672,0 -4.838,2.1869 -4.838,4.8842 z"
     fill="#dd636e"
     id="path835" />
  <path
     d="m 556.735,163.09562 h -9.677 c 12.827,0 23.225,10.4964 23.225,23.4444 v 10.2571 h 9.678 v -10.2571 c 0,-12.9476 -10.399,-23.4444 -23.226,-23.4444 z"
     fill="#dd636e"
     id="path837" />
  <path
     d="m 564.477,196.79682 h 15.483 v 30.7706 h -15.483 z"
     fill="#ffddce"
     id="path839" />
  <path
     d="m 520.929,196.79682 h -15.484 v 26.2302 c 0,2.5074 2.014,4.5404 4.498,4.5404 h 10.986 z"
     fill="#ffddce"
     id="path841" />
  <path
     d="m 542.703,163.09542 c 10.689,0 19.354,-8.747 19.354,-19.537 0,-10.79 -8.665,-19.537 -19.354,-19.537 -10.689,0 -19.355,8.747 -19.355,19.537 0,10.79 8.666,19.537 19.355,19.537 z"
     fill="#ffddce"
     id="path843" />
  <path
     d="m 551.487,126.15228 c 1.346,2.66199 2.11,5.67348 2.11,8.86654 0,10.7899 -8.666,19.537 -19.355,19.537 -3.164,0 -6.147,-0.7713 -8.784,-2.1296 3.202,6.3315 9.719,10.67 17.245,10.67 10.689,0 19.354,-8.7471 19.354,-19.537 0,-7.5964 -4.298,-14.17509 -10.57,-17.40694 z"
     fill="#ffcbbe"
     id="path845" />
  <path
     d="m 514.182,196.79682 v -9.7683 c 0,-1.8806 1.51,-3.405 3.373,-3.405 1.863,0 3.373,1.5244 3.373,3.405 v 9.7683 z"
     fill="#dd636e"
     id="path847" />
  <path
     d="m 505.445,297.93842 v 10.257 h 15.484 v 30.77 h 43.548 v -30.77 h 15.483 v -10.257 c 0,-12.948 -10.398,-23.445 -23.225,-23.445 h -28.064 c -12.827,0 -23.226,10.497 -23.226,23.445 z"
     fill="#e28086"
     id="path849" />
  <path
     d="m 554.8,338.96642 h 9.677 v -35.655 c 0,-2.698 -2.167,-4.884 -4.839,-4.884 -2.672,0 -4.838,2.187 -4.838,4.884 z"
     fill="#dd636e"
     id="path851" />
  <path
     d="m 556.735,274.49342 h -9.677 c 12.827,0 23.225,10.497 23.225,23.445 v 10.257 h 9.678 v -10.257 c 0,-12.948 -10.399,-23.445 -23.226,-23.445 z"
     fill="#dd636e"
     id="path853" />
  <path
     d="m 564.477,308.19442 h 15.483 v 30.771 h -15.483 z"
     fill="#ffddce"
     id="path855" />
  <path
     d="m 520.929,308.19442 h -15.484 v 26.231 c 0,2.507 2.014,4.54 4.498,4.54 h 10.986 z"
     fill="#ffddce"
     id="path857" />
  <path
     d="m 542.703,274.49342 c 10.689,0 19.354,-8.747 19.354,-19.537 0,-10.79 -8.665,-19.537 -19.354,-19.537 -10.689,0 -19.355,8.747 -19.355,19.537 0,10.79 8.666,19.537 19.355,19.537 z"
     fill="#ffddce"
     id="path859" />
  <path
     d="m 551.487,237.55042 c 1.346,2.662 2.11,5.674 2.11,8.867 0,10.79 -8.666,19.537 -19.355,19.537 -3.164,0 -6.147,-0.771 -8.784,-2.13 3.202,6.332 9.719,10.67 17.245,10.67 10.689,0 19.354,-8.747 19.354,-19.537 0,-7.596 -4.298,-14.175 -10.57,-17.407 z"
     fill="#ffcbbe"
     id="path861" />
  <path
     d="m 514.182,308.19542 v -9.768 c 0,-1.881 1.51,-3.406 3.373,-3.406 1.863,0 3.373,1.525 3.373,3.406 v 9.768 z"
     fill="#dd636e"
     id="path863" />
  <path
     d="m 505.445,417.90542 v 10.257 h 15.484 v 30.771 h 43.548 v -30.771 h 15.483 v -10.257 c 0,-12.948 -10.398,-23.445 -23.225,-23.445 h -28.064 c -12.827,0 -23.226,10.497 -23.226,23.445 z"
     fill="#e28086"
     id="path865" />
  <path
     d="m 554.8,458.93242 h 9.677 v -35.655 c 0,-2.697 -2.167,-4.884 -4.839,-4.884 -2.672,0 -4.838,2.187 -4.838,4.884 z"
     fill="#dd636e"
     id="path867" />
  <path
     d="m 556.735,394.46042 h -9.677 c 12.827,0 23.225,10.497 23.225,23.445 v 10.257 h 9.678 v -10.257 c 0,-12.948 -10.399,-23.445 -23.226,-23.445 z"
     fill="#dd636e"
     id="path869" />
  <path
     d="m 564.477,428.16142 h 15.483 v 30.771 h -15.483 z"
     fill="#ffddce"
     id="path871" />
  <path
     d="m 520.929,428.16142 h -15.484 v 26.231 c 0,2.507 2.014,4.54 4.498,4.54 h 10.986 z"
     fill="#ffddce"
     id="path873" />
  <path
     d="m 542.703,394.46042 c 10.689,0 19.354,-8.747 19.354,-19.537 0,-10.79 -8.665,-19.537 -19.354,-19.537 -10.689,0 -19.355,8.747 -19.355,19.537 0,10.79 8.666,19.537 19.355,19.537 z"
     fill="#ffddce"
     id="path875" />
  <path
     d="m 551.487,357.51742 c 1.346,2.662 2.11,5.674 2.11,8.867 0,10.79 -8.666,19.537 -19.355,19.537 -3.164,0 -6.147,-0.772 -8.784,-2.13 3.202,6.332 9.719,10.67 17.245,10.67 10.689,0 19.354,-8.747 19.354,-19.537 0,-7.596 -4.298,-14.175 -10.57,-17.407 z"
     fill="#ffcbbe"
     id="path877" />
  <path
     d="m 514.182,428.16242 v -9.769 c 0,-1.88 1.51,-3.405 3.373,-3.405 1.863,0 3.373,1.525 3.373,3.405 v 9.769 z"
     fill="#dd636e"
     id="path879" />
  <path
     d="m 31,309.36342 v 10.257 h 15.4836 v 30.771 h 43.5478 v -30.771 h 15.4836 v -10.257 c 0,-12.948 -10.3984,-23.445 -23.2256,-23.445 H 54.2256 c -12.8272,0 -23.2256,10.497 -23.2256,23.445 z"
     fill="#ac80dd"
     id="path881" />
  <path
     d="m 80.3543,350.39142 h 9.6771 v -35.655 c 0,-2.698 -2.1665,-4.884 -4.8386,-4.884 -2.6725,0 -4.8385,2.186 -4.8385,4.884 z"
     fill="#9d66d5"
     id="path883" />
  <path
     d="m 82.2898,285.91842 h -9.6775 c 12.8272,0 23.2256,10.497 23.2256,23.445 v 10.257 h 9.6771 v -10.257 c 0,-12.948 -10.398,-23.445 -23.2252,-23.445 z"
     fill="#9d66d5"
     id="path885" />
  <path
     d="m 90.0314,319.62042 h 15.4836 v 30.77 H 90.0314 Z"
     fill="#ffddce"
     id="path887" />
  <path
     d="M 46.4836,319.62042 H 31 v 26.23 c 0,2.508 2.0137,4.54 4.498,4.54 h 10.9856 z"
     fill="#ffddce"
     id="path889" />
  <path
     d="m 68.2575,285.91842 c 10.6893,0 19.3546,-8.747 19.3546,-19.537 0,-10.79 -8.6653,-19.537 -19.3546,-19.537 -10.6893,0 -19.3546,8.747 -19.3546,19.537 0,10.79 8.6653,19.537 19.3546,19.537 z"
     fill="#ffddce"
     id="path891" />
  <path
     d="m 77.0417,248.97642 c 1.3461,2.662 2.1097,5.673 2.1097,8.866 0,10.79 -8.6655,19.537 -19.3546,19.537 -3.1637,0 -6.1471,-0.771 -8.7842,-2.13 3.2017,6.332 9.719,10.67 17.2449,10.67 10.6891,0 19.3546,-8.747 19.3546,-19.537 0,-7.596 -4.298,-14.175 -10.5704,-17.406 z"
     fill="#ffcbbe"
     id="path893" />
  <path
     d="m 39.7366,319.62042 v -9.768 c 0,-1.881 1.5103,-3.405 3.3733,-3.405 1.863,0 3.3733,1.524 3.3733,3.405 v 9.768 z"
     fill="#9d66d5"
     id="path895" />
  <path
     d="m 202.668,309.36342 v 10.257 h 15.484 v 30.771 h 43.547 v -30.771 h 15.484 v -10.257 c 0,-12.948 -10.398,-23.445 -23.226,-23.445 h -28.063 c -12.828,0 -23.226,10.497 -23.226,23.445 z"
     fill="#e7a561"
     id="path897" />
  <path
     d="m 252.022,350.39142 h 9.677 v -35.655 c 0,-2.698 -2.166,-4.884 -4.838,-4.884 -2.673,0 -4.839,2.186 -4.839,4.884 z"
     fill="#e49542"
     id="path899" />
  <path
     d="m 253.958,285.91842 h -9.678 c 12.828,0 23.226,10.497 23.226,23.445 v 10.257 h 9.677 v -10.257 c 0,-12.948 -10.398,-23.445 -23.225,-23.445 z"
     fill="#e49542"
     id="path901" />
  <path
     d="m 261.699,319.62042 h 15.484 v 30.77 h -15.484 z"
     fill="#ffddce"
     id="path903" />
  <path
     d="m 218.152,319.62042 h -15.484 v 26.23 c 0,2.508 2.014,4.54 4.498,4.54 h 10.986 z"
     fill="#ffddce"
     id="path905" />
  <path
     d="m 239.926,285.91842 c 10.689,0 19.354,-8.747 19.354,-19.537 0,-10.79 -8.665,-19.537 -19.354,-19.537 -10.69,0 -19.355,8.747 -19.355,19.537 0,10.79 8.665,19.537 19.355,19.537 z"
     fill="#ffddce"
     id="path907" />
  <path
     d="m 248.71,248.97642 c 1.346,2.662 2.109,5.673 2.109,8.866 0,10.79 -8.665,19.537 -19.354,19.537 -3.164,0 -6.147,-0.771 -8.784,-2.13 3.201,6.332 9.719,10.67 17.245,10.67 10.689,0 19.354,-8.747 19.354,-19.537 0,-7.596 -4.298,-14.175 -10.57,-17.406 z"
     fill="#ffcbbe"
     id="path909" />
  <path
     d="m 211.405,319.62042 v -9.768 c 0,-1.881 1.51,-3.405 3.373,-3.405 1.863,0 3.373,1.524 3.373,3.405 v 9.768 z"
     fill="#e49542"
     id="path911" />
  <path
     d="m 251.716,309.36342 v 10.257 H 267.2 v 30.771 h 43.547 v -30.771 h 15.484 v -10.257 c 0,-12.948 -10.398,-23.445 -23.226,-23.445 h -28.063 c -12.828,0 -23.226,10.497 -23.226,23.445 z"
     fill="#95d6a4"
     id="path913" />
  <path
     d="m 301.07,350.39142 h 9.677 v -35.655 c 0,-2.698 -2.166,-4.884 -4.838,-4.884 -2.673,0 -4.839,2.186 -4.839,4.884 z"
     fill="#78c2a4"
     id="path915" />
  <path
     d="m 303.006,285.91842 h -9.678 c 12.828,0 23.226,10.497 23.226,23.445 v 10.257 h 9.678 v -10.257 c 0,-12.948 -10.399,-23.445 -23.226,-23.445 z"
     fill="#78c2a4"
     id="path917" />
  <path
     d="m 310.747,319.62042 h 15.484 v 30.77 h -15.484 z"
     fill="#ffddce"
     id="path919" />
  <path
     d="m 267.2,319.62042 h -15.484 v 26.23 c 0,2.508 2.014,4.54 4.498,4.54 H 267.2 Z"
     fill="#ffddce"
     id="path921" />
  <path
     d="m 288.974,285.91842 c 10.689,0 19.354,-8.747 19.354,-19.537 0,-10.79 -8.665,-19.537 -19.354,-19.537 -10.69,0 -19.355,8.747 -19.355,19.537 0,10.79 8.665,19.537 19.355,19.537 z"
     fill="#ffddce"
     id="path923" />
  <path
     d="m 297.758,248.97642 c 1.346,2.662 2.11,5.673 2.11,8.866 0,10.79 -8.666,19.537 -19.355,19.537 -3.164,0 -6.147,-0.771 -8.784,-2.13 3.201,6.332 9.719,10.67 17.245,10.67 10.689,0 19.354,-8.747 19.354,-19.537 0,-7.596 -4.298,-14.175 -10.57,-17.406 z"
     fill="#ffcbbe"
     id="path925" />
  <path
     d="m 260.453,319.62042 v -9.768 c 0,-1.881 1.51,-3.405 3.373,-3.405 1.863,0 3.373,1.524 3.373,3.405 v 9.768 z"
     fill="#78c2a4"
     id="path927" />
  <path
     d="m 555.437,187.49182 v 10.257 h 15.483 v 30.7706 h 43.548 v -30.7706 h 15.483 v -10.257 c 0,-12.9482 -10.398,-23.4445 -23.225,-23.4445 h -28.064 c -12.827,0 -23.225,10.4968 -23.225,23.4445 z"
     fill="#95d6a4"
     id="path929" />
  <path
     d="m 604.791,228.51942 h 9.677 v -35.6544 c 0,-2.6977 -2.167,-4.8841 -4.839,-4.8841 -2.672,0 -4.838,2.1869 -4.838,4.8841 z"
     fill="#78c2a4"
     id="path931" />
  <path
     d="m 606.726,164.04732 h -9.677 c 12.827,0 23.225,10.4964 23.225,23.4445 v 10.257 h 9.678 v -10.257 c 0,-12.9477 -10.398,-23.4445 -23.226,-23.4445 z"
     fill="#78c2a4"
     id="path933" />
  <path
     d="m 614.468,197.74852 h 15.483 v 30.7709 h -15.483 z"
     fill="#ffddce"
     id="path935" />
  <path
     d="m 570.92,197.74852 h -15.483 v 26.2302 c 0,2.5077 2.013,4.5407 4.498,4.5407 h 10.985 z"
     fill="#ffddce"
     id="path937" />
  <path
     d="m 592.694,164.04752 c 10.689,0 19.355,-8.747 19.355,-19.537 0,-10.78995 -8.666,-19.53695 -19.355,-19.53695 -10.689,0 -19.355,8.747 -19.355,19.53695 0,10.79 8.666,19.537 19.355,19.537 z"
     fill="#ffddce"
     id="path939" />
  <path
     d="m 601.478,127.10345 c 1.346,2.662 2.11,5.67349 2.11,8.86657 0,10.7899 -8.666,19.537 -19.355,19.537 -3.163,0 -6.147,-0.7713 -8.784,-2.1296 3.202,6.3315 9.719,10.67 17.245,10.67 10.689,0 19.355,-8.7471 19.355,-19.537 0,-7.5964 -4.298,-14.17511 -10.571,-17.40697 z"
     fill="#ffcbbe"
     id="path941" />
  <path
     d="m 564.173,197.74892 v -9.7682 c 0,-1.8806 1.51,-3.4051 3.373,-3.4051 1.863,0 3.374,1.5245 3.374,3.4051 v 9.7682 z"
     fill="#78c2a4"
     id="path943" />
  <path
     d="m 555.437,298.89042 v 10.257 h 15.483 v 30.771 h 43.548 v -30.771 h 15.484 v -10.257 c 0,-12.948 -10.399,-23.445 -23.226,-23.445 h -28.064 c -12.827,0 -23.225,10.497 -23.225,23.445 z"
     fill="#95d6a4"
     id="path945" />
  <path
     d="m 604.791,339.91742 h 9.677 v -35.655 c 0,-2.698 -2.167,-4.884 -4.839,-4.884 -2.672,0 -4.838,2.187 -4.838,4.884 z"
     fill="#78c2a4"
     id="path947" />
  <path
     d="m 606.726,275.44542 h -9.677 c 12.827,0 23.225,10.497 23.225,23.445 v 10.257 h 9.678 v -10.257 c 0,-12.948 -10.398,-23.445 -23.226,-23.445 z"
     fill="#78c2a4"
     id="path949" />
  <path
     d="m 614.468,309.14642 h 15.484 v 30.771 h -15.484 z"
     fill="#ffddce"
     id="path951" />
  <path
     d="m 570.92,309.14642 h -15.483 v 26.231 c 0,2.508 2.013,4.54 4.498,4.54 h 10.985 z"
     fill="#ffddce"
     id="path953" />
  <path
     d="m 592.694,275.44542 c 10.689,0 19.355,-8.747 19.355,-19.537 0,-10.79 -8.666,-19.537 -19.355,-19.537 -10.689,0 -19.355,8.747 -19.355,19.537 0,10.79 8.666,19.537 19.355,19.537 z"
     fill="#ffddce"
     id="path955" />
  <path
     d="m 601.478,238.50242 c 1.346,2.662 2.11,5.673 2.11,8.867 0,10.789 -8.665,19.536 -19.355,19.536 -3.163,0 -6.147,-0.771 -8.784,-2.129 3.202,6.331 9.719,10.67 17.245,10.67 10.689,0 19.355,-8.747 19.355,-19.537 0,-7.596 -4.298,-14.175 -10.571,-17.407 z"
     fill="#ffcbbe"
     id="path957" />
  <path
     d="m 564.173,309.14742 v -9.768 c 0,-1.881 1.51,-3.405 3.373,-3.405 1.863,0 3.374,1.524 3.374,3.405 v 9.768 z"
     fill="#78c2a4"
     id="path959" />
  <path
     d="m 555.437,418.85742 v 10.257 h 15.483 v 30.77 h 43.548 v -30.77 h 15.484 v -10.257 c 0,-12.949 -10.399,-23.445 -23.226,-23.445 h -28.064 c -12.827,0 -23.225,10.497 -23.225,23.445 z"
     fill="#95d6a4"
     id="path961" />
  <path
     d="m 604.791,459.88442 h 9.677 v -35.655 c 0,-2.697 -2.167,-4.884 -4.839,-4.884 -2.672,0 -4.838,2.187 -4.838,4.884 z"
     fill="#78c2a4"
     id="path963" />
  <path
     d="m 606.726,395.41242 h -9.677 c 12.827,0 23.225,10.496 23.225,23.445 v 10.257 h 9.678 v -10.257 c 0,-12.948 -10.398,-23.445 -23.226,-23.445 z"
     fill="#78c2a4"
     id="path965" />
  <path
     d="m 614.468,429.11342 h 15.484 v 30.771 h -15.484 z"
     fill="#ffddce"
     id="path967" />
  <path
     d="m 570.92,429.11342 h -15.483 v 26.231 c 0,2.507 2.013,4.54 4.498,4.54 h 10.985 z"
     fill="#ffddce"
     id="path969" />
  <path
     d="m 592.694,395.41242 c 10.689,0 19.355,-8.747 19.355,-19.537 0,-10.79 -8.666,-19.537 -19.355,-19.537 -10.689,0 -19.355,8.747 -19.355,19.537 0,10.79 8.666,19.537 19.355,19.537 z"
     fill="#ffddce"
     id="path971" />
  <path
     d="m 601.478,358.46942 c 1.346,2.662 2.11,5.674 2.11,8.867 0,10.79 -8.665,19.537 -19.355,19.537 -3.163,0 -6.147,-0.771 -8.784,-2.13 3.202,6.332 9.719,10.67 17.245,10.67 10.689,0 19.355,-8.747 19.355,-19.537 0,-7.596 -4.298,-14.175 -10.571,-17.407 z"
     fill="#ffcbbe"
     id="path973" />
  <path
     d="m 564.173,429.11442 v -9.769 c 0,-1.88 1.51,-3.405 3.373,-3.405 1.863,0 3.374,1.525 3.374,3.405 v 9.769 z"
     fill="#78c2a4"
     id="path975" />
  <path
     d="m 300.764,309.36342 v 10.257 h 15.484 v 30.771 h 43.548 v -30.771 h 15.483 v -10.257 c 0,-12.948 -10.398,-23.445 -23.226,-23.445 H 323.99 c -12.828,0 -23.226,10.497 -23.226,23.445 z"
     fill="#90d8f9"
     id="path977" />
  <path
     d="m 350.118,350.39142 h 9.677 v -35.655 c 0,-2.698 -2.166,-4.884 -4.838,-4.884 -2.673,0 -4.839,2.186 -4.839,4.884 z"
     fill="#6bbef6"
     id="path979" />
  <path
     d="m 352.054,285.91842 h -9.678 c 12.828,0 23.226,10.497 23.226,23.445 v 10.257 h 9.678 v -10.257 c 0,-12.948 -10.399,-23.445 -23.226,-23.445 z"
     fill="#6bbef6"
     id="path981" />
  <path
     d="m 359.795,319.62042 h 15.484 v 30.77 h -15.484 z"
     fill="#ffddce"
     id="path983" />
  <path
     d="m 316.248,319.62042 h -15.484 v 26.23 c 0,2.508 2.014,4.54 4.498,4.54 h 10.986 z"
     fill="#ffddce"
     id="path985" />
  <path
     d="m 338.022,285.91842 c 10.689,0 19.354,-8.747 19.354,-19.537 0,-10.79 -8.665,-19.537 -19.354,-19.537 -10.69,0 -19.355,8.747 -19.355,19.537 0,10.79 8.665,19.537 19.355,19.537 z"
     fill="#ffddce"
     id="path987" />
  <path
     d="m 346.806,248.97642 c 1.346,2.662 2.11,5.673 2.11,8.866 0,10.79 -8.666,19.537 -19.355,19.537 -3.164,0 -6.147,-0.771 -8.784,-2.13 3.201,6.332 9.719,10.67 17.245,10.67 10.689,0 19.354,-8.747 19.354,-19.537 0,-7.596 -4.298,-14.175 -10.57,-17.406 z"
     fill="#ffcbbe"
     id="path989" />
  <path
     d="m 309.501,319.62042 v -9.768 c 0,-1.881 1.51,-3.405 3.373,-3.405 1.863,0 3.373,1.524 3.373,3.405 v 9.768 z"
     fill="#6bbef6"
     id="path991" />
  <path
     d="m 604.485,187.49182 v 10.257 h 15.483 v 30.7706 h 43.548 v -30.7706 H 679 v -10.257 c 0,-12.9482 -10.399,-23.4445 -23.226,-23.4445 H 627.71 c -12.827,0 -23.225,10.4968 -23.225,23.4445 z"
     fill="#90d8f9"
     id="path993" />
  <path
     d="m 653.839,228.51942 h 9.677 v -35.6544 c 0,-2.6977 -2.167,-4.8841 -4.839,-4.8841 -2.672,0 -4.838,2.1869 -4.838,4.8841 z"
     fill="#6bbef6"
     id="path995" />
  <path
     d="m 655.774,164.04732 h -9.677 c 12.827,0 23.225,10.4964 23.225,23.4445 v 10.257 H 679 v -10.257 c 0,-12.9477 -10.398,-23.4445 -23.226,-23.4445 z"
     fill="#6bbef6"
     id="path997" />
  <path
     d="M 663.516,197.74852 H 679 v 30.7709 h -15.484 z"
     fill="#ffddce"
     id="path999" />
  <path
     d="m 619.968,197.74852 h -15.483 v 26.2302 c 0,2.5077 2.013,4.5407 4.498,4.5407 h 10.985 z"
     fill="#ffddce"
     id="path1001" />
  <path
     d="m 641.742,164.04752 c 10.689,0 19.355,-8.747 19.355,-19.537 0,-10.78995 -8.666,-19.53695 -19.355,-19.53695 -10.689,0 -19.355,8.747 -19.355,19.53695 0,10.79 8.666,19.537 19.355,19.537 z"
     fill="#ffddce"
     id="path1003" />
  <path
     d="m 650.526,127.10345 c 1.346,2.662 2.11,5.67349 2.11,8.86657 0,10.7899 -8.665,19.537 -19.355,19.537 -3.163,0 -6.147,-0.7713 -8.784,-2.1296 3.202,6.3315 9.719,10.67 17.245,10.67 10.689,0 19.355,-8.7471 19.355,-19.537 0,-7.5964 -4.298,-14.17511 -10.571,-17.40697 z"
     fill="#ffcbbe"
     id="path1005" />
  <path
     d="m 613.221,197.74892 v -9.7682 c 0,-1.8806 1.51,-3.4051 3.373,-3.4051 1.863,0 3.374,1.5245 3.374,3.4051 v 9.7682 z"
     fill="#6bbef6"
     id="path1007" />
  <path
     d="m 604.485,298.89042 v 10.257 h 15.483 v 30.771 h 43.548 v -30.771 H 679 v -10.257 c 0,-12.948 -10.399,-23.445 -23.226,-23.445 H 627.71 c -12.827,0 -23.225,10.497 -23.225,23.445 z"
     fill="#90d8f9"
     id="path1009" />
  <path
     d="m 653.839,339.91742 h 9.677 v -35.655 c 0,-2.698 -2.167,-4.884 -4.839,-4.884 -2.672,0 -4.838,2.187 -4.838,4.884 z"
     fill="#6bbef6"
     id="path1011" />
  <path
     d="m 655.774,275.44542 h -9.677 c 12.827,0 23.225,10.497 23.225,23.445 v 10.257 H 679 v -10.257 c 0,-12.948 -10.398,-23.445 -23.226,-23.445 z"
     fill="#6bbef6"
     id="path1013" />
  <path
     d="M 663.516,309.14642 H 679 v 30.771 h -15.484 z"
     fill="#ffddce"
     id="path1015" />
  <path
     d="m 619.968,309.14642 h -15.483 v 26.231 c 0,2.508 2.013,4.54 4.498,4.54 h 10.985 z"
     fill="#ffddce"
     id="path1017" />
  <path
     d="m 641.742,275.44542 c 10.689,0 19.355,-8.747 19.355,-19.537 0,-10.79 -8.666,-19.537 -19.355,-19.537 -10.689,0 -19.355,8.747 -19.355,19.537 0,10.79 8.666,19.537 19.355,19.537 z"
     fill="#ffddce"
     id="path1019" />
  <path
     d="m 650.526,238.50242 c 1.346,2.662 2.11,5.673 2.11,8.867 0,10.789 -8.665,19.536 -19.355,19.536 -3.163,0 -6.147,-0.771 -8.784,-2.129 3.202,6.331 9.719,10.67 17.245,10.67 10.689,0 19.355,-8.747 19.355,-19.537 0,-7.596 -4.298,-14.175 -10.571,-17.407 z"
     fill="#ffcbbe"
     id="path1021" />
  <path
     d="m 613.221,309.14742 v -9.768 c 0,-1.881 1.51,-3.405 3.373,-3.405 1.863,0 3.374,1.524 3.374,3.405 v 9.768 z"
     fill="#6bbef6"
     id="path1023" />
  <path
     d="m 604.485,418.85742 v 10.257 h 15.483 v 30.77 h 43.548 v -30.77 H 679 v -10.257 c 0,-12.949 -10.399,-23.445 -23.226,-23.445 H 627.71 c -12.827,0 -23.225,10.497 -23.225,23.445 z"
     fill="#90d8f9"
     id="path1025" />
  <path
     d="m 653.839,459.88442 h 9.677 v -35.655 c 0,-2.697 -2.167,-4.884 -4.839,-4.884 -2.672,0 -4.838,2.187 -4.838,4.884 z"
     fill="#6bbef6"
     id="path1027" />
  <path
     d="m 655.774,395.41242 h -9.677 c 12.827,0 23.225,10.496 23.225,23.445 v 10.257 H 679 v -10.257 c 0,-12.948 -10.398,-23.445 -23.226,-23.445 z"
     fill="#6bbef6"
     id="path1029" />
  <path
     d="M 663.516,429.11342 H 679 v 30.771 h -15.484 z"
     fill="#ffddce"
     id="path1031" />
  <path
     d="m 619.968,429.11342 h -15.483 v 26.231 c 0,2.507 2.013,4.54 4.498,4.54 h 10.985 z"
     fill="#ffddce"
     id="path1033" />
  <path
     d="m 641.742,395.41242 c 10.689,0 19.355,-8.747 19.355,-19.537 0,-10.79 -8.666,-19.537 -19.355,-19.537 -10.689,0 -19.355,8.747 -19.355,19.537 0,10.79 8.666,19.537 19.355,19.537 z"
     fill="#ffddce"
     id="path1035" />
  <path
     d="m 650.526,358.46942 c 1.346,2.662 2.11,5.674 2.11,8.867 0,10.79 -8.665,19.537 -19.355,19.537 -3.163,0 -6.147,-0.771 -8.784,-2.13 3.202,6.332 9.719,10.67 17.245,10.67 10.689,0 19.355,-8.747 19.355,-19.537 0,-7.596 -4.298,-14.175 -10.571,-17.407 z"
     fill="#ffcbbe"
     id="path1037" />
  <path
     d="m 613.221,429.11442 v -9.769 c 0,-1.88 1.51,-3.405 3.373,-3.405 1.863,0 3.374,1.525 3.374,3.405 v 9.769 z"
     fill="#6bbef6"
     id="path1039" />
  <path
     d="m 169.164,287.78642 13.435,11.387 -13.309,11.445 c -1.866,-0.135 -3.334,-1.359 -3.342,-2.856 l -0.011,-2.546 -37.814,0.069 c -2.041,0.01 -3.707,-1.61 -3.719,-3.623 l -0.024,-4.721 c -0.008,-2.012 1.638,-3.64 3.678,-3.65 l 37.814,-0.066 v -2.542 c -0.012,-1.497 1.436,-2.738 3.301,-2.895"
     fill="#fd4e26"
     id="path1041" />
  <path
     d="m 478.543,287.78542 13.436,11.388 -13.309,11.444 c -1.866,-0.134 -3.334,-1.359 -3.342,-2.855 l -0.011,-2.546 -68.941,0.068 c -2.04,0.011 -3.707,-1.61 -3.718,-3.623 l -0.025,-4.72 c -0.007,-2.012 1.639,-3.64 3.678,-3.651 l 68.941,-0.065 v -2.543 c -0.012,-1.496 1.436,-2.738 3.301,-2.895"
     fill="#fd4e26"
     id="path1043" />
  <path
     d="m 472.467,367.99242 5.995,16.643 -17.195,3.194 c -1.549,-1.058 -2.214,-2.86 -1.479,-4.16 l 1.251,-2.21 -59.739,-34.736 c -1.772,-1.021 -2.412,-3.265 -1.425,-5.014 l 2.317,-4.101 c 0.99,-1.746 3.222,-2.325 4.993,-1.305 l 59.737,34.738 1.259,-2.201 c 0.732,-1.302 2.601,-1.647 4.293,-0.842"
     fill="#fd4e26"
     id="path1045" />
  <path
     d="m 461.158,209.82822 17.276,3.0807 -5.857,16.6285 c -1.683,0.825 -3.561,0.506 -4.309,-0.786 l -1.271,-2.199 -59.67,34.854 c -1.762,1.039 -4.008,0.477 -5.015,-1.261 l -2.359,-4.075 c -1.003,-1.739 -0.384,-3.98 1.376,-5.018 l 59.672,-34.8521 -1.259,-2.2016 c -0.751,-1.2905 -0.112,-3.0964 1.425,-4.1737"
     fill="#fd4e26"
     id="path1047" />
  <path
     d="m 73.521882,571.3396 c -5.3738,0 -16.366,-6.179 -17.0228,-15.095 l -1.2456,-16.912 c -0.7818,-10.618 7.6216,-19.663 18.2682,-19.663 10.6465,0 19.0502,9.045 18.2683,19.663 l -1.2455,16.912 c -0.6566,8.916 -11.6488,15.095 -17.0226,15.095 z"
     fill="#ffccbc"
     id="path1053" />
  <path
     d="m 75.718682,519.8006 c 5.8568,3.395 9.6346,9.932 9.0989,17.208 l -1.2456,16.912 c -0.6566,8.916 -11.6489,15.095 -17.0228,15.095 -0.1441,0 -0.2931,-0.005 -0.4451,-0.014 2.7036,1.501 5.4408,2.339 7.4178,2.339 5.3738,0 16.366,-6.179 17.0228,-15.096 l 1.2455,-16.912 c 0.7273,-9.876 -6.4924,-18.389 -16.0715,-19.532 z"
     fill="#ff8a65"
     id="path1055" />
  <path
     d="m 29.965582,515.7986 h -8.48157 v 97.382 h 8.48157 z"
     fill="#bdbdbd"
     id="path1057" />
  <path
     d="m 55.203282,515.7986 h -8.4815 v 97.382 h 8.4815 z"
     fill="#bdbdbd"
     id="path1059" />
  <path
     d="m 100.32388,515.7986 h -8.481598 v 97.382 h 8.481598 z"
     fill="#bdbdbd"
     id="path1061" />
  <path
     d="m 125.55988,515.7986 h -8.481 v 97.382 h 8.481 z"
     fill="#bdbdbd"
     id="path1063" />
  <path
     d="m 111.33598,586.7226 c 0,-6.071 -4.9211,-10.992 -10.9915,-10.992 h -0.0209 v 37.449 h 11.0124 z"
     fill="#757575"
     id="path1065" />
  <path
     d="m 111.33598,588.2136 h -11.0124 v 12.483 h 11.0124 z"
     fill="#424242"
     id="path1067" />
  <path
     d="m 46.699182,575.7306 c -6.0703,0 -10.9914,4.921 -10.9914,10.992 v 26.457 h 11.014 v -37.449 z"
     fill="#e0e0e0"
     id="path1069" />
  <path
     d="m 85.987382,575.7306 c 0.0118,6.895 -5.5737,12.488 -12.4655,12.488 -6.8918,0 -12.4771,-5.593 -12.4653,-12.488 h -5.8533 v 37.449 h 36.639 v -37.449 z"
     fill="#e0e0e0"
     id="path1071" />
  <path
     d="m 85.987382,575.7306 c 0.0058,3.342 -1.3062,6.376 -3.442,8.617 v 16.577 c 0,4.201 -3.4059,7.607 -7.6071,7.607 h -19.735 v 4.648 h 36.639 v -37.449 z"
     fill="#757575"
     id="path1073" />
  <path
     d="m 91.842082,588.2136 h -36.639 v 12.483 h 36.639 z"
     fill="#757575"
     id="path1075" />
  <path
     d="m 82.545382,588.2136 v 2.783 c 0,2.79 -2.2614,5.051 -5.0512,5.051 h -22.2909 v 4.649 h 36.639 v -12.483 z"
     fill="#424242"
     id="path1077" />
  <path
     d="m 46.721782,588.2136 h -11.014 v 12.483 h 11.014 z"
     fill="#757575"
     id="path1079" />
  <path
     d="m 73.521882,588.2176 c 6.8918,0 12.4771,-5.593 12.4655,-12.487 h -1.5638 c -0.8688,0 -1.573,-0.704 -1.573,-1.573 v -6.336 c -3.2704,2.237 -6.8818,3.518 -9.3285,3.518 -2.4467,0 -6.0583,-1.281 -9.3287,-3.518 v 6.336 c 0,0.869 -0.7042,1.573 -1.573,1.573 h -1.5638 c -0.0118,6.894 5.5735,12.487 12.4653,12.487 z"
     fill="#ffccbc"
     id="path1081" />
  <path
     d="m 84.423382,575.7306 c -0.8688,0 -1.573,-0.704 -1.573,-1.573 v -6.336 c -1.4684,1.005 -3.005,1.814 -4.4746,2.404 0.2608,0.508 0.7889,0.856 1.3992,0.856 0.879,0 1.5728,0.768 1.4598,1.64 -0.7932,6.12 -6.0253,10.847 -12.3613,10.847 -2.2485,0 -4.3556,-0.598 -6.1771,-1.639 2.1476,3.755 6.1894,6.288 10.8255,6.288 6.8918,0 12.4771,-5.593 12.4655,-12.488 h -1.564 z"
     fill="#ff8a65"
     id="path1083" />
  <path
     d="M 131.27888,517.5406 H 15.765042 c -0.962687,0 -1.74316,-0.78 -1.74316,-1.743 v -9.066 c 0,-0.963 0.780473,-1.743 1.74316,-1.743 H 131.27888 c 0.963,0 1.743,0.78 1.743,1.743 v 9.066 c 0,0.963 -0.78,1.743 -1.743,1.743 z"
     fill="#e0e0e0"
     id="path1085" />
  <path
     d="M 131.27888,623.9876 H 15.765042 c -0.962687,0 -1.74316,-0.78 -1.74316,-1.743 v -9.066 c 0,-0.962 0.780473,-1.743 1.74316,-1.743 H 131.27888 c 0.963,0 1.743,0.781 1.743,1.743 v 9.066 c 0,0.963 -0.78,1.743 -1.743,1.743 z"
     fill="#e0e0e0"
     id="path1087" />
  <text
     xml:space="preserve"
     id="text1103"
     style="font-size:16px;line-height:1.25;font-family:sans-serif;white-space:pre;shape-inside:url(#rect1105);"
     x="1014.0661"
     y="0"
     transform="translate(51.413567,181.14177)"><tspan
       x="-28.31457"
       y="-145.68347"><tspan
         style="font-style:italic;font-variant:normal;font-weight:normal;font-stretch:normal;font-size:21.3333px;font-family:sans-serif;-inkscape-font-specification:'sans-serif Italic';text-align:center;text-anchor:middle;fill:#008000">O</tspan><tspan
         style="font-style:normal;font-variant:normal;font-weight:bold;font-stretch:normal;font-size:21.3333px;font-family:sans-serif;-inkscape-font-specification:'sans-serif Bold'"> </tspan><tspan
         style="font-style:normal;font-variant:normal;font-weight:bold;font-stretch:normal;font-size:21.3333px;font-family:sans-serif;-inkscape-font-specification:'sans-serif Bold';fill:#008000">surto</tspan><tspan
         style="font-style:normal;font-variant:normal;font-weight:bold;font-stretch:normal;font-size:21.3333px;font-family:sans-serif;-inkscape-font-specification:'sans-serif Bold'"> </tspan><tspan
         style="font-style:italic;font-variant:normal;font-weight:normal;font-stretch:normal;font-size:21.3333px;font-family:sans-serif;-inkscape-font-specification:'sans-serif Italic';text-align:center;text-anchor:middle;fill:#008000">é um tipo de epidemia em que os casos se restringem </tspan></tspan><tspan
       x="-25.397908"
       y="-119.01684"><tspan
         style="font-style:italic;font-variant:normal;font-weight:normal;font-stretch:normal;font-size:21.3333px;font-family:sans-serif;-inkscape-font-specification:'sans-serif Italic';text-align:center;text-anchor:middle;fill:#008000">a uma área geográfica geralmente pequena e bem definida ou </tspan></tspan><tspan
       x="118.16437"
       y="-92.350216"><tspan
         style="font-style:italic;font-variant:normal;font-weight:normal;font-stretch:normal;font-size:21.3333px;font-family:sans-serif;-inkscape-font-specification:'sans-serif Italic';text-align:center;text-anchor:middle;fill:#008000">a uma população institucionalizada.</tspan></tspan></text>
  <text
     xml:space="preserve"
     id="text1111"
     style="font-size:5.33333000000000013px;line-height:1.25;font-family:sans-serif;white-space:pre;shape-inside:url(#rect1113);"
     transform="translate(0,86.021424)" />
  <text
     xml:space="preserve"
     id="text1119"
     style="font-size:20px;line-height:1.25;font-family:sans-serif;white-space:pre;shape-inside:url(#rect1121);"
     x="0"
     y="0"
     transform="translate(134.76586,86.468271)"><tspan
       x="13.242188"
       y="435.00833"><tspan
         style="font-style:italic;font-variant:normal;font-weight:normal;font-stretch:normal;font-size:20px;font-family:sans-serif;-inkscape-font-specification:'sans-serif Italic';text-align:start;text-anchor:start;fill:#008000">É definido como</tspan><tspan
         style="font-style:normal;font-variant:normal;font-weight:bold;font-stretch:normal;font-family:sans-serif;-inkscape-font-specification:'sans-serif Bold';fill:#008000"> </tspan><tspan
         style="font-style:normal;font-variant:normal;font-weight:bold;font-stretch:normal;font-size:20px;font-family:sans-serif;-inkscape-font-specification:'sans-serif Bold';text-align:start;text-anchor:start;fill:#008000">surto em comunidade fechada ou </tspan></tspan><tspan
       x="13.242188"
       y="460.00833"><tspan
         style="font-style:normal;font-variant:normal;font-weight:bold;font-stretch:normal;font-family:sans-serif;-inkscape-font-specification:'sans-serif Bold';fill:#008000">semifechada</tspan><tspan
         style="font-style:italic;font-variant:normal;font-weight:bold;font-stretch:normal;font-size:20px;font-family:sans-serif;-inkscape-font-specification:'sans-serif Bold Italic';text-align:start;text-anchor:start"> </tspan><tspan
         style="font-style:italic;font-variant:normal;font-weight:normal;font-stretch:normal;font-size:20px;font-family:sans-serif;-inkscape-font-specification:'sans-serif Italic';text-align:start;text-anchor:start;fill:#008000">a ocorrência de pelo menos 3 casos e </tspan></tspan><tspan
       x="13.242188"
       y="485.00833"><tspan
         style="font-style:italic;font-variant:normal;font-weight:normal;font-stretch:normal;font-size:20px;font-family:sans-serif;-inkscape-font-specification:'sans-serif Italic';text-align:start;text-anchor:start;fill:#008000">síndrome gripal ou óbitos, no mesmo ambiente, </tspan></tspan><tspan
       x="13.242188"
       y="510.00833"><tspan
         style="font-style:italic;font-variant:normal;font-weight:normal;font-stretch:normal;font-size:20px;font-family:sans-serif;-inkscape-font-specification:'sans-serif Italic';text-align:start;text-anchor:start;fill:#008000">observando-se as datas de início dos sintomas
</tspan></tspan><tspan
       x="13.242188"
       y="535.00833"><tspan
         style="font-style:italic;font-variant:normal;font-weight:normal;font-stretch:normal;font-size:20px;font-family:sans-serif;-inkscape-font-specification:'sans-serif Italic';text-align:start;text-anchor:start;fill:#008000">(BRASIL, 2019).</tspan></tspan></text>
  <text
     xml:space="preserve"
     id="text1125"
     style="line-height:1.25;font-family:sans-serif;font-size:5.33333333000000032px;white-space:pre;shape-inside:url(#rect1127);" />
</svg>
