<svg width="804" height="346" viewBox="0 0 804 346" fill="none" xmlns="http://www.w3.org/2000/svg">
<ellipse cx="649.5" cy="172.5" rx="154.5" ry="65.5" fill="#E2C4FF"/>
<ellipse cx="403" cy="66" rx="155" ry="66" fill="#78C2A4"/>
<ellipse cx="403" cy="280" rx="155" ry="66" fill="#95D6A4"/>
<ellipse cx="154.5" cy="172.5" rx="154.5" ry="65.5" fill="#6BBEF6"/>
<g style="mix-blend-mode:multiply">
<ellipse cx="402.5" cy="172.5" rx="154.5" ry="65.5" fill="#FF0000"/>
</g>
<path d="M319.036 61.4912V66H316.4V53.2031H321.392C322.353 53.2031 323.196 53.3789 323.923 53.7305C324.655 54.082 325.218 54.583 325.611 55.2334C326.003 55.8779 326.199 56.6133 326.199 57.4395C326.199 58.6934 325.769 59.6836 324.907 60.4102C324.052 61.1309 322.865 61.4912 321.348 61.4912H319.036ZM319.036 59.3555H321.392C322.089 59.3555 322.619 59.1914 322.983 58.8633C323.352 58.5352 323.536 58.0664 323.536 57.457C323.536 56.8301 323.352 56.3232 322.983 55.9365C322.613 55.5498 322.104 55.3506 321.453 55.3389H319.036V59.3555ZM336.078 60.4541H331.015V63.8818H336.957V66H328.379V53.2031H336.939V55.3389H331.015V58.3887H336.078V60.4541ZM345.499 62.6426C345.499 62.1445 345.324 61.7637 344.972 61.5C344.621 61.2305 343.988 60.9492 343.074 60.6562C342.16 60.3574 341.436 60.0645 340.903 59.7773C339.45 58.9922 338.723 57.9346 338.723 56.6045C338.723 55.9131 338.916 55.2979 339.303 54.7588C339.696 54.2139 340.255 53.7891 340.982 53.4844C341.714 53.1797 342.535 53.0273 343.443 53.0273C344.357 53.0273 345.171 53.1943 345.886 53.5283C346.601 53.8564 347.155 54.3223 347.547 54.9258C347.946 55.5293 348.145 56.2148 348.145 56.9824H345.508C345.508 56.3965 345.324 55.9424 344.955 55.6201C344.585 55.292 344.067 55.1279 343.399 55.1279C342.754 55.1279 342.253 55.2656 341.896 55.541C341.539 55.8105 341.36 56.168 341.36 56.6133C341.36 57.0293 341.568 57.3779 341.984 57.6592C342.406 57.9404 343.024 58.2041 343.838 58.4502C345.338 58.9014 346.431 59.4609 347.117 60.1289C347.802 60.7969 348.145 61.6289 348.145 62.625C348.145 63.7324 347.726 64.6025 346.888 65.2354C346.05 65.8623 344.922 66.1758 343.504 66.1758C342.52 66.1758 341.624 65.9971 340.815 65.6396C340.006 65.2764 339.388 64.7812 338.96 64.1543C338.539 63.5273 338.328 62.8008 338.328 61.9746H340.973C340.973 63.3867 341.817 64.0928 343.504 64.0928C344.131 64.0928 344.621 63.9668 344.972 63.7148C345.324 63.457 345.499 63.0996 345.499 62.6426ZM356.934 62.6426C356.934 62.1445 356.758 61.7637 356.406 61.5C356.055 61.2305 355.422 60.9492 354.508 60.6562C353.594 60.3574 352.87 60.0645 352.337 59.7773C350.884 58.9922 350.157 57.9346 350.157 56.6045C350.157 55.9131 350.351 55.2979 350.737 54.7588C351.13 54.2139 351.69 53.7891 352.416 53.4844C353.149 53.1797 353.969 53.0273 354.877 53.0273C355.791 53.0273 356.606 53.1943 357.32 53.5283C358.035 53.8564 358.589 54.3223 358.982 54.9258C359.38 55.5293 359.579 56.2148 359.579 56.9824H356.943C356.943 56.3965 356.758 55.9424 356.389 55.6201C356.02 55.292 355.501 55.1279 354.833 55.1279C354.189 55.1279 353.688 55.2656 353.33 55.541C352.973 55.8105 352.794 56.168 352.794 56.6133C352.794 57.0293 353.002 57.3779 353.418 57.6592C353.84 57.9404 354.458 58.2041 355.273 58.4502C356.773 58.9014 357.865 59.4609 358.551 60.1289C359.236 60.7969 359.579 61.6289 359.579 62.625C359.579 63.7324 359.16 64.6025 358.322 65.2354C357.484 65.8623 356.357 66.1758 354.939 66.1758C353.954 66.1758 353.058 65.9971 352.249 65.6396C351.441 65.2764 350.822 64.7812 350.395 64.1543C349.973 63.5273 349.762 62.8008 349.762 61.9746H352.407C352.407 63.3867 353.251 64.0928 354.939 64.0928C355.566 64.0928 356.055 63.9668 356.406 63.7148C356.758 63.457 356.934 63.0996 356.934 62.6426ZM372.244 59.8916C372.244 61.1514 372.021 62.2559 371.576 63.2051C371.131 64.1543 370.492 64.8867 369.66 65.4023C368.834 65.918 367.885 66.1758 366.812 66.1758C365.752 66.1758 364.805 65.9209 363.973 65.4111C363.141 64.9014 362.497 64.1748 362.04 63.2314C361.583 62.2822 361.351 61.1924 361.345 59.9619V59.3291C361.345 58.0693 361.571 56.9619 362.022 56.0068C362.479 55.0459 363.121 54.3105 363.947 53.8008C364.779 53.2852 365.728 53.0273 366.795 53.0273C367.861 53.0273 368.807 53.2852 369.634 53.8008C370.466 54.3105 371.107 55.0459 371.558 56.0068C372.015 56.9619 372.244 58.0664 372.244 59.3203V59.8916ZM369.572 59.3115C369.572 57.9697 369.332 56.9502 368.851 56.2529C368.371 55.5557 367.685 55.207 366.795 55.207C365.91 55.207 365.227 55.5527 364.747 56.2441C364.266 56.9297 364.023 57.9375 364.017 59.2676V59.8916C364.017 61.1982 364.258 62.2119 364.738 62.9326C365.219 63.6533 365.91 64.0137 366.812 64.0137C367.697 64.0137 368.377 63.668 368.851 62.9766C369.326 62.2793 369.566 61.2656 369.572 59.9355V59.3115ZM381.551 63.3633H376.928L376.049 66H373.246L378.009 53.2031H380.453L385.243 66H382.439L381.551 63.3633ZM377.64 61.2275H380.839L379.231 56.4375L377.64 61.2275ZM393.434 62.6426C393.434 62.1445 393.258 61.7637 392.906 61.5C392.555 61.2305 391.922 60.9492 391.008 60.6562C390.094 60.3574 389.37 60.0645 388.837 59.7773C387.384 58.9922 386.657 57.9346 386.657 56.6045C386.657 55.9131 386.851 55.2979 387.237 54.7588C387.63 54.2139 388.189 53.7891 388.916 53.4844C389.648 53.1797 390.469 53.0273 391.377 53.0273C392.291 53.0273 393.106 53.1943 393.82 53.5283C394.535 53.8564 395.089 54.3223 395.481 54.9258C395.88 55.5293 396.079 56.2148 396.079 56.9824H393.442C393.442 56.3965 393.258 55.9424 392.889 55.6201C392.52 55.292 392.001 55.1279 391.333 55.1279C390.689 55.1279 390.188 55.2656 389.83 55.541C389.473 55.8105 389.294 56.168 389.294 56.6133C389.294 57.0293 389.502 57.3779 389.918 57.6592C390.34 57.9404 390.958 58.2041 391.773 58.4502C393.273 58.9014 394.365 59.4609 395.051 60.1289C395.736 60.7969 396.079 61.6289 396.079 62.625C396.079 63.7324 395.66 64.6025 394.822 65.2354C393.984 65.8623 392.856 66.1758 391.439 66.1758C390.454 66.1758 389.558 65.9971 388.749 65.6396C387.94 65.2764 387.322 64.7812 386.895 64.1543C386.473 63.5273 386.262 62.8008 386.262 61.9746H388.907C388.907 63.3867 389.751 64.0928 391.439 64.0928C392.065 64.0928 392.555 63.9668 392.906 63.7148C393.258 63.457 393.434 63.0996 393.434 62.6426ZM405.711 61.4912V66H403.075V53.2031H408.067C409.028 53.2031 409.871 53.3789 410.598 53.7305C411.33 54.082 411.893 54.583 412.285 55.2334C412.678 55.8779 412.874 56.6133 412.874 57.4395C412.874 58.6934 412.444 59.6836 411.582 60.4102C410.727 61.1309 409.54 61.4912 408.023 61.4912H405.711ZM405.711 59.3555H408.067C408.764 59.3555 409.294 59.1914 409.658 58.8633C410.027 58.5352 410.211 58.0664 410.211 57.457C410.211 56.8301 410.027 56.3232 409.658 55.9365C409.288 55.5498 408.779 55.3506 408.128 55.3389H405.711V59.3555ZM419.791 61.3154H417.69V66H415.054V53.2031H419.809C421.32 53.2031 422.486 53.54 423.307 54.2139C424.127 54.8877 424.537 55.8398 424.537 57.0703C424.537 57.9434 424.347 58.6729 423.966 59.2588C423.591 59.8389 423.019 60.3018 422.252 60.6475L425.02 65.877V66H422.19L419.791 61.3154ZM417.69 59.1797H419.817C420.479 59.1797 420.992 59.0127 421.355 58.6787C421.719 58.3389 421.9 57.873 421.9 57.2812C421.9 56.6777 421.728 56.2031 421.382 55.8574C421.042 55.5117 420.518 55.3389 419.809 55.3389H417.69V59.1797ZM429.713 66H427.077V53.2031H429.713V66ZM437.254 62.8271L440.155 53.2031H443.09L438.634 66H435.883L431.445 53.2031H434.371L437.254 62.8271ZM451.22 63.3633H446.597L445.718 66H442.914L447.678 53.2031H450.121L454.911 66H452.107L451.22 63.3633ZM447.308 61.2275H450.508L448.899 56.4375L447.308 61.2275ZM456.466 66V53.2031H460.404C461.529 53.2031 462.534 53.458 463.418 53.9678C464.309 54.4717 465.003 55.1924 465.501 56.1299C466 57.0615 466.249 58.1221 466.249 59.3115V59.9004C466.249 61.0898 466.002 62.1475 465.51 63.0732C465.024 63.999 464.335 64.7168 463.445 65.2266C462.554 65.7363 461.549 65.9941 460.43 66H456.466ZM459.103 55.3389V63.8818H460.377C461.409 63.8818 462.197 63.5449 462.742 62.8711C463.287 62.1973 463.565 61.2334 463.577 59.9795V59.3027C463.577 58.002 463.307 57.0176 462.768 56.3496C462.229 55.6758 461.441 55.3389 460.404 55.3389H459.103ZM475.565 63.3633H470.942L470.063 66H467.259L472.023 53.2031H474.466L479.256 66H476.452L475.565 63.3633ZM471.653 61.2275H474.853L473.244 56.4375L471.653 61.2275ZM487.447 62.6426C487.447 62.1445 487.271 61.7637 486.92 61.5C486.568 61.2305 485.935 60.9492 485.021 60.6562C484.107 60.3574 483.384 60.0645 482.85 59.7773C481.397 58.9922 480.671 57.9346 480.671 56.6045C480.671 55.9131 480.864 55.2979 481.251 54.7588C481.643 54.2139 482.203 53.7891 482.929 53.4844C483.662 53.1797 484.482 53.0273 485.39 53.0273C486.304 53.0273 487.119 53.1943 487.834 53.5283C488.549 53.8564 489.102 54.3223 489.495 54.9258C489.893 55.5293 490.093 56.2148 490.093 56.9824H487.456C487.456 56.3965 487.271 55.9424 486.902 55.6201C486.533 55.292 486.014 55.1279 485.346 55.1279C484.702 55.1279 484.201 55.2656 483.844 55.541C483.486 55.8105 483.307 56.168 483.307 56.6133C483.307 57.0293 483.515 57.3779 483.931 57.6592C484.353 57.9404 484.971 58.2041 485.786 58.4502C487.286 58.9014 488.379 59.4609 489.064 60.1289C489.75 60.7969 490.093 61.6289 490.093 62.625C490.093 63.7324 489.674 64.6025 488.836 65.2354C487.998 65.8623 486.87 66.1758 485.452 66.1758C484.468 66.1758 483.571 65.9971 482.762 65.6396C481.954 65.2764 481.336 64.7812 480.908 64.1543C480.486 63.5273 480.275 62.8008 480.275 61.9746H482.921C482.921 63.3867 483.764 64.0928 485.452 64.0928C486.079 64.0928 486.568 63.9668 486.92 63.7148C487.271 63.457 487.447 63.0996 487.447 62.6426ZM342.212 86V73.2031H346.15C347.275 73.2031 348.28 73.458 349.165 73.9678C350.055 74.4717 350.749 75.1924 351.248 76.1299C351.746 77.0615 351.995 78.1221 351.995 79.3115V79.9004C351.995 81.0898 351.749 82.1475 351.256 83.0732C350.77 83.999 350.082 84.7168 349.191 85.2266C348.3 85.7363 347.295 85.9941 346.176 86H342.212ZM344.849 75.3389V83.8818H346.124C347.155 83.8818 347.943 83.5449 348.488 82.8711C349.033 82.1973 349.311 81.2334 349.323 79.9795V79.3027C349.323 78.002 349.053 77.0176 348.514 76.3496C347.975 75.6758 347.187 75.3389 346.15 75.3389H344.849ZM361.979 80.4541H356.916V83.8818H362.858V86H354.279V73.2031H362.84V75.3389H356.916V78.3887H361.979V80.4541ZM372.244 83.8818H377.842V86H369.607V73.2031H372.244V83.8818ZM382.526 86H379.89V73.2031H382.526V86ZM385.339 86V73.2031H389.821C391.374 73.2031 392.551 73.502 393.354 74.0996C394.157 74.6914 394.558 75.5615 394.558 76.71C394.558 77.3369 394.397 77.8906 394.075 78.3711C393.753 78.8457 393.304 79.1943 392.73 79.417C393.386 79.5811 393.902 79.9121 394.277 80.4102C394.658 80.9082 394.848 81.5176 394.848 82.2383C394.848 83.4688 394.456 84.4004 393.671 85.0332C392.885 85.666 391.766 85.9883 390.313 86H385.339ZM387.975 80.4277V83.8818H390.234C390.855 83.8818 391.339 83.7354 391.684 83.4424C392.036 83.1436 392.212 82.7334 392.212 82.2119C392.212 81.04 391.605 80.4453 390.392 80.4277H387.975ZM387.975 78.5645H389.926C391.257 78.541 391.922 78.0107 391.922 76.9736C391.922 76.3936 391.752 75.9775 391.412 75.7256C391.078 75.4678 390.548 75.3389 389.821 75.3389H387.975V78.5645ZM404.894 80.4541H399.831V83.8818H405.773V86H397.195V73.2031H405.755V75.3389H399.831V78.3887H404.894V80.4541ZM412.417 81.3154H410.316V86H407.68V73.2031H412.435C413.946 73.2031 415.112 73.54 415.933 74.2139C416.753 74.8877 417.163 75.8398 417.163 77.0703C417.163 77.9434 416.973 78.6729 416.592 79.2588C416.217 79.8389 415.645 80.3018 414.878 80.6475L417.646 85.877V86H414.816L412.417 81.3154ZM410.316 79.1797H412.443C413.105 79.1797 413.618 79.0127 413.981 78.6787C414.345 78.3389 414.526 77.873 414.526 77.2812C414.526 76.6777 414.353 76.2031 414.008 75.8574C413.668 75.5117 413.144 75.3389 412.435 75.3389H410.316V79.1797ZM419.536 86V73.2031H423.473C424.598 73.2031 425.603 73.458 426.488 73.9678C427.379 74.4717 428.073 75.1924 428.571 76.1299C429.069 77.0615 429.318 78.1221 429.318 79.3115V79.9004C429.318 81.0898 429.072 82.1475 428.58 83.0732C428.093 83.999 427.405 84.7168 426.514 85.2266C425.624 85.7363 424.619 85.9941 423.5 86H419.536ZM422.172 75.3389V83.8818H423.447C424.478 83.8818 425.266 83.5449 425.811 82.8711C426.356 82.1973 426.634 81.2334 426.646 79.9795V79.3027C426.646 78.002 426.377 77.0176 425.837 76.3496C425.298 75.6758 424.51 75.3389 423.473 75.3389H422.172ZM438.634 83.3633H434.011L433.132 86H430.328L435.092 73.2031H437.535L442.325 86H439.522L438.634 83.3633ZM434.723 81.2275H437.922L436.314 76.4375L434.723 81.2275ZM443.881 86V73.2031H447.818C448.943 73.2031 449.948 73.458 450.833 73.9678C451.724 74.4717 452.418 75.1924 452.916 76.1299C453.414 77.0615 453.663 78.1221 453.663 79.3115V79.9004C453.663 81.0898 453.417 82.1475 452.925 83.0732C452.438 83.999 451.75 84.7168 450.859 85.2266C449.969 85.7363 448.964 85.9941 447.845 86H443.881ZM446.517 75.3389V83.8818H447.792C448.823 83.8818 449.611 83.5449 450.156 82.8711C450.701 82.1973 450.979 81.2334 450.991 79.9795V79.3027C450.991 78.002 450.722 77.0176 450.182 76.3496C449.643 75.6758 448.855 75.3389 447.818 75.3389H446.517ZM463.647 80.4541H458.584V83.8818H464.526V86H455.948V73.2031H464.508V75.3389H458.584V78.3887H463.647V80.4541Z" fill="#009245"/>
<path d="M333.389 150.737C333.29 152.114 332.78 153.198 331.86 153.989C330.946 154.78 329.739 155.176 328.239 155.176C326.598 155.176 325.306 154.625 324.363 153.523C323.426 152.416 322.957 150.898 322.957 148.971V148.188C322.957 146.958 323.174 145.874 323.607 144.937C324.041 143.999 324.659 143.281 325.462 142.783C326.27 142.279 327.208 142.027 328.274 142.027C329.751 142.027 330.94 142.423 331.843 143.214C332.745 144.005 333.266 145.115 333.407 146.545H330.77C330.706 145.719 330.474 145.121 330.076 144.752C329.683 144.377 329.083 144.189 328.274 144.189C327.395 144.189 326.736 144.506 326.297 145.139C325.863 145.766 325.64 146.741 325.629 148.065V149.032C325.629 150.415 325.837 151.426 326.253 152.064C326.675 152.703 327.337 153.022 328.239 153.022C329.054 153.022 329.66 152.838 330.058 152.469C330.463 152.094 330.694 151.517 330.753 150.737H333.389ZM345.993 148.892C345.993 150.151 345.77 151.256 345.325 152.205C344.879 153.154 344.241 153.887 343.409 154.402C342.583 154.918 341.633 155.176 340.561 155.176C339.5 155.176 338.554 154.921 337.722 154.411C336.89 153.901 336.246 153.175 335.789 152.231C335.332 151.282 335.1 150.192 335.094 148.962V148.329C335.094 147.069 335.32 145.962 335.771 145.007C336.228 144.046 336.87 143.311 337.696 142.801C338.528 142.285 339.477 142.027 340.543 142.027C341.61 142.027 342.556 142.285 343.382 142.801C344.214 143.311 344.856 144.046 345.307 145.007C345.764 145.962 345.993 147.066 345.993 148.32V148.892ZM343.321 148.312C343.321 146.97 343.081 145.95 342.6 145.253C342.12 144.556 341.434 144.207 340.543 144.207C339.659 144.207 338.976 144.553 338.496 145.244C338.015 145.93 337.772 146.938 337.766 148.268V148.892C337.766 150.198 338.006 151.212 338.487 151.933C338.967 152.653 339.659 153.014 340.561 153.014C341.446 153.014 342.125 152.668 342.6 151.977C343.075 151.279 343.315 150.266 343.321 148.936V148.312ZM351.714 142.203L355.001 151.484L358.271 142.203H361.734V155H359.088V151.502L359.352 145.464L355.898 155H354.087L350.642 145.473L350.905 151.502V155H348.269V142.203H351.714ZM374.082 142.203V150.632C374.082 152.032 373.642 153.14 372.763 153.954C371.89 154.769 370.695 155.176 369.178 155.176C367.683 155.176 366.497 154.78 365.618 153.989C364.739 153.198 364.291 152.111 364.273 150.729V142.203H366.91V150.649C366.91 151.487 367.109 152.1 367.508 152.486C367.912 152.867 368.469 153.058 369.178 153.058C370.66 153.058 371.413 152.278 371.436 150.72V142.203H374.082ZM387.01 155H384.373L379.241 146.58V155H376.604V142.203H379.241L384.382 150.641V142.203H387.01V155ZM392.477 155H389.84V142.203H392.477V155ZM405.335 150.737C405.235 152.114 404.725 153.198 403.805 153.989C402.891 154.78 401.684 155.176 400.184 155.176C398.544 155.176 397.252 154.625 396.308 153.523C395.371 152.416 394.902 150.898 394.902 148.971V148.188C394.902 146.958 395.119 145.874 395.552 144.937C395.986 143.999 396.604 143.281 397.407 142.783C398.216 142.279 399.153 142.027 400.219 142.027C401.696 142.027 402.885 142.423 403.788 143.214C404.69 144.005 405.212 145.115 405.352 146.545H402.716C402.651 145.719 402.42 145.121 402.021 144.752C401.629 144.377 401.028 144.189 400.219 144.189C399.341 144.189 398.681 144.506 398.242 145.139C397.808 145.766 397.586 146.741 397.574 148.065V149.032C397.574 150.415 397.782 151.426 398.198 152.064C398.62 152.703 399.282 153.022 400.184 153.022C400.999 153.022 401.605 152.838 402.004 152.469C402.408 152.094 402.639 151.517 402.698 150.737H405.335ZM414.651 152.363H410.028L409.149 155H406.345L411.109 142.203H413.552L418.342 155H415.538L414.651 152.363ZM410.74 150.228H413.939L412.33 145.438L410.74 150.228ZM429.75 150.737C429.65 152.114 429.141 153.198 428.221 153.989C427.307 154.78 426.1 155.176 424.6 155.176C422.959 155.176 421.667 154.625 420.724 153.523C419.786 152.416 419.317 150.898 419.317 148.971V148.188C419.317 146.958 419.534 145.874 419.968 144.937C420.401 143.999 421.019 143.281 421.822 142.783C422.631 142.279 423.568 142.027 424.635 142.027C426.111 142.027 427.301 142.423 428.203 143.214C429.105 144.005 429.627 145.115 429.768 146.545H427.131C427.066 145.719 426.835 145.121 426.436 144.752C426.044 144.377 425.443 144.189 424.635 144.189C423.756 144.189 423.097 144.506 422.657 145.139C422.224 145.766 422.001 146.741 421.989 148.065V149.032C421.989 150.415 422.197 151.426 422.613 152.064C423.035 152.703 423.697 153.022 424.6 153.022C425.414 153.022 426.02 152.838 426.419 152.469C426.823 152.094 427.055 151.517 427.113 150.737H429.75ZM425.566 154.947L425.47 155.457C426.349 155.615 426.788 156.122 426.788 156.978C426.788 157.622 426.519 158.132 425.979 158.507C425.446 158.882 424.693 159.069 423.721 159.069L423.659 157.602C424.315 157.602 424.644 157.364 424.644 156.89C424.644 156.644 424.544 156.474 424.345 156.38C424.151 156.292 423.835 156.233 423.395 156.204L423.668 154.947H425.566ZM439.066 152.363H434.443L433.564 155H430.76L435.524 142.203H437.967L442.757 155H439.954L439.066 152.363ZM435.155 150.228H438.354L436.746 145.438L435.155 150.228ZM440.086 138.898C440.086 139.561 439.892 140.117 439.505 140.568C439.119 141.014 438.647 141.236 438.09 141.236C437.868 141.236 437.669 141.213 437.493 141.166C437.323 141.113 437.086 141.005 436.781 140.841C436.476 140.677 436.256 140.577 436.122 140.542C435.987 140.501 435.84 140.48 435.682 140.48C435.477 140.48 435.301 140.554 435.155 140.7C435.014 140.847 434.944 141.055 434.944 141.324L433.467 141.236C433.467 140.586 433.658 140.032 434.039 139.575C434.425 139.118 434.897 138.89 435.454 138.89C435.629 138.89 435.794 138.913 435.946 138.96C436.104 139.001 436.359 139.106 436.711 139.276C437.062 139.446 437.305 139.549 437.44 139.584C437.575 139.619 437.715 139.637 437.862 139.637C438.067 139.637 438.243 139.566 438.389 139.426C438.542 139.279 438.618 139.071 438.618 138.802L440.086 138.898ZM454.631 148.892C454.631 150.151 454.408 151.256 453.963 152.205C453.518 153.154 452.879 153.887 452.047 154.402C451.221 154.918 450.272 155.176 449.199 155.176C448.139 155.176 447.193 154.921 446.361 154.411C445.529 153.901 444.884 153.175 444.427 152.231C443.97 151.282 443.739 150.192 443.733 148.962V148.329C443.733 147.069 443.958 145.962 444.409 145.007C444.866 144.046 445.508 143.311 446.334 142.801C447.166 142.285 448.115 142.027 449.182 142.027C450.248 142.027 451.195 142.285 452.021 142.801C452.853 143.311 453.494 144.046 453.946 145.007C454.403 145.962 454.631 147.066 454.631 148.32V148.892ZM451.959 148.312C451.959 146.97 451.719 145.95 451.239 145.253C450.758 144.556 450.073 144.207 449.182 144.207C448.297 144.207 447.614 144.553 447.134 145.244C446.654 145.93 446.41 146.938 446.405 148.268V148.892C446.405 150.198 446.645 151.212 447.125 151.933C447.606 152.653 448.297 153.014 449.199 153.014C450.084 153.014 450.764 152.668 451.239 151.977C451.713 151.279 451.953 150.266 451.959 148.936V148.312ZM461.75 155V142.203H465.687C466.812 142.203 467.817 142.458 468.702 142.968C469.592 143.472 470.287 144.192 470.785 145.13C471.283 146.062 471.532 147.122 471.532 148.312V148.9C471.532 150.09 471.286 151.147 470.793 152.073C470.307 152.999 469.619 153.717 468.728 154.227C467.837 154.736 466.833 154.994 465.713 155H461.75ZM464.386 144.339V152.882H465.661C466.692 152.882 467.48 152.545 468.025 151.871C468.57 151.197 468.848 150.233 468.86 148.979V148.303C468.86 147.002 468.59 146.018 468.051 145.35C467.512 144.676 466.724 144.339 465.687 144.339H464.386ZM481.516 149.454H476.453V152.882H482.395V155H473.817V142.203H482.377V144.339H476.453V147.389H481.516V149.454ZM367.231 162.203L370.518 171.484L373.787 162.203H377.25V175H374.605V171.502L374.868 165.464L371.414 175H369.604L366.158 165.473L366.422 171.502V175H363.785V162.203H367.231ZM387.612 169.454H382.55V172.882H388.491V175H379.913V162.203H388.473V164.339H382.55V167.389H387.612V169.454ZM390.398 175V162.203H394.335C395.46 162.203 396.465 162.458 397.35 162.968C398.241 163.472 398.935 164.192 399.433 165.13C399.931 166.062 400.18 167.122 400.18 168.312V168.9C400.18 170.09 399.934 171.147 399.442 172.073C398.955 172.999 398.267 173.717 397.376 174.227C396.486 174.736 395.481 174.994 394.362 175H390.398ZM393.035 164.339V172.882H394.309C395.34 172.882 396.128 172.545 396.673 171.871C397.218 171.197 397.496 170.233 397.508 168.979V168.303C397.508 167.002 397.239 166.018 396.7 165.35C396.161 164.676 395.372 164.339 394.335 164.339H393.035ZM405.269 175H402.632V162.203H405.269V175ZM408.081 175V162.203H412.018C413.143 162.203 414.148 162.458 415.033 162.968C415.923 163.472 416.618 164.192 417.116 165.13C417.614 166.062 417.863 167.122 417.863 168.312V168.9C417.863 170.09 417.617 171.147 417.125 172.073C416.638 172.999 415.95 173.717 415.059 174.227C414.169 174.736 413.164 174.994 412.045 175H408.081ZM410.717 164.339V172.882H411.992C413.023 172.882 413.811 172.545 414.356 171.871C414.901 171.197 415.179 170.233 415.191 168.979V168.303C415.191 167.002 414.922 166.018 414.382 165.35C413.843 164.676 413.055 164.339 412.018 164.339H410.717ZM427.179 172.363H422.556L421.677 175H418.873L423.637 162.203H426.08L430.87 175H428.067L427.179 172.363ZM423.268 170.228H426.467L424.859 165.438L423.268 170.228ZM439.061 171.643C439.061 171.145 438.886 170.764 438.534 170.5C438.183 170.23 437.55 169.949 436.636 169.656C435.722 169.357 434.998 169.064 434.465 168.777C433.012 167.992 432.285 166.935 432.285 165.604C432.285 164.913 432.478 164.298 432.865 163.759C433.258 163.214 433.817 162.789 434.544 162.484C435.276 162.18 436.097 162.027 437.005 162.027C437.919 162.027 438.733 162.194 439.448 162.528C440.163 162.856 440.717 163.322 441.109 163.926C441.508 164.529 441.707 165.215 441.707 165.982H439.07C439.07 165.396 438.886 164.942 438.517 164.62C438.147 164.292 437.629 164.128 436.961 164.128C436.316 164.128 435.815 164.266 435.458 164.541C435.101 164.811 434.922 165.168 434.922 165.613C434.922 166.029 435.13 166.378 435.546 166.659C435.968 166.94 436.586 167.204 437.4 167.45C438.9 167.901 439.993 168.461 440.679 169.129C441.364 169.797 441.707 170.629 441.707 171.625C441.707 172.732 441.288 173.603 440.45 174.235C439.612 174.862 438.484 175.176 437.066 175.176C436.082 175.176 435.185 174.997 434.377 174.64C433.568 174.276 432.95 173.781 432.522 173.154C432.101 172.527 431.89 171.801 431.89 170.975H434.535C434.535 172.387 435.379 173.093 437.066 173.093C437.693 173.093 438.183 172.967 438.534 172.715C438.886 172.457 439.061 172.1 439.061 171.643ZM342.886 195V182.203H346.823C347.948 182.203 348.953 182.458 349.838 182.968C350.728 183.472 351.423 184.192 351.921 185.13C352.419 186.062 352.668 187.122 352.668 188.312V188.9C352.668 190.09 352.422 191.147 351.929 192.073C351.443 192.999 350.755 193.717 349.864 194.227C348.973 194.736 347.969 194.994 346.849 195H342.886ZM345.522 184.339V192.882H346.797C347.828 192.882 348.616 192.545 349.161 191.871C349.706 191.197 349.984 190.233 349.996 188.979V188.303C349.996 187.002 349.726 186.018 349.187 185.35C348.648 184.676 347.86 184.339 346.823 184.339H345.522ZM362.652 189.454H357.589V192.882H363.531V195H354.953V182.203H363.513V184.339H357.589V187.389H362.652V189.454ZM380.326 190.737C380.226 192.114 379.717 193.198 378.797 193.989C377.883 194.78 376.676 195.176 375.176 195.176C373.535 195.176 372.243 194.625 371.3 193.523C370.362 192.416 369.893 190.898 369.893 188.971V188.188C369.893 186.958 370.11 185.874 370.544 184.937C370.977 183.999 371.595 183.281 372.398 182.783C373.207 182.279 374.144 182.027 375.211 182.027C376.687 182.027 377.877 182.423 378.779 183.214C379.681 184.005 380.203 185.115 380.343 186.545H377.707C377.642 185.719 377.411 185.121 377.012 184.752C376.62 184.377 376.019 184.189 375.211 184.189C374.332 184.189 373.673 184.506 373.233 185.139C372.8 185.766 372.577 186.741 372.565 188.065V189.032C372.565 190.415 372.773 191.426 373.189 192.064C373.611 192.703 374.273 193.022 375.176 193.022C375.99 193.022 376.596 192.838 376.995 192.469C377.399 192.094 377.631 191.517 377.689 190.737H380.326ZM392.929 188.892C392.929 190.151 392.706 191.256 392.261 192.205C391.816 193.154 391.177 193.887 390.345 194.402C389.519 194.918 388.57 195.176 387.497 195.176C386.437 195.176 385.491 194.921 384.659 194.411C383.827 193.901 383.182 193.175 382.725 192.231C382.268 191.282 382.036 190.192 382.031 188.962V188.329C382.031 187.069 382.256 185.962 382.707 185.007C383.164 184.046 383.806 183.311 384.632 182.801C385.464 182.285 386.413 182.027 387.48 182.027C388.546 182.027 389.493 182.285 390.319 182.801C391.151 183.311 391.792 184.046 392.244 185.007C392.701 185.962 392.929 187.066 392.929 188.32V188.892ZM390.257 188.312C390.257 186.97 390.017 185.95 389.536 185.253C389.056 184.556 388.37 184.207 387.48 184.207C386.595 184.207 385.912 184.553 385.432 185.244C384.952 185.93 384.708 186.938 384.702 188.268V188.892C384.702 190.198 384.943 191.212 385.423 191.933C385.904 192.653 386.595 193.014 387.497 193.014C388.382 193.014 389.062 192.668 389.536 191.977C390.011 191.279 390.251 190.266 390.257 188.936V188.312ZM405.611 195H402.975L397.842 186.58V195H395.205V182.203H397.842L402.983 190.641V182.203H405.611V195ZM417.643 184.339H413.723V195H411.087V184.339H407.219V182.203H417.643V184.339ZM424.252 190.315H422.152V195H419.515V182.203H424.27C425.782 182.203 426.948 182.54 427.768 183.214C428.588 183.888 428.998 184.84 428.998 186.07C428.998 186.943 428.808 187.673 428.427 188.259C428.052 188.839 427.481 189.302 426.713 189.647L429.482 194.877V195H426.652L424.252 190.315ZM422.152 188.18H424.279C424.941 188.18 425.453 188.013 425.817 187.679C426.18 187.339 426.362 186.873 426.362 186.281C426.362 185.678 426.189 185.203 425.843 184.857C425.503 184.512 424.979 184.339 424.27 184.339H422.152V188.18ZM441.883 188.892C441.883 190.151 441.66 191.256 441.215 192.205C440.769 193.154 440.131 193.887 439.299 194.402C438.473 194.918 437.523 195.176 436.451 195.176C435.391 195.176 434.444 194.921 433.612 194.411C432.78 193.901 432.136 193.175 431.679 192.231C431.222 191.282 430.99 190.192 430.984 188.962V188.329C430.984 187.069 431.21 185.962 431.661 185.007C432.118 184.046 432.76 183.311 433.586 182.801C434.418 182.285 435.367 182.027 436.434 182.027C437.5 182.027 438.446 182.285 439.272 182.801C440.104 183.311 440.746 184.046 441.197 185.007C441.654 185.962 441.883 187.066 441.883 188.32V188.892ZM439.211 188.312C439.211 186.97 438.971 185.95 438.49 185.253C438.01 184.556 437.324 184.207 436.434 184.207C435.549 184.207 434.866 184.553 434.386 185.244C433.905 185.93 433.662 186.938 433.656 188.268V188.892C433.656 190.198 433.896 191.212 434.377 191.933C434.857 192.653 435.549 193.014 436.451 193.014C437.336 193.014 438.016 192.668 438.49 191.977C438.965 191.279 439.205 190.266 439.211 188.936V188.312ZM446.795 192.882H452.394V195H444.159V182.203H446.795V192.882ZM461.974 189.454H456.911V192.882H462.853V195H454.275V182.203H462.835V184.339H456.911V187.389H461.974V189.454Z" fill="white"/>
<path d="M337.145 259.339H333.225V270H330.588V259.339H326.721V257.203H337.145V259.339ZM343.754 265.315H341.653V270H339.016V257.203H343.771C345.283 257.203 346.449 257.54 347.269 258.214C348.09 258.888 348.5 259.84 348.5 261.07C348.5 261.943 348.309 262.673 347.929 263.259C347.554 263.839 346.982 264.302 346.215 264.647L348.983 269.877V270H346.153L343.754 265.315ZM341.653 263.18H343.78C344.442 263.18 344.955 263.013 345.318 262.679C345.681 262.339 345.863 261.873 345.863 261.281C345.863 260.678 345.69 260.203 345.345 259.857C345.005 259.512 344.48 259.339 343.771 259.339H341.653V263.18ZM358.097 267.363H353.474L352.595 270H349.791L354.555 257.203H356.998L361.789 270H358.985L358.097 267.363ZM354.186 265.228H357.385L355.777 260.438L354.186 265.228ZM363.344 270V257.203H367.826C369.379 257.203 370.557 257.502 371.359 258.1C372.162 258.691 372.564 259.562 372.564 260.71C372.564 261.337 372.402 261.891 372.08 262.371C371.758 262.846 371.31 263.194 370.735 263.417C371.392 263.581 371.907 263.912 372.282 264.41C372.663 264.908 372.854 265.518 372.854 266.238C372.854 267.469 372.461 268.4 371.676 269.033C370.891 269.666 369.772 269.988 368.318 270H363.344ZM365.981 264.428V267.882H368.239C368.86 267.882 369.344 267.735 369.69 267.442C370.041 267.144 370.217 266.733 370.217 266.212C370.217 265.04 369.61 264.445 368.398 264.428H365.981ZM365.981 262.564H367.932C369.262 262.541 369.927 262.011 369.927 260.974C369.927 260.394 369.757 259.978 369.417 259.726C369.083 259.468 368.553 259.339 367.826 259.339H365.981V262.564ZM382.425 267.363H377.801L376.923 270H374.119L378.883 257.203H381.326L386.116 270H383.312L382.425 267.363ZM378.513 265.228H381.713L380.104 260.438L378.513 265.228ZM390.308 267.882H395.907V270H387.671V257.203H390.308V267.882ZM408.202 270H405.565V264.516H400.424V270H397.787V257.203H400.424V262.389H405.565V257.203H408.202V270ZM418.256 267.363H413.633L412.755 270H409.951L414.714 257.203H417.158L421.948 270H419.144L418.256 267.363ZM414.345 265.228H417.545L415.936 260.438L414.345 265.228ZM423.503 270V257.203H427.441C428.566 257.203 429.571 257.458 430.455 257.968C431.346 258.472 432.04 259.192 432.538 260.13C433.036 261.062 433.285 262.122 433.285 263.312V263.9C433.285 265.09 433.039 266.147 432.547 267.073C432.061 267.999 431.372 268.717 430.482 269.227C429.591 269.736 428.586 269.994 427.467 270H423.503ZM426.14 259.339V267.882H427.414C428.446 267.882 429.234 267.545 429.779 266.871C430.324 266.197 430.602 265.233 430.614 263.979V263.303C430.614 262.002 430.344 261.018 429.805 260.35C429.266 259.676 428.478 259.339 427.441 259.339H426.14ZM446.082 263.892C446.082 265.151 445.859 266.256 445.414 267.205C444.969 268.154 444.33 268.887 443.498 269.402C442.672 269.918 441.723 270.176 440.65 270.176C439.59 270.176 438.643 269.921 437.811 269.411C436.979 268.901 436.335 268.175 435.878 267.231C435.421 266.282 435.189 265.192 435.184 263.962V263.329C435.184 262.069 435.409 260.962 435.86 260.007C436.317 259.046 436.959 258.311 437.785 257.801C438.617 257.285 439.566 257.027 440.633 257.027C441.699 257.027 442.645 257.285 443.472 257.801C444.304 258.311 444.945 259.046 445.396 260.007C445.853 260.962 446.082 262.066 446.082 263.32V263.892ZM443.41 263.312C443.41 261.97 443.17 260.95 442.689 260.253C442.209 259.556 441.523 259.207 440.633 259.207C439.748 259.207 439.065 259.553 438.585 260.244C438.104 260.93 437.861 261.938 437.855 263.268V263.892C437.855 265.198 438.096 266.212 438.576 266.933C439.057 267.653 439.748 268.014 440.65 268.014C441.535 268.014 442.215 267.668 442.689 266.977C443.164 266.279 443.404 265.266 443.41 263.936V263.312ZM453.095 265.315H450.995V270H448.358V257.203H453.113C454.625 257.203 455.791 257.54 456.611 258.214C457.431 258.888 457.841 259.84 457.841 261.07C457.841 261.943 457.651 262.673 457.27 263.259C456.895 263.839 456.324 264.302 455.556 264.647L458.325 269.877V270H455.495L453.095 265.315ZM450.995 263.18H453.122C453.784 263.18 454.296 263.013 454.66 262.679C455.023 262.339 455.205 261.873 455.205 261.281C455.205 260.678 455.032 260.203 454.686 259.857C454.346 259.512 453.822 259.339 453.113 259.339H450.995V263.18ZM467.913 264.454H462.851V267.882H468.792V270H460.214V257.203H468.775V259.339H462.851V262.389H467.913V264.454ZM477.335 266.643C477.335 266.145 477.159 265.764 476.807 265.5C476.456 265.23 475.823 264.949 474.909 264.656C473.995 264.357 473.271 264.064 472.738 263.777C471.285 262.992 470.558 261.935 470.558 260.604C470.558 259.913 470.752 259.298 471.139 258.759C471.531 258.214 472.091 257.789 472.817 257.484C473.55 257.18 474.37 257.027 475.278 257.027C476.192 257.027 477.007 257.194 477.722 257.528C478.436 257.856 478.99 258.322 479.383 258.926C479.781 259.529 479.98 260.215 479.98 260.982H477.344C477.344 260.396 477.159 259.942 476.79 259.62C476.421 259.292 475.902 259.128 475.234 259.128C474.59 259.128 474.089 259.266 473.731 259.541C473.374 259.811 473.195 260.168 473.195 260.613C473.195 261.029 473.403 261.378 473.819 261.659C474.241 261.94 474.859 262.204 475.674 262.45C477.174 262.901 478.266 263.461 478.952 264.129C479.638 264.797 479.98 265.629 479.98 266.625C479.98 267.732 479.561 268.603 478.723 269.235C477.886 269.862 476.758 270.176 475.34 270.176C474.355 270.176 473.459 269.997 472.65 269.64C471.842 269.276 471.223 268.781 470.796 268.154C470.374 267.527 470.163 266.801 470.163 265.975H472.808C472.808 267.387 473.652 268.093 475.34 268.093C475.967 268.093 476.456 267.967 476.807 267.715C477.159 267.457 477.335 267.1 477.335 266.643ZM350.359 290V277.203H354.296C355.421 277.203 356.426 277.458 357.311 277.968C358.201 278.472 358.896 279.192 359.394 280.13C359.892 281.062 360.141 282.122 360.141 283.312V283.9C360.141 285.09 359.895 286.147 359.402 287.073C358.916 287.999 358.228 288.717 357.337 289.227C356.446 289.736 355.442 289.994 354.322 290H350.359ZM352.995 279.339V287.882H354.27C355.301 287.882 356.089 287.545 356.634 286.871C357.179 286.197 357.457 285.233 357.469 283.979V283.303C357.469 282.002 357.199 281.018 356.66 280.35C356.121 279.676 355.333 279.339 354.296 279.339H352.995ZM372.937 283.892C372.937 285.151 372.715 286.256 372.269 287.205C371.824 288.154 371.185 288.887 370.353 289.402C369.527 289.918 368.578 290.176 367.506 290.176C366.445 290.176 365.499 289.921 364.667 289.411C363.835 288.901 363.19 288.175 362.733 287.231C362.276 286.282 362.045 285.192 362.039 283.962V283.329C362.039 282.069 362.264 280.962 362.716 280.007C363.173 279.046 363.814 278.311 364.64 277.801C365.472 277.285 366.422 277.027 367.488 277.027C368.554 277.027 369.501 277.285 370.327 277.801C371.159 278.311 371.801 279.046 372.252 280.007C372.709 280.962 372.937 282.066 372.937 283.32V283.892ZM370.265 283.312C370.265 281.97 370.025 280.95 369.545 280.253C369.064 279.556 368.379 279.207 367.488 279.207C366.603 279.207 365.921 279.553 365.44 280.244C364.96 280.93 364.717 281.938 364.711 283.268V283.892C364.711 285.198 364.951 286.212 365.431 286.933C365.912 287.653 366.603 288.014 367.506 288.014C368.39 288.014 369.07 287.668 369.545 286.977C370.019 286.279 370.26 285.266 370.265 283.936V283.312ZM386.691 286.643C386.691 286.145 386.516 285.764 386.164 285.5C385.813 285.23 385.18 284.949 384.266 284.656C383.352 284.357 382.628 284.064 382.095 283.777C380.642 282.992 379.915 281.935 379.915 280.604C379.915 279.913 380.108 279.298 380.495 278.759C380.888 278.214 381.447 277.789 382.174 277.484C382.906 277.18 383.727 277.027 384.635 277.027C385.549 277.027 386.363 277.194 387.078 277.528C387.793 277.856 388.347 278.322 388.739 278.926C389.138 279.529 389.337 280.215 389.337 280.982H386.7C386.7 280.396 386.516 279.942 386.147 279.62C385.777 279.292 385.259 279.128 384.591 279.128C383.946 279.128 383.445 279.266 383.088 279.541C382.731 279.811 382.552 280.168 382.552 280.613C382.552 281.029 382.76 281.378 383.176 281.659C383.598 281.94 384.216 282.204 385.03 282.45C386.53 282.901 387.623 283.461 388.309 284.129C388.994 284.797 389.337 285.629 389.337 286.625C389.337 287.732 388.918 288.603 388.08 289.235C387.242 289.862 386.114 290.176 384.696 290.176C383.712 290.176 382.815 289.997 382.007 289.64C381.198 289.276 380.58 288.781 380.152 288.154C379.731 287.527 379.52 286.801 379.52 285.975H382.165C382.165 287.387 383.009 288.093 384.696 288.093C385.323 288.093 385.813 287.967 386.164 287.715C386.516 287.457 386.691 287.1 386.691 286.643ZM394.294 290H391.657V277.203H394.294V290ZM403.742 286.643C403.742 286.145 403.566 285.764 403.214 285.5C402.863 285.23 402.23 284.949 401.316 284.656C400.402 284.357 399.678 284.064 399.145 283.777C397.692 282.992 396.965 281.935 396.965 280.604C396.965 279.913 397.159 279.298 397.545 278.759C397.938 278.214 398.497 277.789 399.224 277.484C399.956 277.18 400.777 277.027 401.685 277.027C402.599 277.027 403.413 277.194 404.128 277.528C404.843 277.856 405.397 278.322 405.789 278.926C406.188 279.529 406.387 280.215 406.387 280.982H403.75C403.75 280.396 403.566 279.942 403.197 279.62C402.827 279.292 402.309 279.128 401.641 279.128C400.996 279.128 400.495 279.266 400.138 279.541C399.781 279.811 399.602 280.168 399.602 280.613C399.602 281.029 399.81 281.378 400.226 281.659C400.648 281.94 401.266 282.204 402.08 282.45C403.58 282.901 404.673 283.461 405.359 284.129C406.044 284.797 406.387 285.629 406.387 286.625C406.387 287.732 405.968 288.603 405.13 289.235C404.292 289.862 403.164 290.176 401.746 290.176C400.762 290.176 399.866 289.997 399.057 289.64C398.248 289.276 397.63 288.781 397.202 288.154C396.781 287.527 396.57 286.801 396.57 285.975H399.215C399.215 287.387 400.059 288.093 401.746 288.093C402.373 288.093 402.863 287.967 403.214 287.715C403.566 287.457 403.742 287.1 403.742 286.643ZM418.173 279.339H414.253V290H411.616V279.339H407.749V277.203H418.173V279.339ZM427.744 284.454H422.681V287.882H428.623V290H420.045V277.203H428.605V279.339H422.681V282.389H427.744V284.454ZM433.975 277.203L437.262 286.484L440.531 277.203H443.994V290H441.349V286.502L441.613 280.464L438.158 290H436.348L432.903 280.473L433.166 286.502V290H430.53V277.203H433.975ZM454.04 287.363H449.417L448.538 290H445.734L450.498 277.203H452.941L457.731 290H454.928L454.04 287.363ZM450.129 285.228H453.328L451.72 280.438L450.129 285.228ZM362.329 305.491V310H359.692V297.203H364.684C365.645 297.203 366.489 297.379 367.216 297.73C367.948 298.082 368.511 298.583 368.903 299.233C369.296 299.878 369.492 300.613 369.492 301.439C369.492 302.693 369.061 303.684 368.2 304.41C367.344 305.131 366.158 305.491 364.64 305.491H362.329ZM362.329 303.355H364.684C365.382 303.355 365.912 303.191 366.275 302.863C366.644 302.535 366.829 302.066 366.829 301.457C366.829 300.83 366.644 300.323 366.275 299.937C365.906 299.55 365.396 299.351 364.746 299.339H362.329V303.355ZM376.409 305.315H374.308V310H371.671V297.203H376.426C377.938 297.203 379.104 297.54 379.924 298.214C380.745 298.888 381.155 299.84 381.155 301.07C381.155 301.943 380.964 302.673 380.583 303.259C380.208 303.839 379.637 304.302 378.87 304.647L381.638 309.877V310H378.808L376.409 305.315ZM374.308 303.18H376.435C377.097 303.18 377.61 303.013 377.973 302.679C378.336 302.339 378.518 301.873 378.518 301.281C378.518 300.678 378.345 300.203 377.999 299.857C377.66 299.512 377.135 299.339 376.426 299.339H374.308V303.18ZM386.331 310H383.694V297.203H386.331V310ZM395.779 306.643C395.779 306.145 395.603 305.764 395.252 305.5C394.9 305.23 394.267 304.949 393.353 304.656C392.439 304.357 391.716 304.064 391.182 303.777C389.729 302.992 389.003 301.935 389.003 300.604C389.003 299.913 389.196 299.298 389.583 298.759C389.975 298.214 390.535 297.789 391.261 297.484C391.994 297.18 392.814 297.027 393.722 297.027C394.636 297.027 395.451 297.194 396.166 297.528C396.881 297.856 397.434 298.322 397.827 298.926C398.225 299.529 398.424 300.215 398.424 300.982H395.788C395.788 300.396 395.603 299.942 395.234 299.62C394.865 299.292 394.346 299.128 393.678 299.128C393.034 299.128 392.533 299.266 392.175 299.541C391.818 299.811 391.639 300.168 391.639 300.613C391.639 301.029 391.847 301.378 392.263 301.659C392.685 301.94 393.303 302.204 394.118 302.45C395.618 302.901 396.711 303.461 397.396 304.129C398.082 304.797 398.424 305.629 398.424 306.625C398.424 307.732 398.006 308.603 397.168 309.235C396.33 309.862 395.202 310.176 393.784 310.176C392.799 310.176 391.903 309.997 391.094 309.64C390.286 309.276 389.668 308.781 389.24 308.154C388.818 307.527 388.607 306.801 388.607 305.975H391.253C391.253 307.387 392.096 308.093 393.784 308.093C394.411 308.093 394.9 307.967 395.252 307.715C395.603 307.457 395.779 307.1 395.779 306.643ZM403.381 310H400.744V297.203H403.381V310ZM416.705 303.892C416.705 305.151 416.482 306.256 416.037 307.205C415.592 308.154 414.953 308.887 414.121 309.402C413.295 309.918 412.346 310.176 411.273 310.176C410.213 310.176 409.267 309.921 408.435 309.411C407.603 308.901 406.958 308.175 406.501 307.231C406.044 306.282 405.812 305.192 405.807 303.962V303.329C405.807 302.069 406.032 300.962 406.483 300.007C406.94 299.046 407.582 298.311 408.408 297.801C409.24 297.285 410.189 297.027 411.256 297.027C412.322 297.027 413.269 297.285 414.095 297.801C414.927 298.311 415.568 299.046 416.019 300.007C416.477 300.962 416.705 302.066 416.705 303.32V303.892ZM414.033 303.312C414.033 301.97 413.793 300.95 413.312 300.253C412.832 299.556 412.146 299.207 411.256 299.207C410.371 299.207 409.688 299.553 409.208 300.244C408.728 300.93 408.484 301.938 408.478 303.268V303.892C408.478 305.198 408.719 306.212 409.199 306.933C409.68 307.653 410.371 308.014 411.273 308.014C412.158 308.014 412.838 307.668 413.312 306.977C413.787 306.279 414.027 305.266 414.033 303.936V303.312ZM429.387 310H426.751L421.618 301.58V310H418.981V297.203H421.618L426.759 305.641V297.203H429.387V310ZM439.433 307.363H434.81L433.931 310H431.127L435.891 297.203H438.334L443.124 310H440.321L439.433 307.363ZM435.522 305.228H438.721L437.113 300.438L435.522 305.228ZM447.316 307.882H452.915V310H444.68V297.203H447.316V307.882Z" fill="#009245"/>
<path d="M108.206 179.827L111.107 170.203H114.042L109.586 183H106.835L102.397 170.203H105.323L108.206 179.827ZM118.419 183H115.782V170.203H118.419V183ZM127.867 179.643C127.867 179.145 127.691 178.764 127.339 178.5C126.988 178.23 126.355 177.949 125.441 177.656C124.527 177.357 123.803 177.064 123.27 176.777C121.817 175.992 121.09 174.935 121.09 173.604C121.09 172.913 121.284 172.298 121.67 171.759C122.063 171.214 122.622 170.789 123.349 170.484C124.081 170.18 124.902 170.027 125.81 170.027C126.724 170.027 127.538 170.194 128.253 170.528C128.968 170.856 129.522 171.322 129.914 171.926C130.313 172.529 130.512 173.215 130.512 173.982H127.875C127.875 173.396 127.691 172.942 127.322 172.62C126.953 172.292 126.434 172.128 125.766 172.128C125.121 172.128 124.621 172.266 124.263 172.541C123.906 172.811 123.727 173.168 123.727 173.613C123.727 174.029 123.935 174.378 124.351 174.659C124.773 174.94 125.391 175.204 126.205 175.45C127.705 175.901 128.798 176.461 129.484 177.129C130.169 177.797 130.512 178.629 130.512 179.625C130.512 180.732 130.093 181.603 129.255 182.235C128.417 182.862 127.289 183.176 125.871 183.176C124.887 183.176 123.991 182.997 123.182 182.64C122.373 182.276 121.755 181.781 121.328 181.154C120.906 180.527 120.695 179.801 120.695 178.975H123.34C123.34 180.387 124.184 181.093 125.871 181.093C126.498 181.093 126.988 180.967 127.339 180.715C127.691 180.457 127.867 180.1 127.867 179.643ZM135.469 183H132.832V170.203H135.469V183ZM147.65 172.339H143.73V183H141.093V172.339H137.226V170.203H147.65V172.339ZM155.692 180.363H151.069L150.19 183H147.386L152.15 170.203H154.593L159.383 183H156.579L155.692 180.363ZM151.781 178.228H154.98L153.371 173.438L151.781 178.228ZM171.345 183H168.708L163.575 174.58V183H160.938V170.203H163.575L168.717 178.641V170.203H171.345V183ZM183.377 172.339H179.457V183H176.82V172.339H172.953V170.203H183.377V172.339ZM192.947 177.454H187.885V180.882H193.826V183H185.248V170.203H193.809V172.339H187.885V175.389H192.947V177.454ZM202.369 179.643C202.369 179.145 202.193 178.764 201.842 178.5C201.49 178.23 200.857 177.949 199.943 177.656C199.029 177.357 198.306 177.064 197.772 176.777C196.319 175.992 195.593 174.935 195.593 173.604C195.593 172.913 195.786 172.298 196.173 171.759C196.565 171.214 197.125 170.789 197.851 170.484C198.584 170.18 199.404 170.027 200.312 170.027C201.226 170.027 202.041 170.194 202.756 170.528C203.471 170.856 204.024 171.322 204.417 171.926C204.815 172.529 205.015 173.215 205.015 173.982H202.378C202.378 173.396 202.193 172.942 201.824 172.62C201.455 172.292 200.936 172.128 200.268 172.128C199.624 172.128 199.123 172.266 198.766 172.541C198.408 172.811 198.229 173.168 198.229 173.613C198.229 174.029 198.437 174.378 198.853 174.659C199.275 174.94 199.893 175.204 200.708 175.45C202.208 175.901 203.301 176.461 203.986 177.129C204.672 177.797 205.015 178.629 205.015 179.625C205.015 180.732 204.596 181.603 203.758 182.235C202.92 182.862 201.792 183.176 200.374 183.176C199.39 183.176 198.493 182.997 197.684 182.64C196.876 182.276 196.258 181.781 195.83 181.154C195.408 180.527 195.197 179.801 195.197 178.975H197.843C197.843 180.387 198.686 181.093 200.374 181.093C201.001 181.093 201.49 180.967 201.842 180.715C202.193 180.457 202.369 180.1 202.369 179.643Z" fill="#246BD7"/>
<path d="M585.219 164.491V169H582.582V156.203H587.574C588.535 156.203 589.379 156.379 590.106 156.73C590.838 157.082 591.401 157.583 591.793 158.233C592.186 158.878 592.382 159.613 592.382 160.439C592.382 161.693 591.951 162.684 591.09 163.41C590.235 164.131 589.048 164.491 587.53 164.491H585.219ZM585.219 162.355H587.574C588.272 162.355 588.802 162.191 589.165 161.863C589.534 161.535 589.719 161.066 589.719 160.457C589.719 159.83 589.534 159.323 589.165 158.937C588.796 158.55 588.286 158.351 587.636 158.339H585.219V162.355ZM599.299 164.315H597.198V169H594.561V156.203H599.316C600.828 156.203 601.994 156.54 602.814 157.214C603.635 157.888 604.045 158.84 604.045 160.07C604.045 160.943 603.854 161.673 603.473 162.259C603.098 162.839 602.527 163.302 601.76 163.647L604.528 168.877V169H601.698L599.299 164.315ZM597.198 162.18H599.325C599.987 162.18 600.5 162.013 600.863 161.679C601.226 161.339 601.408 160.873 601.408 160.281C601.408 159.678 601.235 159.203 600.889 158.857C600.55 158.512 600.025 158.339 599.316 158.339H597.198V162.18ZM616.929 162.892C616.929 164.151 616.706 165.256 616.261 166.205C615.816 167.154 615.177 167.887 614.345 168.402C613.519 168.918 612.57 169.176 611.497 169.176C610.437 169.176 609.491 168.921 608.659 168.411C607.827 167.901 607.182 167.175 606.725 166.231C606.268 165.282 606.037 164.192 606.031 162.962V162.329C606.031 161.069 606.256 159.962 606.707 159.007C607.164 158.046 607.806 157.311 608.632 156.801C609.464 156.285 610.414 156.027 611.48 156.027C612.546 156.027 613.493 156.285 614.319 156.801C615.151 157.311 615.792 158.046 616.244 159.007C616.701 159.962 616.929 161.066 616.929 162.32V162.892ZM614.257 162.312C614.257 160.97 614.017 159.95 613.537 159.253C613.056 158.556 612.371 158.207 611.48 158.207C610.595 158.207 609.913 158.553 609.432 159.244C608.952 159.93 608.708 160.938 608.703 162.268V162.892C608.703 164.198 608.943 165.212 609.423 165.933C609.904 166.653 610.595 167.014 611.497 167.014C612.382 167.014 613.062 166.668 613.537 165.977C614.011 165.279 614.251 164.266 614.257 162.936V162.312ZM626.904 163.771H621.842V169H619.205V156.203H627.537V158.339H621.842V161.644H626.904V163.771ZM632.23 169H629.593V156.203H632.23V169ZM641.678 165.643C641.678 165.145 641.502 164.764 641.151 164.5C640.799 164.23 640.166 163.949 639.252 163.656C638.338 163.357 637.615 163.064 637.081 162.777C635.628 161.992 634.902 160.935 634.902 159.604C634.902 158.913 635.095 158.298 635.482 157.759C635.874 157.214 636.434 156.789 637.161 156.484C637.893 156.18 638.713 156.027 639.621 156.027C640.536 156.027 641.35 156.194 642.065 156.528C642.78 156.856 643.333 157.322 643.726 157.926C644.124 158.529 644.324 159.215 644.324 159.982H641.687C641.687 159.396 641.502 158.942 641.133 158.62C640.764 158.292 640.245 158.128 639.577 158.128C638.933 158.128 638.432 158.266 638.075 158.541C637.717 158.811 637.538 159.168 637.538 159.613C637.538 160.029 637.746 160.378 638.162 160.659C638.584 160.94 639.202 161.204 640.017 161.45C641.517 161.901 642.61 162.461 643.295 163.129C643.981 163.797 644.324 164.629 644.324 165.625C644.324 166.732 643.905 167.603 643.067 168.235C642.229 168.862 641.101 169.176 639.683 169.176C638.699 169.176 637.802 168.997 636.994 168.64C636.185 168.276 635.567 167.781 635.139 167.154C634.717 166.527 634.506 165.801 634.506 164.975H637.152C637.152 166.387 637.995 167.093 639.683 167.093C640.31 167.093 640.799 166.967 641.151 166.715C641.502 166.457 641.678 166.1 641.678 165.643ZM653.112 165.643C653.112 165.145 652.937 164.764 652.585 164.5C652.233 164.23 651.601 163.949 650.687 163.656C649.772 163.357 649.049 163.064 648.516 162.777C647.062 161.992 646.336 160.935 646.336 159.604C646.336 158.913 646.529 158.298 646.916 157.759C647.309 157.214 647.868 156.789 648.595 156.484C649.327 156.18 650.147 156.027 651.056 156.027C651.97 156.027 652.784 156.194 653.499 156.528C654.214 156.856 654.768 157.322 655.16 157.926C655.559 158.529 655.758 159.215 655.758 159.982H653.121C653.121 159.396 652.937 158.942 652.567 158.62C652.198 158.292 651.68 158.128 651.012 158.128C650.367 158.128 649.866 158.266 649.509 158.541C649.151 158.811 648.973 159.168 648.973 159.613C648.973 160.029 649.181 160.378 649.597 160.659C650.019 160.94 650.637 161.204 651.451 161.45C652.951 161.901 654.044 162.461 654.729 163.129C655.415 163.797 655.758 164.629 655.758 165.625C655.758 166.732 655.339 167.603 654.501 168.235C653.663 168.862 652.535 169.176 651.117 169.176C650.133 169.176 649.236 168.997 648.428 168.64C647.619 168.276 647.001 167.781 646.573 167.154C646.151 166.527 645.94 165.801 645.94 164.975H648.586C648.586 166.387 649.43 167.093 651.117 167.093C651.744 167.093 652.233 166.967 652.585 166.715C652.937 166.457 653.112 166.1 653.112 165.643ZM660.714 169H658.078V156.203H660.714V169ZM674.038 162.892C674.038 164.151 673.816 165.256 673.37 166.205C672.925 167.154 672.286 167.887 671.454 168.402C670.628 168.918 669.679 169.176 668.607 169.176C667.546 169.176 666.6 168.921 665.768 168.411C664.936 167.901 664.291 167.175 663.834 166.231C663.377 165.282 663.146 164.192 663.14 162.962V162.329C663.14 161.069 663.366 159.962 663.817 159.007C664.274 158.046 664.915 157.311 665.741 156.801C666.574 156.285 667.523 156.027 668.589 156.027C669.656 156.027 670.602 156.285 671.428 156.801C672.26 157.311 672.902 158.046 673.353 159.007C673.81 159.962 674.038 161.066 674.038 162.32V162.892ZM671.366 162.312C671.366 160.97 671.126 159.95 670.646 159.253C670.165 158.556 669.48 158.207 668.589 158.207C667.704 158.207 667.022 158.553 666.541 159.244C666.061 159.93 665.818 160.938 665.812 162.268V162.892C665.812 164.198 666.052 165.212 666.532 165.933C667.013 166.653 667.704 167.014 668.607 167.014C669.491 167.014 670.171 166.668 670.646 165.977C671.12 165.279 671.361 164.266 671.366 162.936V162.312ZM686.721 169H684.084L678.951 160.58V169H676.314V156.203H678.951L684.093 164.641V156.203H686.721V169ZM696.766 166.363H692.143L691.264 169H688.461L693.224 156.203H695.668L700.458 169H697.654L696.766 166.363ZM692.855 164.228H696.054L694.446 159.438L692.855 164.228ZM704.817 169H702.18V156.203H704.817V169ZM714.264 165.643C714.264 165.145 714.089 164.764 713.737 164.5C713.386 164.23 712.753 163.949 711.839 163.656C710.925 163.357 710.201 163.064 709.668 162.777C708.215 161.992 707.488 160.935 707.488 159.604C707.488 158.913 707.681 158.298 708.068 157.759C708.461 157.214 709.02 156.789 709.747 156.484C710.479 156.18 711.3 156.027 712.208 156.027C713.122 156.027 713.936 156.194 714.651 156.528C715.366 156.856 715.92 157.322 716.312 157.926C716.711 158.529 716.91 159.215 716.91 159.982H714.273C714.273 159.396 714.089 158.942 713.72 158.62C713.35 158.292 712.832 158.128 712.164 158.128C711.519 158.128 711.018 158.266 710.661 158.541C710.304 158.811 710.125 159.168 710.125 159.613C710.125 160.029 710.333 160.378 710.749 160.659C711.171 160.94 711.789 161.204 712.603 161.45C714.103 161.901 715.196 162.461 715.882 163.129C716.567 163.797 716.91 164.629 716.91 165.625C716.91 166.732 716.491 167.603 715.653 168.235C714.815 168.862 713.687 169.176 712.269 169.176C711.285 169.176 710.389 168.997 709.58 168.64C708.771 168.276 708.153 167.781 707.725 167.154C707.304 166.527 707.093 165.801 707.093 164.975H709.738C709.738 166.387 710.582 167.093 712.269 167.093C712.896 167.093 713.386 166.967 713.737 166.715C714.089 166.457 714.264 166.1 714.264 165.643ZM606.975 189V176.203H610.913C612.038 176.203 613.043 176.458 613.928 176.968C614.818 177.472 615.512 178.192 616.011 179.13C616.509 180.062 616.758 181.122 616.758 182.312V182.9C616.758 184.09 616.511 185.147 616.019 186.073C615.533 186.999 614.844 187.717 613.954 188.227C613.063 188.736 612.058 188.994 610.939 189H606.975ZM609.612 178.339V186.882H610.886C611.918 186.882 612.706 186.545 613.251 185.871C613.796 185.197 614.074 184.233 614.086 182.979V182.303C614.086 181.002 613.816 180.018 613.277 179.35C612.738 178.676 611.95 178.339 610.913 178.339H609.612ZM626.074 186.363H621.451L620.572 189H617.768L622.532 176.203H624.975L629.765 189H626.961L626.074 186.363ZM622.163 184.228H625.362L623.753 179.438L622.163 184.228ZM642.799 185.643C642.799 185.145 642.623 184.764 642.271 184.5C641.92 184.23 641.287 183.949 640.373 183.656C639.459 183.357 638.735 183.064 638.202 182.777C636.749 181.992 636.022 180.935 636.022 179.604C636.022 178.913 636.216 178.298 636.602 177.759C636.995 177.214 637.554 176.789 638.281 176.484C639.013 176.18 639.834 176.027 640.742 176.027C641.656 176.027 642.47 176.194 643.185 176.528C643.9 176.856 644.454 177.322 644.846 177.926C645.245 178.529 645.444 179.215 645.444 179.982H642.807C642.807 179.396 642.623 178.942 642.254 178.62C641.884 178.292 641.366 178.128 640.698 178.128C640.053 178.128 639.552 178.266 639.195 178.541C638.838 178.811 638.659 179.168 638.659 179.613C638.659 180.029 638.867 180.378 639.283 180.659C639.705 180.94 640.323 181.204 641.137 181.45C642.637 181.901 643.73 182.461 644.416 183.129C645.101 183.797 645.444 184.629 645.444 185.625C645.444 186.732 645.025 187.603 644.187 188.235C643.349 188.862 642.221 189.176 640.803 189.176C639.819 189.176 638.923 188.997 638.114 188.64C637.305 188.276 636.687 187.781 636.259 187.154C635.838 186.527 635.627 185.801 635.627 184.975H638.272C638.272 186.387 639.116 187.093 640.803 187.093C641.43 187.093 641.92 186.967 642.271 186.715C642.623 186.457 642.799 186.1 642.799 185.643ZM654.822 186.363H650.199L649.32 189H646.516L651.28 176.203H653.723L658.513 189H655.709L654.822 186.363ZM650.91 184.228H654.11L652.501 179.438L650.91 184.228ZM653.046 172.775H655.815L653.38 175.5H651.315L653.046 172.775ZM669.596 176.203V184.632C669.596 186.032 669.156 187.14 668.277 187.954C667.404 188.769 666.209 189.176 664.691 189.176C663.197 189.176 662.011 188.78 661.132 187.989C660.253 187.198 659.805 186.111 659.787 184.729V176.203H662.424V184.649C662.424 185.487 662.623 186.1 663.021 186.486C663.426 186.867 663.982 187.058 664.691 187.058C666.174 187.058 666.927 186.278 666.95 184.72V176.203H669.596ZM672.118 189V176.203H676.055C677.18 176.203 678.185 176.458 679.07 176.968C679.961 177.472 680.655 178.192 681.153 179.13C681.651 180.062 681.9 181.122 681.9 182.312V182.9C681.9 184.09 681.654 185.147 681.162 186.073C680.675 186.999 679.987 187.717 679.096 188.227C678.206 188.736 677.201 188.994 676.082 189H672.118ZM674.755 178.339V186.882H676.029C677.06 186.882 677.848 186.545 678.393 185.871C678.938 185.197 679.216 184.233 679.228 182.979V182.303C679.228 181.002 678.959 180.018 678.42 179.35C677.88 178.676 677.092 178.339 676.055 178.339H674.755ZM691.884 183.454H686.822V186.882H692.763V189H684.185V176.203H692.745V178.339H686.822V181.389H691.884V183.454Z" fill="#AC80DD"/>
</svg>
