<svg width="128" height="128" viewBox="0 0 128 128" fill="none" xmlns="http://www.w3.org/2000/svg">
<g clip-path="url(#clip0)">
<path d="M64 128C99.3462 128 128 99.3462 128 64C128 28.6538 99.3462 0 64 0C28.6538 0 0 28.6538 0 64C0 99.3462 28.6538 128 64 128Z" fill="#FBC21A"/>
<path d="M64 89.1795C77.9894 89.1795 89.33 77.8389 89.33 63.8495C89.33 49.8602 77.9894 38.5195 64 38.5195C50.0106 38.5195 38.67 49.8602 38.67 63.8495C38.67 77.8389 50.0106 89.1795 64 89.1795Z" stroke="#2F2F2F" stroke-width="6" stroke-miterlimit="10"/>
<path d="M39.78 110.69C33.9208 110.687 28.1786 109.049 23.2 105.96C21.66 105.01 21.12 103.01 21.96 101.4C22.56 100.26 23.74 99.5497 25.03 99.5497C25.51 99.5497 25.98 99.6497 26.42 99.8397C28.82 100.89 31.37 101.43 34.01 101.43C37.33 101.43 40.59 100.56 43.44 98.9197C49.69 95.3097 53.29 88.5897 52.83 81.3797C52.34 73.6897 47.34 67.2397 39.09 63.6497C37.96 63.5197 36.84 63.4597 35.76 63.4597C30.51 63.4597 25.99 64.9197 22.33 67.7997C18.4 70.8897 15.83 75.5397 15.27 80.5497C15.08 82.3097 13.61 83.6397 11.87 83.6397H11.76L11.66 83.6297C10.7911 83.5839 9.97071 83.2148 9.36009 82.5949C8.74946 81.9751 8.39273 81.1492 8.35999 80.2797C8.11355 72.6774 10.6315 65.2435 15.4472 59.3558C20.2629 53.4681 27.0498 49.5259 34.55 48.2597C33.25 44.7597 32.57 41.0297 32.57 37.2997C32.57 25.6997 38.93 15.0797 49.17 9.58973C49.67 9.31973 50.23 9.17973 50.81 9.17973C52.01 9.17973 53.1 9.77973 53.74 10.7897C54.2061 11.5314 54.3744 12.4219 54.2111 13.2825C54.0479 14.1432 53.5653 14.9102 52.86 15.4297C48.04 18.9697 45.15 24.6597 45.15 30.6297C45.15 37.8497 49.17 44.3297 55.65 47.5397C58.28 48.8397 61.09 49.5097 63.99 49.5097C68.65 49.5097 73.45 47.7797 77.88 44.5097C81.81 39.1897 83.46 33.4597 82.67 27.9197C81.96 22.9697 79.22 18.4197 75.16 15.4397C74.4547 14.9202 73.9721 14.1532 73.8089 13.2925C73.6456 12.4319 73.8139 11.5414 74.28 10.7997C74.587 10.302 75.0168 9.89155 75.5281 9.60785C76.0395 9.32415 76.6152 9.17672 77.2 9.17973C77.77 9.17973 78.34 9.31973 78.84 9.58973C83.8549 12.2738 88.047 16.2691 90.9689 21.1494C93.8907 26.0297 95.4326 31.6117 95.43 37.2997C95.43 41.0297 94.75 44.7597 93.45 48.2597C97.13 48.8797 100.7 50.1597 103.93 52.0297C113.98 57.8297 119.99 68.6497 119.63 80.2597C119.599 81.1349 119.239 81.9662 118.621 82.5872C118.004 83.2083 117.175 83.5735 116.3 83.6097H116.15C114.39 83.6097 112.92 82.2797 112.72 80.5297C112.06 74.5797 108.58 69.2397 103.41 66.2497C100.542 64.5859 97.2859 63.7065 93.97 63.6997C90.26 63.6997 86.65 64.7997 83.52 66.8897C77.1 71.1597 74.02 78.7097 75.03 87.6597C77.67 93.7197 81.81 98.0197 87.01 100.1C89.21 100.98 91.55 101.43 93.96 101.43C96.57 101.43 99.21 100.88 101.58 99.8397C102.02 99.6497 102.49 99.5497 102.97 99.5497C104.26 99.5497 105.44 100.26 106.04 101.4C106.88 103 106.34 105 104.8 105.95C99.8228 109.042 94.0797 110.681 88.22 110.68C82.72 110.68 77.28 109.22 72.51 106.46C69.275 104.583 66.3974 102.149 64.01 99.2697C61.6253 102.151 58.7472 104.586 55.51 106.46C50.7293 109.227 45.3039 110.686 39.78 110.69Z" fill="#2F2F2F"/>
<path d="M50.8 11.6797C51.12 11.6797 51.43 11.8397 51.62 12.1297C51.89 12.5597 51.78 13.1197 51.38 13.4197C45.92 17.4297 42.65 23.8697 42.65 30.6397C42.65 38.8197 47.21 46.1497 54.54 49.7897C57.55 51.2797 60.74 52.0197 63.99 52.0197C69.25 52.0197 74.66 50.0897 79.66 46.3097C84.15 40.3597 86.04 33.8897 85.13 27.5797C84.32 21.9697 81.22 16.8097 76.62 13.4397C76.4236 13.2955 76.2894 13.0818 76.2449 12.8422C76.2003 12.6026 76.2486 12.355 76.38 12.1497C76.56 11.8597 76.87 11.6997 77.2 11.6997C77.35 11.6997 77.51 11.7397 77.66 11.8197C82.2784 14.2895 86.1392 17.9672 88.8304 22.4601C91.5216 26.953 92.942 32.0925 92.94 37.3297C92.94 41.8697 91.87 46.3597 89.82 50.3897C94.34 50.6397 98.76 51.9497 102.69 54.2197C107.226 56.8346 110.967 60.633 113.512 65.209C116.057 69.7849 117.311 74.9664 117.14 80.1997C117.12 80.7097 116.72 81.1097 116.21 81.1297H116.16C115.68 81.1297 115.27 80.7597 115.22 80.2697C114.48 73.5297 110.53 67.4897 104.67 64.0997C101.422 62.2152 97.7348 61.2217 93.98 61.2197C89.86 61.2197 85.75 62.4297 82.14 64.8197C74.82 69.6897 71.35 78.2497 72.6 88.3197C75.5 95.1797 80.16 100.06 86.09 102.43C88.6 103.43 91.28 103.93 93.97 103.93C96.91 103.93 99.86 103.33 102.59 102.13C102.713 102.075 102.846 102.047 102.98 102.05C103.33 102.05 103.66 102.24 103.83 102.57C104.07 103.02 103.92 103.57 103.49 103.84C98.81 106.74 93.52 108.2 88.22 108.2C83.23 108.2 78.24 106.91 73.76 104.32C69.8259 102.053 66.4847 98.8865 64.01 95.0797C61.5271 98.8796 58.1877 102.044 54.26 104.32C49.8642 106.86 44.877 108.198 39.8 108.2C34.5 108.2 29.21 106.74 24.53 103.84C24.3224 103.711 24.1717 103.508 24.1085 103.272C24.0453 103.036 24.0745 102.785 24.19 102.57C24.36 102.24 24.7 102.06 25.04 102.06C25.17 102.06 25.3 102.09 25.43 102.14C28.17 103.34 31.1 103.94 34.03 103.94C37.74 103.94 41.43 102.98 44.71 101.09C51.79 96.9997 55.87 89.3897 55.35 81.2197C54.79 72.4497 49.11 65.1597 39.77 61.1997C38.41 61.0297 37.08 60.9497 35.79 60.9497C30.02 60.9497 24.9 62.6097 20.81 65.8297C16.36 69.3397 13.44 74.5997 12.82 80.2697C12.77 80.7497 12.38 81.1297 11.9 81.1297H11.82C11.5765 81.1199 11.3456 81.0187 11.1733 80.8464C11.001 80.6741 10.8999 80.4432 10.89 80.1997C10.7175 74.9662 11.9709 69.7842 14.5162 65.2081C17.0614 60.6319 20.8028 56.8337 25.34 54.2197C29.27 51.9497 33.7 50.6397 38.21 50.3897C36.1583 46.342 35.0894 41.8677 35.09 37.3297C35.09 26.6497 40.94 16.8797 50.37 11.8197C50.49 11.7197 50.65 11.6797 50.8 11.6797ZM50.8 6.67973C49.82 6.67973 48.84 6.92973 47.97 7.38973C42.5569 10.2862 38.0323 14.5988 34.8796 19.8668C31.7268 25.1349 30.0645 31.1604 30.07 37.2997C30.07 40.3697 30.49 43.4397 31.32 46.3997C28.35 47.1697 25.48 48.3297 22.82 49.8697C11.97 56.1297 5.48 67.8097 5.87 80.3397C5.97 83.4097 8.42 85.9197 11.47 86.1097C11.6 86.1197 11.74 86.1197 11.87 86.1197C14.89 86.1197 17.42 83.8397 17.76 80.8097C18.24 76.4597 20.47 72.4297 23.88 69.7497C27.09 67.2197 31.09 65.9397 35.76 65.9397C36.63 65.9397 37.53 65.9897 38.44 66.0797C45.69 69.3497 49.91 74.8097 50.34 81.5297C50.74 87.7897 47.62 93.6197 42.19 96.7497C39.72 98.1697 36.89 98.9297 34.01 98.9297C31.72 98.9297 29.5 98.4697 27.42 97.5497C26.66 97.2197 25.86 97.0497 25.03 97.0497C22.81 97.0497 20.79 98.2697 19.75 100.24C18.3 103 19.24 106.44 21.88 108.09C27.2544 111.427 33.4539 113.197 39.78 113.2C45.72 113.2 51.59 111.63 56.74 108.65C59.4012 107.111 61.8403 105.217 63.99 103.02C66.14 105.21 68.59 107.11 71.24 108.65C76.3964 111.628 82.2454 113.197 88.2 113.2C94.52 113.2 100.71 111.43 106.1 108.09C108.75 106.45 109.69 103 108.23 100.24C107.726 99.2762 106.967 98.4694 106.036 97.907C105.105 97.3446 104.038 97.0481 102.95 97.0497C102.12 97.0497 101.3 97.2197 100.54 97.5597C98.5 98.4597 96.21 98.9297 93.94 98.9297C91.85 98.9297 89.82 98.5397 87.92 97.7797C83.45 95.9897 79.84 92.2697 77.46 87.0097C76.67 79.0897 79.29 72.7097 84.89 68.9797C87.61 67.1697 90.75 66.2097 93.96 66.2097C96.81 66.2097 99.64 66.9797 102.15 68.4197C106.64 71.0097 109.66 75.6397 110.23 80.8097C110.387 82.2679 111.077 83.6166 112.168 84.5967C113.259 85.5769 114.673 86.1193 116.14 86.1197C116.24 86.1197 116.34 86.1197 116.44 86.1097C119.53 85.9597 122.02 83.4397 122.12 80.3397C122.51 67.8097 116.02 56.1297 105.17 49.8697C102.51 48.3397 99.64 47.1697 96.67 46.3997C97.49 43.4397 97.92 40.3697 97.92 37.2997C97.92 24.7697 91.06 13.3097 80.01 7.38973C79.15 6.92973 78.17 6.67973 77.19 6.67973C75.13 6.67973 73.24 7.71973 72.14 9.46973C70.48 12.0997 71.14 15.6097 73.66 17.4497C77.18 20.0397 79.56 23.9797 80.18 28.2797C80.87 33.0497 79.45 38.0297 76.08 42.7297C72.17 45.5397 68 47.0197 63.98 47.0197C61.47 47.0197 59.03 46.4497 56.75 45.3097C51.13 42.5297 47.64 36.9097 47.64 30.6397C47.64 25.4597 50.14 20.5297 54.33 17.4497C56.84 15.5997 57.51 12.0897 55.84 9.45973C55.306 8.60568 54.5628 7.90209 53.6808 7.41559C52.7988 6.9291 51.8073 6.67582 50.8 6.67973Z" fill="#FBC21A"/>
<path d="M78.74 70.1292L70.89 65.5992C71.03 65.0392 71.12 64.4592 71.12 63.8492C71.12 60.5892 68.93 57.8492 65.94 57.0092V47.9492H62.09V57.0092C60.5989 57.4286 59.2857 58.3239 58.3505 59.5587C57.4154 60.7936 56.9095 62.3002 56.91 63.8492C56.91 64.4492 56.99 65.0392 57.14 65.5992L49.29 70.1292L51.22 73.4692L59.07 68.9392C60.3948 70.2364 62.1759 70.9617 64.03 70.9592C65.96 70.9592 67.71 70.1892 68.99 68.9392L76.84 73.4692L78.74 70.1292Z" fill="#FBC21A"/>
</g>
<defs>
<clipPath id="clip0">
<rect width="128" height="128" fill="white"/>
</clipPath>
</defs>
</svg>
